<?xml version="1.0" encoding="UTF-8" standalone="no"?>
<svg
   xmlns:dc="http://purl.org/dc/elements/1.1/"
   xmlns:cc="http://creativecommons.org/ns#"
   xmlns:rdf="http://www.w3.org/1999/02/22-rdf-syntax-ns#"
   xmlns:svg="http://www.w3.org/2000/svg"
   xmlns="http://www.w3.org/2000/svg"
   viewBox="0 0 319.36221 389.71362"
   height="389.71362"
   width="319.36221"
   xml:space="preserve"
   id="svg2"
   version="1.1"><metadata
     id="metadata8"><rdf:RDF><cc:Work
         rdf:about=""><dc:format>image/svg+xml</dc:format><dc:type
           rdf:resource="http://purl.org/dc/dcmitype/StillImage" /></cc:Work></rdf:RDF></metadata><defs
     id="defs6"><clipPath
       id="clipPath20"
       clipPathUnits="userSpaceOnUse"><path
         id="path18"
         d="M 0,0 H 430 V 640 H 0 Z" /></clipPath><clipPath
       id="clipPath32"
       clipPathUnits="userSpaceOnUse"><path
         id="path30"
         d="m 46.20813,203.725 h 238.4202 V 464.1993 H 46.20813 Z" /></clipPath><clipPath
       id="clipPath54"
       clipPathUnits="userSpaceOnUse"><path
         id="path52"
         d="M 0,0 H 430 V 640 H 0 Z" /></clipPath><clipPath
       id="clipPath66"
       clipPathUnits="userSpaceOnUse"><path
         id="path64"
         d="m 94.06905,230.7648 h 91.71087 v 22.45166 H 94.06905 Z" /></clipPath><clipPath
       id="clipPath88"
       clipPathUnits="userSpaceOnUse"><path
         id="path86"
         d="M 0,0 H 430 V 640 H 0 Z" /></clipPath><clipPath
       id="clipPath100"
       clipPathUnits="userSpaceOnUse"><path
         id="path98"
         d="m 94.06905,308.7742 h 91.71087 v 22.45166 H 94.06905 Z" /></clipPath><clipPath
       id="clipPath122"
       clipPathUnits="userSpaceOnUse"><path
         id="path120"
         d="M 0,0 H 430 V 640 H 0 Z" /></clipPath><clipPath
       id="clipPath134"
       clipPathUnits="userSpaceOnUse"><path
         id="path132"
         d="m 94.06905,412.0594 h 91.71087 v 22.45166 H 94.06905 Z" /></clipPath><clipPath
       id="clipPath156"
       clipPathUnits="userSpaceOnUse"><path
         id="path154"
         d="M 0,0 H 430 V 640 H 0 Z" /></clipPath><clipPath
       id="clipPath228"
       clipPathUnits="userSpaceOnUse"><path
         id="path226"
         d="m 152.0381,334.744 h 25.16032 v 24.61379 H 152.0381 Z" /></clipPath><clipPath
       id="clipPath240"
       clipPathUnits="userSpaceOnUse"><path
         id="path238"
         d="m 153.5381,336.244 h 22.16031 v 21.61379 H 153.5381 Z" /></clipPath><clipPath
       id="clipPath256"
       clipPathUnits="userSpaceOnUse"><path
         id="path254"
         d="m 185.9716,334.744 h 25.16032 v 24.61379 H 185.9716 Z" /></clipPath><clipPath
       id="clipPath268"
       clipPathUnits="userSpaceOnUse"><path
         id="path266"
         d="m 187.4716,336.244 h 22.16031 v 21.61379 H 187.4716 Z" /></clipPath><clipPath
       id="clipPath284"
       clipPathUnits="userSpaceOnUse"><path
         id="path282"
         d="m 165.8692,359.5806 h 31.43156 v 30.73038 H 165.8692 Z" /></clipPath><clipPath
       id="clipPath296"
       clipPathUnits="userSpaceOnUse"><path
         id="path294"
         d="m 167.3692,361.0806 h 28.43156 v 27.73038 H 167.3692 Z" /></clipPath><clipPath
       id="clipPath312"
       clipPathUnits="userSpaceOnUse"><path
         id="path310"
         d="m 169.1017,355.5088 h 6.39362 v 8.3385 h -6.39362 z" /></clipPath><clipPath
       id="clipPath324"
       clipPathUnits="userSpaceOnUse"><path
         id="path322"
         d="m 187.6762,355.5075 h 6.39286 v 8.33724 h -6.39286 z" /></clipPath><clipPath
       id="clipPath336"
       clipPathUnits="userSpaceOnUse"><path
         id="path334"
         d="m 218.8681,334.744 h 25.16032 v 24.61379 H 218.8681 Z" /></clipPath><clipPath
       id="clipPath348"
       clipPathUnits="userSpaceOnUse"><path
         id="path346"
         d="m 220.3681,336.244 h 22.16031 v 21.61379 H 220.3681 Z" /></clipPath><clipPath
       id="clipPath364"
       clipPathUnits="userSpaceOnUse"><path
         id="path362"
         d="m 252.8016,334.744 h 25.16032 v 24.61379 H 252.8016 Z" /></clipPath><clipPath
       id="clipPath376"
       clipPathUnits="userSpaceOnUse"><path
         id="path374"
         d="m 254.3016,336.244 h 22.16031 v 21.61379 H 254.3016 Z" /></clipPath><clipPath
       id="clipPath392"
       clipPathUnits="userSpaceOnUse"><path
         id="path390"
         d="m 232.6992,359.5806 h 31.43156 v 30.73038 H 232.6992 Z" /></clipPath><clipPath
       id="clipPath404"
       clipPathUnits="userSpaceOnUse"><path
         id="path402"
         d="m 234.1992,361.0806 h 28.43156 v 27.73038 H 234.1992 Z" /></clipPath><clipPath
       id="clipPath420"
       clipPathUnits="userSpaceOnUse"><path
         id="path418"
         d="m 235.9317,355.5088 h 6.39362 v 8.3385 h -6.39362 z" /></clipPath><clipPath
       id="clipPath432"
       clipPathUnits="userSpaceOnUse"><path
         id="path430"
         d="m 254.5062,355.5075 h 6.39286 v 8.33725 h -6.39286 z" /></clipPath><clipPath
       id="clipPath444"
       clipPathUnits="userSpaceOnUse"><path
         id="path442"
         d="m 194.9522,394.6992 h 40.09566 V 433.88 H 194.9522 Z" /></clipPath><clipPath
       id="clipPath456"
       clipPathUnits="userSpaceOnUse"><path
         id="path454"
         d="m 196.4522,396.1992 h 37.09566 V 432.38 H 196.4522 Z" /></clipPath><clipPath
       id="clipPath472"
       clipPathUnits="userSpaceOnUse"><path
         id="path470"
         d="m 189.6076,384.6943 h 14.61609 v 16.60447 H 189.6076 Z" /></clipPath><clipPath
       id="clipPath484"
       clipPathUnits="userSpaceOnUse"><path
         id="path482"
         d="m 225.7755,384.6915 h 14.61928 v 16.60824 H 225.7755 Z" /></clipPath><clipPath
       id="clipPath496"
       clipPathUnits="userSpaceOnUse"><path
         id="path494"
         d="m 185.4531,256.9559 h 25.16032 v 24.61379 H 185.4531 Z" /></clipPath><clipPath
       id="clipPath508"
       clipPathUnits="userSpaceOnUse"><path
         id="path506"
         d="m 186.9531,258.4559 h 22.16031 v 21.61379 H 186.9531 Z" /></clipPath><clipPath
       id="clipPath524"
       clipPathUnits="userSpaceOnUse"><path
         id="path522"
         d="m 219.3866,256.9559 h 25.16032 v 24.61379 H 219.3866 Z" /></clipPath><clipPath
       id="clipPath536"
       clipPathUnits="userSpaceOnUse"><path
         id="path534"
         d="m 220.8866,258.4559 h 22.16031 v 21.61379 H 220.8866 Z" /></clipPath><clipPath
       id="clipPath552"
       clipPathUnits="userSpaceOnUse"><path
         id="path550"
         d="m 199.2842,281.7925 h 31.43156 v 30.73038 H 199.2842 Z" /></clipPath><clipPath
       id="clipPath564"
       clipPathUnits="userSpaceOnUse"><path
         id="path562"
         d="m 200.7842,283.2925 h 28.43156 v 27.73038 H 200.7842 Z" /></clipPath><clipPath
       id="clipPath580"
       clipPathUnits="userSpaceOnUse"><path
         id="path578"
         d="m 202.5167,277.7207 h 6.39362 v 8.3385 h -6.39362 z" /></clipPath><clipPath
       id="clipPath592"
       clipPathUnits="userSpaceOnUse"><path
         id="path590"
         d="m 221.0912,277.7194 h 6.39286 v 8.33725 h -6.39286 z" /></clipPath><clipPath
       id="clipPath604"
       clipPathUnits="userSpaceOnUse"><path
         id="path602"
         d="M 0,0 H 430 V 640 H 0 Z" /></clipPath></defs><g
     transform="matrix(1.3333333,0,0,-1.3333333,-60.876522,636.39094)"
     id="g10"><g
       id="g12" /><g
       id="g14"><g
         clip-path="url(#clipPath20)"
         id="g16"><g
           transform="matrix(1,0,0,-1,46.20813,464.1993)"
           id="g22"><path
             id="path24"
             style="fill:none;stroke:#000000;stroke-width:1.1;stroke-linecap:butt;stroke-linejoin:miter;stroke-miterlimit:4;stroke-dasharray:none;stroke-opacity:1"
             d="M 6.083041,0 H 232.3372 c 1.7851,0 2.8561,0 3.5701,0.2980961 1.0294,0.3746453 1.8402,1.1854879 2.2148,2.2148169 0.2981,0.714026 0.2981,1.785064 0.2981,3.570128 V 254.3913 c 0,1.785 0,2.8561 -0.2981,3.5701 -0.3746,1.0293 -1.1854,1.8402 -2.2148,2.2148 -0.714,0.2981 -1.785,0.2981 -3.5701,0.2981 H 6.083041 c -1.785064,0 -2.856102,0 -3.570128,-0.2981 C 1.483584,259.8016 0.6727414,258.9907 0.2980961,257.9614 0,257.2474 0,256.1763 0,254.3913 V 6.083041 C 0,4.297977 0,3.226939 0.2980961,2.512913 0.6727414,1.483584 1.483584,0.6727414 2.512913,0.2980961 3.226939,0 4.297977,0 6.083041,0 Z" /></g></g></g><g
       id="g26"><g
         clip-path="url(#clipPath32)"
         id="g28"><path
           id="path34"
           style="fill:#ffffff;fill-opacity:1;fill-rule:nonzero;stroke:none"
           d="m 52.0193,458.1993 h 72 v -14 h -72 z" /><g
           transform="translate(52.0193,447.0193)"
           id="g36"><text
             id="text40"
             style="font-variant:normal;font-weight:normal;font-size:12px;font-family:'PT Mono';-inkscape-font-specification:PTMono-Regular;writing-mode:lr-tb;fill:#795e26;fill-opacity:1;fill-rule:nonzero;stroke:none"
             transform="scale(1,-1)"><tspan
               id="tspan38"
               y="0"
               x="0 7.1999998 14.4 21.6 28.799999 36 43.200001 50.400002">evaluate</tspan></text></g><g
           transform="translate(52.0193,447.0193)"
           id="g42"><text
             id="text46"
             style="font-variant:normal;font-weight:normal;font-size:12px;font-family:'PT Mono';-inkscape-font-specification:PTMono-Regular;writing-mode:lr-tb;fill:#000000;fill-opacity:1;fill-rule:nonzero;stroke:none"
             transform="matrix(1,0,0,-1,57.6,0)"><tspan
               id="tspan44"
               y="0"
               x="0 7.1999998">()</tspan></text></g></g></g><g
       id="g48"><g
         clip-path="url(#clipPath54)"
         id="g50"><g
           transform="matrix(1,0,0,-1,95.84781,253.2165)"
           id="g56"><path
             id="path58"
             style="fill:none;stroke:#000000;stroke-width:1.1;stroke-linecap:butt;stroke-linejoin:miter;stroke-miterlimit:4;stroke-dasharray:none;stroke-opacity:1"
             d="m 4.67817,0 h 78.78502 c 1.3728,0 2.19649,0 2.74561,0.2292511 0.79161,0.2881214 1.41518,0.9117009 1.70331,1.7033079 0.22925,0.549122 0.22925,1.372805 0.22925,2.745611 v 13.09532 c 0,1.3728 0,2.19649 -0.22925,2.74561 -0.28813,0.79161 -0.9117,1.41519 -1.70331,1.70331 -0.54912,0.22925 -1.37281,0.22925 -2.74561,0.22925 H 4.67817 c -1.372806,0 -2.196489,0 -2.745611,-0.22925 C 1.140952,21.93429 0.5173725,21.31071 0.2292511,20.5191 0,19.96998 0,19.14629 0,17.77349 V 4.67817 C 0,3.305364 0,2.481681 0.2292511,1.932559 0.5173725,1.140952 1.140952,0.5173725 1.932559,0.2292511 2.481681,0 3.305364,0 4.67817,0 Z" /></g></g></g><g
       id="g60"><g
         clip-path="url(#clipPath66)"
         id="g62"><path
           id="path68"
           style="fill:#ffffff;fill-opacity:1;fill-rule:nonzero;stroke:none"
           d="m 103.9245,249.2168 h 72 v -14 h -72 z" /><g
           transform="translate(103.9245,238.0368)"
           id="g70"><text
             id="text74"
             style="font-variant:normal;font-weight:normal;font-size:12px;font-family:'PT Mono';-inkscape-font-specification:PTMono-Regular;writing-mode:lr-tb;fill:#795e26;fill-opacity:1;fill-rule:nonzero;stroke:none"
             transform="scale(1,-1)"><tspan
               id="tspan72"
               y="0"
               x="0 7.1999998 14.4 21.6 28.799999 36 43.200001 50.400002">generate</tspan></text></g><g
           transform="translate(103.9245,238.0368)"
           id="g76"><text
             id="text80"
             style="font-variant:normal;font-weight:normal;font-size:12px;font-family:'PT Mono';-inkscape-font-specification:PTMono-Regular;writing-mode:lr-tb;fill:#000000;fill-opacity:1;fill-rule:nonzero;stroke:none"
             transform="matrix(1,0,0,-1,57.6,0)"><tspan
               id="tspan78"
               y="0"
               x="0 7.1999998">()</tspan></text></g></g></g><g
       id="g82"><g
         clip-path="url(#clipPath88)"
         id="g84"><g
           transform="matrix(1,0,0,-1,95.84781,331.2258)"
           id="g90"><path
             id="path92"
             style="fill:none;stroke:#000000;stroke-width:1.1;stroke-linecap:butt;stroke-linejoin:miter;stroke-miterlimit:4;stroke-dasharray:none;stroke-opacity:1"
             d="m 4.67817,0 h 78.78502 c 1.3728,0 2.19649,0 2.74561,0.2292511 0.79161,0.2881214 1.41518,0.9117009 1.70331,1.7033079 0.22925,0.549122 0.22925,1.372805 0.22925,2.745611 v 13.09532 c 0,1.3728 0,2.19649 -0.22925,2.74561 -0.28813,0.79161 -0.9117,1.41519 -1.70331,1.70331 -0.54912,0.22925 -1.37281,0.22925 -2.74561,0.22925 H 4.67817 c -1.372806,0 -2.196489,0 -2.745611,-0.22925 C 1.140952,21.93429 0.5173725,21.31071 0.2292511,20.5191 0,19.96998 0,19.14629 0,17.77349 V 4.67817 C 0,3.305364 0,2.481681 0.2292511,1.932559 0.5173725,1.140952 1.140952,0.5173725 1.932559,0.2292511 2.481681,0 3.305364,0 4.67817,0 Z" /></g></g></g><g
       id="g94"><g
         clip-path="url(#clipPath100)"
         id="g96"><path
           id="path102"
           style="fill:#ffffff;fill-opacity:1;fill-rule:nonzero;stroke:none"
           d="m 121.9245,327.2262 h 36 v -14 h -36 z" /><g
           transform="translate(121.9245,316.0462)"
           id="g104"><text
             id="text108"
             style="font-variant:normal;font-weight:normal;font-size:12px;font-family:'PT Mono';-inkscape-font-specification:PTMono-Regular;writing-mode:lr-tb;fill:#795e26;fill-opacity:1;fill-rule:nonzero;stroke:none"
             transform="scale(1,-1)"><tspan
               id="tspan106"
               y="0"
               x="0 7.1999998 14.4">run</tspan></text></g><g
           transform="translate(121.9245,316.0462)"
           id="g110"><text
             id="text114"
             style="font-variant:normal;font-weight:normal;font-size:12px;font-family:'PT Mono';-inkscape-font-specification:PTMono-Regular;writing-mode:lr-tb;fill:#000000;fill-opacity:1;fill-rule:nonzero;stroke:none"
             transform="matrix(1,0,0,-1,21.6,0)"><tspan
               id="tspan112"
               y="0"
               x="0 7.1999998">()</tspan></text></g></g></g><g
       id="g116"><g
         clip-path="url(#clipPath122)"
         id="g118"><g
           transform="matrix(1,0,0,-1,95.84781,434.511)"
           id="g124"><path
             id="path126"
             style="fill:none;stroke:#000000;stroke-width:1.1;stroke-linecap:butt;stroke-linejoin:miter;stroke-miterlimit:4;stroke-dasharray:none;stroke-opacity:1"
             d="m 4.67817,0 h 78.78502 c 1.3728,0 2.19649,0 2.74561,0.2292511 0.79161,0.2881214 1.41518,0.9117009 1.70331,1.7033079 0.22925,0.549122 0.22925,1.372805 0.22925,2.745611 v 13.09532 c 0,1.3728 0,2.19649 -0.22925,2.74561 -0.28813,0.79161 -0.9117,1.41519 -1.70331,1.70331 -0.54912,0.22925 -1.37281,0.22925 -2.74561,0.22925 H 4.67817 c -1.372806,0 -2.196489,0 -2.745611,-0.22925 C 1.140952,21.93429 0.5173725,21.31071 0.2292511,20.5191 0,19.96998 0,19.14629 0,17.77349 V 4.67817 C 0,3.305364 0,2.481681 0.2292511,1.932559 0.5173725,1.140952 1.140952,0.5173725 1.932559,0.2292511 2.481681,0 3.305364,0 4.67817,0 Z" /></g></g></g><g
       id="g128"><g
         clip-path="url(#clipPath134)"
         id="g130"><path
           id="path136"
           style="fill:#ffffff;fill-opacity:1;fill-rule:nonzero;stroke:none"
           d="m 114.7245,430.5113 h 50.4 v -14 h -50.4 z" /><g
           transform="translate(114.7245,419.3313)"
           id="g138"><text
             id="text142"
             style="font-variant:normal;font-weight:normal;font-size:12px;font-family:'PT Mono';-inkscape-font-specification:PTMono-Regular;writing-mode:lr-tb;fill:#795e26;fill-opacity:1;fill-rule:nonzero;stroke:none"
             transform="scale(1,-1)"><tspan
               id="tspan140"
               y="0"
               x="0 7.1999998 14.4 21.6 28.799999">parse</tspan></text></g><g
           transform="translate(114.7245,419.3313)"
           id="g144"><text
             id="text148"
             style="font-variant:normal;font-weight:normal;font-size:12px;font-family:'PT Mono';-inkscape-font-specification:PTMono-Regular;writing-mode:lr-tb;fill:#000000;fill-opacity:1;fill-rule:nonzero;stroke:none"
             transform="matrix(1,0,0,-1,36,0)"><tspan
               id="tspan146"
               y="0"
               x="0 7.1999998">()</tspan></text></g></g></g><g
       id="g150"><g
         clip-path="url(#clipPath156)"
         id="g152"><path
           id="path158"
           style="fill:#ffffff;fill-opacity:1;fill-rule:nonzero;stroke:none"
           d="m 152.3421,458.0819 h 115.2 v -14 h -115.2 z" /><g
           transform="translate(152.3421,446.9019)"
           id="g160"><text
             id="text164"
             style="font-variant:normal;font-weight:normal;font-size:12px;font-family:'PT Mono';-inkscape-font-specification:PTMono-Regular;writing-mode:lr-tb;fill:#000000;fill-opacity:1;fill-rule:nonzero;stroke:none"
             transform="scale(1,-1)"><tspan
               id="tspan162"
               y="0"
               x="0">(</tspan></text></g><g
           transform="translate(152.3421,446.9019)"
           id="g166"><text
             id="text170"
             style="font-variant:normal;font-weight:normal;font-size:12px;font-family:'PT Mono';-inkscape-font-specification:PTMono-Regular;writing-mode:lr-tb;fill:#001080;fill-opacity:1;fill-rule:nonzero;stroke:none"
             transform="matrix(1,0,0,-1,7.2,0)"><tspan
               id="tspan168"
               y="0"
               x="0">y</tspan></text></g><g
           transform="translate(152.3421,446.9019)"
           id="g172" /><g
           transform="translate(152.3421,446.9019)"
           id="g174"><text
             id="text178"
             style="font-variant:normal;font-weight:normal;font-size:12px;font-family:'PT Mono';-inkscape-font-specification:PTMono-Regular;writing-mode:lr-tb;fill:#0000ff;fill-opacity:1;fill-rule:nonzero;stroke:none"
             transform="matrix(1,0,0,-1,21.6,0)"><tspan
               id="tspan176"
               y="0"
               x="0 7.1999998">=&gt;</tspan></text></g><g
           transform="translate(152.3421,446.9019)"
           id="g180" /><g
           transform="translate(152.3421,446.9019)"
           id="g182"><text
             id="text186"
             style="font-variant:normal;font-weight:normal;font-size:12px;font-family:'PT Mono';-inkscape-font-specification:PTMono-Regular;writing-mode:lr-tb;fill:#001080;fill-opacity:1;fill-rule:nonzero;stroke:none"
             transform="matrix(1,0,0,-1,43.2,0)"><tspan
               id="tspan184"
               y="0"
               x="0">y</tspan></text></g><g
           transform="translate(152.3421,446.9019)"
           id="g188"><text
             id="text192"
             style="font-variant:normal;font-weight:normal;font-size:12px;font-family:'PT Mono';-inkscape-font-specification:PTMono-Regular;writing-mode:lr-tb;fill:#000000;fill-opacity:1;fill-rule:nonzero;stroke:none"
             transform="matrix(1,0,0,-1,50.4,0)"><tspan
               id="tspan190"
               y="0"
               x="0 7.1999998">)(</tspan></text></g><g
           transform="translate(152.3421,446.9019)"
           id="g194"><text
             id="text198"
             style="font-variant:normal;font-weight:normal;font-size:12px;font-family:'PT Mono';-inkscape-font-specification:PTMono-Regular;writing-mode:lr-tb;fill:#001080;fill-opacity:1;fill-rule:nonzero;stroke:none"
             transform="matrix(1,0,0,-1,64.8,0)"><tspan
               id="tspan196"
               y="0"
               x="0">x</tspan></text></g><g
           transform="translate(152.3421,446.9019)"
           id="g200" /><g
           transform="translate(152.3421,446.9019)"
           id="g202"><text
             id="text206"
             style="font-variant:normal;font-weight:normal;font-size:12px;font-family:'PT Mono';-inkscape-font-specification:PTMono-Regular;writing-mode:lr-tb;fill:#0000ff;fill-opacity:1;fill-rule:nonzero;stroke:none"
             transform="matrix(1,0,0,-1,79.2,0)"><tspan
               id="tspan204"
               y="0"
               x="0 7.1999998">=&gt;</tspan></text></g><g
           transform="translate(152.3421,446.9019)"
           id="g208" /><g
           transform="translate(152.3421,446.9019)"
           id="g210"><text
             id="text214"
             style="font-variant:normal;font-weight:normal;font-size:12px;font-family:'PT Mono';-inkscape-font-specification:PTMono-Regular;writing-mode:lr-tb;fill:#001080;fill-opacity:1;fill-rule:nonzero;stroke:none"
             transform="matrix(1,0,0,-1,100.8,0)"><tspan
               id="tspan212"
               y="0"
               x="0">x</tspan></text></g><g
           transform="translate(152.3421,446.9019)"
           id="g216"><text
             id="text220"
             style="font-variant:normal;font-weight:normal;font-size:12px;font-family:'PT Mono';-inkscape-font-specification:PTMono-Regular;writing-mode:lr-tb;fill:#000000;fill-opacity:1;fill-rule:nonzero;stroke:none"
             transform="matrix(1,0,0,-1,108,0)"><tspan
               id="tspan218"
               y="0"
               x="0">)</tspan></text></g></g></g><g
       id="g222"><g
         clip-path="url(#clipPath228)"
         id="g224"><g
           transform="matrix(1,0,0,-1,153.5381,357.8578)"
           id="g230"><path
             id="path232"
             style="fill:none;stroke:#000000;stroke-width:1;stroke-linecap:butt;stroke-linejoin:miter;stroke-miterlimit:4;stroke-dasharray:none;stroke-opacity:1"
             d="m 18.91501,3.165267 c 4.32707,4.220355 4.32707,11.062903 0,15.283263 -4.32707,4.22035 -11.342636,4.22035 -15.669707,0 -4.327071,-4.22036 -4.327071,-11.062908 0,-15.283263 4.327071,-4.220356 11.342637,-4.220356 15.669707,0 z" /></g></g></g><g
       id="g234"><g
         clip-path="url(#clipPath240)"
         id="g236"><path
           id="path242"
           style="fill:#ffffff;fill-opacity:1;fill-rule:nonzero;stroke:none"
           d="m 161.0162,353.7751 h 7.2 v -14 h -7.2 z" /><g
           transform="translate(161.0162,342.5951)"
           id="g244"><text
             id="text248"
             style="font-variant:normal;font-weight:normal;font-size:12px;font-family:'PT Mono';-inkscape-font-specification:PTMono-Regular;writing-mode:lr-tb;fill:#001080;fill-opacity:1;fill-rule:nonzero;stroke:none"
             transform="scale(1,-1)"><tspan
               id="tspan246"
               y="0"
               x="0">y</tspan></text></g></g></g><g
       id="g250"><g
         clip-path="url(#clipPath256)"
         id="g252"><g
           transform="matrix(1,0,0,-1,187.4716,357.8578)"
           id="g258"><path
             id="path260"
             style="fill:none;stroke:#000000;stroke-width:1;stroke-linecap:butt;stroke-linejoin:miter;stroke-miterlimit:4;stroke-dasharray:none;stroke-opacity:1"
             d="m 18.91501,3.165267 c 4.32707,4.220355 4.32707,11.062903 0,15.283263 -4.32707,4.22035 -11.342636,4.22035 -15.669707,0 -4.327071,-4.22036 -4.327071,-11.062908 0,-15.283263 4.327071,-4.220356 11.342637,-4.220356 15.669707,0 z" /></g></g></g><g
       id="g262"><g
         clip-path="url(#clipPath268)"
         id="g264"><path
           id="path270"
           style="fill:#ffffff;fill-opacity:1;fill-rule:nonzero;stroke:none"
           d="m 194.9497,353.7751 h 7.2 v -14 h -7.2 z" /><g
           transform="translate(194.9497,342.5951)"
           id="g272"><text
             id="text276"
             style="font-variant:normal;font-weight:normal;font-size:12px;font-family:'PT Mono';-inkscape-font-specification:PTMono-Regular;writing-mode:lr-tb;fill:#001080;fill-opacity:1;fill-rule:nonzero;stroke:none"
             transform="scale(1,-1)"><tspan
               id="tspan274"
               y="0"
               x="0">y</tspan></text></g></g></g><g
       id="g278"><g
         clip-path="url(#clipPath284)"
         id="g280"><g
           transform="matrix(1,0,0,-1,167.3692,388.811)"
           id="g286"><path
             id="path288"
             style="fill:none;stroke:#000000;stroke-width:1;stroke-linecap:butt;stroke-linejoin:miter;stroke-miterlimit:4;stroke-dasharray:none;stroke-opacity:1"
             d="m 24.26786,4.061019 c 5.5516,5.414693 5.5516,14.193641 0,19.608341 -5.55161,5.41469 -14.552547,5.41469 -20.104154,0 -5.551608,-5.4147 -5.551608,-14.193648 0,-19.608341 5.551607,-5.414692 14.552544,-5.414692 20.104154,0 z" /></g></g></g><g
       id="g290"><g
         clip-path="url(#clipPath296)"
         id="g292"><path
           id="path298"
           style="fill:#ffffff;fill-opacity:1;fill-rule:nonzero;stroke:none"
           d="m 174.3756,382.0095 h 14.4 v -14 h -14.4 z" /><g
           transform="translate(174.3756,370.8295)"
           id="g300"><text
             id="text304"
             style="font-variant:normal;font-weight:normal;font-size:12px;font-family:'PT Mono';-inkscape-font-specification:PTMono-Regular;writing-mode:lr-tb;fill:#0000ff;fill-opacity:1;fill-rule:nonzero;stroke:none"
             transform="scale(1,-1)"><tspan
               id="tspan302"
               y="0"
               x="0 7.1999998">=&gt;</tspan></text></g></g></g><g
       id="g306"><g
         clip-path="url(#clipPath312)"
         id="g308"><g
           transform="matrix(1,0,0,-1,170.5289,362.5874)"
           id="g314"><path
             id="path316"
             style="fill:none;stroke:#000000;stroke-width:1;stroke-linecap:butt;stroke-linejoin:miter;stroke-miterlimit:4;stroke-dasharray:none;stroke-opacity:1"
             d="M 0,5.818835 3.539248,0" /></g></g></g><g
       id="g318"><g
         clip-path="url(#clipPath324)"
         id="g320"><g
           transform="matrix(1,0,0,-1,189.1034,362.5849)"
           id="g326"><path
             id="path328"
             style="fill:none;stroke:#000000;stroke-width:1;stroke-linecap:butt;stroke-linejoin:miter;stroke-miterlimit:4;stroke-dasharray:none;stroke-opacity:1"
             d="M 3.538485,5.817578 0,0" /></g></g></g><g
       id="g330"><g
         clip-path="url(#clipPath336)"
         id="g332"><g
           transform="matrix(1,0,0,-1,220.3681,357.8578)"
           id="g338"><path
             id="path340"
             style="fill:none;stroke:#000000;stroke-width:1;stroke-linecap:butt;stroke-linejoin:miter;stroke-miterlimit:4;stroke-dasharray:none;stroke-opacity:1"
             d="m 18.91501,3.165267 c 4.32707,4.220355 4.32707,11.062903 0,15.283263 -4.32707,4.22035 -11.342636,4.22035 -15.669707,0 -4.327071,-4.22036 -4.327071,-11.062908 0,-15.283263 4.327071,-4.220356 11.342637,-4.220356 15.669707,0 z" /></g></g></g><g
       id="g342"><g
         clip-path="url(#clipPath348)"
         id="g344"><path
           id="path350"
           style="fill:#ffffff;fill-opacity:1;fill-rule:nonzero;stroke:none"
           d="m 227.8462,353.7751 h 7.2 v -14 h -7.2 z" /><g
           transform="translate(227.8462,342.5951)"
           id="g352"><text
             id="text356"
             style="font-variant:normal;font-weight:normal;font-size:12px;font-family:'PT Mono';-inkscape-font-specification:PTMono-Regular;writing-mode:lr-tb;fill:#001080;fill-opacity:1;fill-rule:nonzero;stroke:none"
             transform="scale(1,-1)"><tspan
               id="tspan354"
               y="0"
               x="0">x</tspan></text></g></g></g><g
       id="g358"><g
         clip-path="url(#clipPath364)"
         id="g360"><g
           transform="matrix(1,0,0,-1,254.3016,357.8578)"
           id="g366"><path
             id="path368"
             style="fill:none;stroke:#000000;stroke-width:1;stroke-linecap:butt;stroke-linejoin:miter;stroke-miterlimit:4;stroke-dasharray:none;stroke-opacity:1"
             d="m 18.91501,3.165267 c 4.32707,4.220355 4.32707,11.062903 0,15.283263 -4.32707,4.22035 -11.342636,4.22035 -15.669707,0 -4.327071,-4.22036 -4.327071,-11.062908 0,-15.283263 4.327071,-4.220356 11.342637,-4.220356 15.669707,0 z" /></g></g></g><g
       id="g370"><g
         clip-path="url(#clipPath376)"
         id="g372"><path
           id="path378"
           style="fill:#ffffff;fill-opacity:1;fill-rule:nonzero;stroke:none"
           d="m 261.7798,353.7751 h 7.2 v -14 h -7.2 z" /><g
           transform="translate(261.7798,342.5951)"
           id="g380"><text
             id="text384"
             style="font-variant:normal;font-weight:normal;font-size:12px;font-family:'PT Mono';-inkscape-font-specification:PTMono-Regular;writing-mode:lr-tb;fill:#001080;fill-opacity:1;fill-rule:nonzero;stroke:none"
             transform="scale(1,-1)"><tspan
               id="tspan382"
               y="0"
               x="0">x</tspan></text></g></g></g><g
       id="g386"><g
         clip-path="url(#clipPath392)"
         id="g388"><g
           transform="matrix(1,0,0,-1,234.1992,388.811)"
           id="g394"><path
             id="path396"
             style="fill:none;stroke:#000000;stroke-width:1;stroke-linecap:butt;stroke-linejoin:miter;stroke-miterlimit:4;stroke-dasharray:none;stroke-opacity:1"
             d="m 24.26786,4.061019 c 5.5516,5.414693 5.5516,14.193641 0,19.608341 -5.55161,5.41469 -14.552547,5.41469 -20.104154,0 -5.551608,-5.4147 -5.551608,-14.193648 0,-19.608341 5.551607,-5.414692 14.552544,-5.414692 20.104154,0 z" /></g></g></g><g
       id="g398"><g
         clip-path="url(#clipPath404)"
         id="g400"><path
           id="path406"
           style="fill:#ffffff;fill-opacity:1;fill-rule:nonzero;stroke:none"
           d="m 241.2056,382.0095 h 14.4 v -14 h -14.4 z" /><g
           transform="translate(241.2056,370.8295)"
           id="g408"><text
             id="text412"
             style="font-variant:normal;font-weight:normal;font-size:12px;font-family:'PT Mono';-inkscape-font-specification:PTMono-Regular;writing-mode:lr-tb;fill:#0000ff;fill-opacity:1;fill-rule:nonzero;stroke:none"
             transform="scale(1,-1)"><tspan
               id="tspan410"
               y="0"
               x="0 7.1999998">=&gt;</tspan></text></g></g></g><g
       id="g414"><g
         clip-path="url(#clipPath420)"
         id="g416"><g
           transform="matrix(1,0,0,-1,237.3589,362.5874)"
           id="g422"><path
             id="path424"
             style="fill:none;stroke:#000000;stroke-width:1;stroke-linecap:butt;stroke-linejoin:miter;stroke-miterlimit:4;stroke-dasharray:none;stroke-opacity:1"
             d="M 0,5.818835 3.539248,0" /></g></g></g><g
       id="g426"><g
         clip-path="url(#clipPath432)"
         id="g428"><g
           transform="matrix(1,0,0,-1,255.9334,362.5849)"
           id="g434"><path
             id="path436"
             style="fill:none;stroke:#000000;stroke-width:1;stroke-linecap:butt;stroke-linejoin:miter;stroke-miterlimit:4;stroke-dasharray:none;stroke-opacity:1"
             d="M 3.538491,5.817583 0,0" /></g></g></g><g
       id="g438"><g
         clip-path="url(#clipPath444)"
         id="g440"><g
           transform="matrix(1,0,0,-1,196.4522,432.38)"
           id="g446"><path
             id="path448"
             style="fill:none;stroke:#000000;stroke-width:1;stroke-linecap:butt;stroke-linejoin:miter;stroke-miterlimit:4;stroke-dasharray:none;stroke-opacity:1"
             d="m 31.66313,5.298555 c 7.24338,7.064745 7.24338,18.518945 0,25.583685 -7.24338,7.06475 -18.98722,7.06475 -26.230596,0 -7.243379,-7.06474 -7.243379,-18.51894 0,-25.583685 7.243376,-7.06474 18.987216,-7.06474 26.230596,0 z" /></g></g></g><g
       id="g450"><g
         clip-path="url(#clipPath456)"
         id="g452"><path
           id="path458"
           style="fill:#ffffff;fill-opacity:1;fill-rule:nonzero;stroke:none"
           d="m 200.599,421.5955 h 28.8 v -14 h -28.8 z" /><g
           transform="translate(200.599,410.4155)"
           id="g460"><text
             id="text464"
             style="font-variant:normal;font-weight:normal;font-size:12px;font-family:'PT Mono';-inkscape-font-specification:PTMono-Regular;writing-mode:lr-tb;fill:#000000;fill-opacity:1;fill-rule:nonzero;stroke:none"
             transform="scale(1,-1)"><tspan
               id="tspan462"
               y="0"
               x="0 7.1999998 14.4 21.6">call</tspan></text></g></g></g><g
       id="g466"><g
         clip-path="url(#clipPath472)"
         id="g468"><g
           transform="matrix(1,0,0,-1,190.9887,399.9751)"
           id="g474"><path
             id="path476"
             style="fill:none;stroke:#000000;stroke-width:1;stroke-linecap:butt;stroke-linejoin:miter;stroke-miterlimit:4;stroke-dasharray:none;stroke-opacity:1"
             d="M 0,13.95713 11.85389,0" /></g></g></g><g
       id="g478"><g
         clip-path="url(#clipPath484)"
         id="g480"><g
           transform="matrix(1,0,0,-1,227.1566,399.976)"
           id="g486"><path
             id="path488"
             style="fill:none;stroke:#000000;stroke-width:1;stroke-linecap:butt;stroke-linejoin:miter;stroke-miterlimit:4;stroke-dasharray:none;stroke-opacity:1"
             d="M 11.85708,13.9609 0,0" /></g></g></g><g
       id="g490"><g
         clip-path="url(#clipPath496)"
         id="g492"><g
           transform="matrix(1,0,0,-1,186.9531,280.0697)"
           id="g498"><path
             id="path500"
             style="fill:none;stroke:#000000;stroke-width:1;stroke-linecap:butt;stroke-linejoin:miter;stroke-miterlimit:4;stroke-dasharray:none;stroke-opacity:1"
             d="m 18.91501,3.165267 c 4.32707,4.220355 4.32707,11.062903 0,15.283263 -4.32707,4.22035 -11.342636,4.22035 -15.669707,0 -4.327071,-4.22036 -4.327071,-11.062908 0,-15.283263 4.327071,-4.220356 11.342637,-4.220356 15.669707,0 z" /></g></g></g><g
       id="g502"><g
         clip-path="url(#clipPath508)"
         id="g504"><path
           id="path510"
           style="fill:#ffffff;fill-opacity:1;fill-rule:nonzero;stroke:none"
           d="m 194.4312,275.987 h 7.2 v -14 h -7.2 z" /><g
           transform="translate(194.4312,264.807)"
           id="g512"><text
             id="text516"
             style="font-variant:normal;font-weight:normal;font-size:12px;font-family:'PT Mono';-inkscape-font-specification:PTMono-Regular;writing-mode:lr-tb;fill:#001080;fill-opacity:1;fill-rule:nonzero;stroke:none"
             transform="scale(1,-1)"><tspan
               id="tspan514"
               y="0"
               x="0">x</tspan></text></g></g></g><g
       id="g518"><g
         clip-path="url(#clipPath524)"
         id="g520"><g
           transform="matrix(1,0,0,-1,220.8866,280.0697)"
           id="g526"><path
             id="path528"
             style="fill:none;stroke:#000000;stroke-width:1;stroke-linecap:butt;stroke-linejoin:miter;stroke-miterlimit:4;stroke-dasharray:none;stroke-opacity:1"
             d="m 18.91501,3.165267 c 4.32707,4.220355 4.32707,11.062903 0,15.283263 -4.32707,4.22035 -11.342636,4.22035 -15.669707,0 -4.327071,-4.22036 -4.327071,-11.062908 0,-15.283263 4.327071,-4.220356 11.342637,-4.220356 15.669707,0 z" /></g></g></g><g
       id="g530"><g
         clip-path="url(#clipPath536)"
         id="g532"><path
           id="path538"
           style="fill:#ffffff;fill-opacity:1;fill-rule:nonzero;stroke:none"
           d="m 228.3647,275.987 h 7.2 v -14 h -7.2 z" /><g
           transform="translate(228.3647,264.807)"
           id="g540"><text
             id="text544"
             style="font-variant:normal;font-weight:normal;font-size:12px;font-family:'PT Mono';-inkscape-font-specification:PTMono-Regular;writing-mode:lr-tb;fill:#001080;fill-opacity:1;fill-rule:nonzero;stroke:none"
             transform="scale(1,-1)"><tspan
               id="tspan542"
               y="0"
               x="0">x</tspan></text></g></g></g><g
       id="g546"><g
         clip-path="url(#clipPath552)"
         id="g548"><g
           transform="matrix(1,0,0,-1,200.7842,311.0229)"
           id="g554"><path
             id="path556"
             style="fill:none;stroke:#000000;stroke-width:1;stroke-linecap:butt;stroke-linejoin:miter;stroke-miterlimit:4;stroke-dasharray:none;stroke-opacity:1"
             d="m 24.26786,4.061019 c 5.5516,5.414693 5.5516,14.193641 0,19.608341 -5.55161,5.41469 -14.552547,5.41469 -20.104154,0 -5.551608,-5.4147 -5.551608,-14.193648 0,-19.608341 5.551607,-5.414692 14.552544,-5.414692 20.104154,0 z" /></g></g></g><g
       id="g558"><g
         clip-path="url(#clipPath564)"
         id="g560"><path
           id="path566"
           style="fill:#ffffff;fill-opacity:1;fill-rule:nonzero;stroke:none"
           d="m 207.7906,304.2214 h 14.4 v -14 h -14.4 z" /><g
           transform="translate(207.7906,293.0414)"
           id="g568"><text
             id="text572"
             style="font-variant:normal;font-weight:normal;font-size:12px;font-family:'PT Mono';-inkscape-font-specification:PTMono-Regular;writing-mode:lr-tb;fill:#0000ff;fill-opacity:1;fill-rule:nonzero;stroke:none"
             transform="scale(1,-1)"><tspan
               id="tspan570"
               y="0"
               x="0 7.1999998">=&gt;</tspan></text></g></g></g><g
       id="g574"><g
         clip-path="url(#clipPath580)"
         id="g576"><g
           transform="matrix(1,0,0,-1,203.9439,284.7993)"
           id="g582"><path
             id="path584"
             style="fill:none;stroke:#000000;stroke-width:1;stroke-linecap:butt;stroke-linejoin:miter;stroke-miterlimit:4;stroke-dasharray:none;stroke-opacity:1"
             d="M 0,5.818835 3.539248,0" /></g></g></g><g
       id="g586"><g
         clip-path="url(#clipPath592)"
         id="g588"><g
           transform="matrix(1,0,0,-1,222.5184,284.7968)"
           id="g594"><path
             id="path596"
             style="fill:none;stroke:#000000;stroke-width:1;stroke-linecap:butt;stroke-linejoin:miter;stroke-miterlimit:4;stroke-dasharray:none;stroke-opacity:1"
             d="M 3.538491,5.817583 0,0" /></g></g></g><g
       id="g598"><g
         clip-path="url(#clipPath604)"
         id="g600"><path
           id="path606"
           style="fill:#ffffff;fill-opacity:1;fill-rule:nonzero;stroke:none"
           d="m 181.1421,221.9078 h 57.6 v -14 h -57.6 z" /><g
           transform="translate(181.1421,210.7278)"
           id="g608"><text
             id="text612"
             style="font-variant:normal;font-weight:normal;font-size:12px;font-family:'PT Mono';-inkscape-font-specification:PTMono-Regular;writing-mode:lr-tb;fill:#000000;fill-opacity:1;fill-rule:nonzero;stroke:none"
             transform="scale(1,-1)"><tspan
               id="tspan610"
               y="0"
               x="0">(</tspan></text></g><g
           transform="translate(181.1421,210.7278)"
           id="g614"><text
             id="text618"
             style="font-variant:normal;font-weight:normal;font-size:12px;font-family:'PT Mono';-inkscape-font-specification:PTMono-Regular;writing-mode:lr-tb;fill:#001080;fill-opacity:1;fill-rule:nonzero;stroke:none"
             transform="matrix(1,0,0,-1,7.2,0)"><tspan
               id="tspan616"
               y="0"
               x="0">x</tspan></text></g><g
           transform="translate(181.1421,210.7278)"
           id="g620" /><g
           transform="translate(181.1421,210.7278)"
           id="g622"><text
             id="text626"
             style="font-variant:normal;font-weight:normal;font-size:12px;font-family:'PT Mono';-inkscape-font-specification:PTMono-Regular;writing-mode:lr-tb;fill:#0000ff;fill-opacity:1;fill-rule:nonzero;stroke:none"
             transform="matrix(1,0,0,-1,21.6,0)"><tspan
               id="tspan624"
               y="0"
               x="0 7.1999998">=&gt;</tspan></text></g><g
           transform="translate(181.1421,210.7278)"
           id="g628" /><g
           transform="translate(181.1421,210.7278)"
           id="g630"><text
             id="text634"
             style="font-variant:normal;font-weight:normal;font-size:12px;font-family:'PT Mono';-inkscape-font-specification:PTMono-Regular;writing-mode:lr-tb;fill:#001080;fill-opacity:1;fill-rule:nonzero;stroke:none"
             transform="matrix(1,0,0,-1,43.2,0)"><tspan
               id="tspan632"
               y="0"
               x="0">x</tspan></text></g><g
           transform="translate(181.1421,210.7278)"
           id="g636"><text
             id="text640"
             style="font-variant:normal;font-weight:normal;font-size:12px;font-family:'PT Mono';-inkscape-font-specification:PTMono-Regular;writing-mode:lr-tb;fill:#000000;fill-opacity:1;fill-rule:nonzero;stroke:none"
             transform="matrix(1,0,0,-1,50.4,0)"><tspan
               id="tspan638"
               y="0"
               x="0">)</tspan></text></g><g
           transform="matrix(1,0,0,-1,140.1088,477.2851)"
           id="g642"><path
             id="path644"
             style="fill:none;stroke:#000000;stroke-width:1;stroke-linecap:butt;stroke-linejoin:miter;stroke-miterlimit:4;stroke-dasharray:none;stroke-opacity:1"
             d="M 0.6860877,0 0.09736437,36.27485 0.08925059,36.77479" /></g><path
           id="path646"
           style="fill:#000000;fill-opacity:1;fill-rule:nonzero;stroke:none"
           d="m 137.2066,441.0589 2.9022,-6.0479 3.097,5.9505 z" /><g
           transform="matrix(1,0,0,-1,139.9185,411.5735)"
           id="g648"><path
             id="path650"
             style="fill:none;stroke:#000000;stroke-width:1;stroke-linecap:butt;stroke-linejoin:miter;stroke-miterlimit:4;stroke-dasharray:none;stroke-opacity:1"
             d="m 0,0 c 0,24.61589 0,49.23179 0,73.84768 v 0.5" /></g><path
           id="path652"
           style="fill:#000000;fill-opacity:1;fill-rule:nonzero;stroke:none"
           d="m 136.9185,337.7258 3,-6 3,6 z" /><g
           transform="matrix(1,0,0,-1,139.9185,308.2883)"
           id="g654"><path
             id="path656"
             style="fill:none;stroke:#000000;stroke-width:1;stroke-linecap:butt;stroke-linejoin:miter;stroke-miterlimit:4;stroke-dasharray:none;stroke-opacity:1"
             d="m 0,0 c 0,16.19061 0,32.38122 0,48.57183 v 0.5" /></g><path
           id="path658"
           style="fill:#000000;fill-opacity:1;fill-rule:nonzero;stroke:none"
           d="m 136.9185,259.7165 3,-6 3,6 z" /><g
           transform="matrix(1,0,0,-1,139.4087,230.279)"
           id="g660"><path
             id="path662"
             style="fill:none;stroke:#000000;stroke-width:1;stroke-linecap:butt;stroke-linejoin:miter;stroke-miterlimit:4;stroke-dasharray:none;stroke-opacity:1"
             d="M 0.4050499,0 0.05368125,39.27122 0.04920779,39.7712" /></g><path
           id="path664"
           style="fill:#000000;fill-opacity:1;fill-rule:nonzero;stroke:none"
           d="m 136.4625,191.0346 2.9462,-6.0266 3.0535,5.9729 z" /></g></g></g></svg>
