<svg xmlns="http://www.w3.org/2000/svg" height="389.714" width="319.362"><defs><clipPath id="1_svg__a" clipPathUnits="userSpaceOnUse"><path d="M0 0h430v640H0z"/></clipPath><clipPath id="1_svg__b" clipPathUnits="userSpaceOnUse"><path d="M46.208 203.725h238.42v260.474H46.208z"/></clipPath><clipPath id="1_svg__c" clipPathUnits="userSpaceOnUse"><path d="M0 0h430v640H0z"/></clipPath><clipPath id="1_svg__d" clipPathUnits="userSpaceOnUse"><path d="M94.07 230.765h91.71v22.451H94.069z"/></clipPath><clipPath id="1_svg__e" clipPathUnits="userSpaceOnUse"><path d="M0 0h430v640H0z"/></clipPath><clipPath id="1_svg__f" clipPathUnits="userSpaceOnUse"><path d="M94.07 308.774h91.71v22.452H94.069z"/></clipPath><clipPath id="1_svg__g" clipPathUnits="userSpaceOnUse"><path d="M0 0h430v640H0z"/></clipPath><clipPath id="1_svg__h" clipPathUnits="userSpaceOnUse"><path d="M94.07 412.06h91.71v22.451H94.069z"/></clipPath><clipPath id="1_svg__i" clipPathUnits="userSpaceOnUse"><path d="M0 0h430v640H0z"/></clipPath><clipPath id="1_svg__j" clipPathUnits="userSpaceOnUse"><path d="M152.038 334.744h25.16v24.614h-25.16z"/></clipPath><clipPath id="1_svg__k" clipPathUnits="userSpaceOnUse"><path d="M153.538 336.244h22.16v21.614h-22.16z"/></clipPath><clipPath id="1_svg__l" clipPathUnits="userSpaceOnUse"><path d="M185.972 334.744h25.16v24.614h-25.16z"/></clipPath><clipPath id="1_svg__m" clipPathUnits="userSpaceOnUse"><path d="M187.472 336.244h22.16v21.614h-22.16z"/></clipPath><clipPath id="1_svg__n" clipPathUnits="userSpaceOnUse"><path d="M165.87 359.58h31.43v30.731h-31.43z"/></clipPath><clipPath id="1_svg__o" clipPathUnits="userSpaceOnUse"><path d="M167.37 361.08h28.43v27.731h-28.43z"/></clipPath><clipPath id="1_svg__p" clipPathUnits="userSpaceOnUse"><path d="M169.102 355.509h6.393v8.338h-6.393z"/></clipPath><clipPath id="1_svg__q" clipPathUnits="userSpaceOnUse"><path d="M187.676 355.507h6.393v8.338h-6.393z"/></clipPath><clipPath id="1_svg__r" clipPathUnits="userSpaceOnUse"><path d="M218.868 334.744h25.16v24.614h-25.16z"/></clipPath><clipPath id="1_svg__s" clipPathUnits="userSpaceOnUse"><path d="M220.368 336.244h22.16v21.614h-22.16z"/></clipPath><clipPath id="1_svg__t" clipPathUnits="userSpaceOnUse"><path d="M252.802 334.744h25.16v24.614h-25.16z"/></clipPath><clipPath id="1_svg__u" clipPathUnits="userSpaceOnUse"><path d="M254.302 336.244h22.16v21.614h-22.16z"/></clipPath><clipPath id="1_svg__v" clipPathUnits="userSpaceOnUse"><path d="M232.7 359.58h31.43v30.731H232.7z"/></clipPath><clipPath id="1_svg__w" clipPathUnits="userSpaceOnUse"><path d="M234.2 361.08h28.43v27.731H234.2z"/></clipPath><clipPath id="1_svg__x" clipPathUnits="userSpaceOnUse"><path d="M235.932 355.509h6.393v8.338h-6.393z"/></clipPath><clipPath id="1_svg__y" clipPathUnits="userSpaceOnUse"><path d="M254.506 355.507h6.393v8.338h-6.393z"/></clipPath><clipPath id="1_svg__z" clipPathUnits="userSpaceOnUse"><path d="M194.952 394.7h40.096v39.18h-40.096z"/></clipPath><clipPath id="1_svg__A" clipPathUnits="userSpaceOnUse"><path d="M196.452 396.2h37.096v36.18h-37.096z"/></clipPath><clipPath id="1_svg__B" clipPathUnits="userSpaceOnUse"><path d="M189.608 384.694h14.616V401.3h-14.616z"/></clipPath><clipPath id="1_svg__C" clipPathUnits="userSpaceOnUse"><path d="M225.775 384.692h14.62V401.3h-14.62z"/></clipPath><clipPath id="1_svg__D" clipPathUnits="userSpaceOnUse"><path d="M185.453 256.956h25.16v24.614h-25.16z"/></clipPath><clipPath id="1_svg__E" clipPathUnits="userSpaceOnUse"><path d="M186.953 258.456h22.16v21.614h-22.16z"/></clipPath><clipPath id="1_svg__F" clipPathUnits="userSpaceOnUse"><path d="M219.387 256.956h25.16v24.614h-25.16z"/></clipPath><clipPath id="1_svg__G" clipPathUnits="userSpaceOnUse"><path d="M220.887 258.456h22.16v21.614h-22.16z"/></clipPath><clipPath id="1_svg__H" clipPathUnits="userSpaceOnUse"><path d="M199.284 281.793h31.432v30.73h-31.432z"/></clipPath><clipPath id="1_svg__I" clipPathUnits="userSpaceOnUse"><path d="M200.784 283.293h28.432v27.73h-28.432z"/></clipPath><clipPath id="1_svg__J" clipPathUnits="userSpaceOnUse"><path d="M202.517 277.72h6.393v8.34h-6.393z"/></clipPath><clipPath id="1_svg__K" clipPathUnits="userSpaceOnUse"><path d="M221.091 277.72h6.393v8.337h-6.393z"/></clipPath><clipPath id="1_svg__L" clipPathUnits="userSpaceOnUse"><path d="M0 0h430v640H0z"/></clipPath></defs><g clip-path="url(#1_svg__a)" transform="matrix(1.33333 0 0 -1.33333 -60.877 636.39)"><path d="M52.291 464.2h226.254c1.785 0 2.856 0 3.57-.299a3.705 3.705 0 002.215-2.215c.298-.714.298-1.785.298-3.57V209.808c0-1.785 0-2.856-.298-3.57a3.705 3.705 0 00-2.215-2.215c-.714-.298-1.785-.298-3.57-.298H52.291c-1.785 0-2.856 0-3.57.298a3.706 3.706 0 00-2.215 2.215c-.298.714-.298 1.785-.298 3.57v248.308c0 1.785 0 2.856.298 3.57a3.706 3.706 0 002.215 2.215c.714.298 1.785.298 3.57.298z" fill="none" stroke="#000" stroke-width="1.1"/></g><g clip-path="url(#1_svg__b)" transform="matrix(1.33333 0 0 -1.33333 -60.877 636.39)"><path d="M52.02 458.2h72v-14h-72z" fill="#fff"/><text style="-inkscape-font-specification:PTMono-Regular" transform="matrix(1 0 0 -1 52.02 447.02)" font-weight="400" font-size="12" font-family="PT Mono" fill="#795e26"><tspan y="0" x="0 7.1999998 14.4 21.6 28.799999 36 43.200001 50.400002">evaluate</tspan></text><text style="-inkscape-font-specification:PTMono-Regular" transform="matrix(1 0 0 -1 109.62 447.02)" font-weight="400" font-size="12" font-family="PT Mono"><tspan y="0" x="0 7.1999998">()</tspan></text></g><g clip-path="url(#1_svg__c)" transform="matrix(1.33333 0 0 -1.33333 -60.877 636.39)"><path d="M100.526 253.216h78.785c1.373 0 2.196 0 2.746-.229a2.85 2.85 0 001.703-1.703c.23-.55.23-1.373.23-2.746v-13.095c0-1.373 0-2.196-.23-2.746a2.85 2.85 0 00-1.703-1.703c-.55-.23-1.373-.23-2.746-.23h-78.785c-1.373 0-2.197 0-2.746.23a2.85 2.85 0 00-1.703 1.703c-.23.55-.23 1.373-.23 2.746v13.095c0 1.373 0 2.197.23 2.746a2.85 2.85 0 001.703 1.703c.55.23 1.373.23 2.746.23z" fill="none" stroke="#000" stroke-width="1.1"/></g><g clip-path="url(#1_svg__d)" transform="matrix(1.33333 0 0 -1.33333 -60.877 636.39)"><path d="M103.924 249.217h72v-14h-72z" fill="#fff"/><text style="-inkscape-font-specification:PTMono-Regular" transform="matrix(1 0 0 -1 103.924 238.037)" font-weight="400" font-size="12" font-family="PT Mono" fill="#795e26"><tspan y="0" x="0 7.1999998 14.4 21.6 28.799999 36 43.200001 50.400002">generate</tspan></text><text style="-inkscape-font-specification:PTMono-Regular" transform="matrix(1 0 0 -1 161.524 238.037)" font-weight="400" font-size="12" font-family="PT Mono"><tspan y="0" x="0 7.1999998">()</tspan></text></g><g clip-path="url(#1_svg__e)" transform="matrix(1.33333 0 0 -1.33333 -60.877 636.39)"><path d="M100.526 331.226h78.785c1.373 0 2.196 0 2.746-.23a2.85 2.85 0 001.703-1.703c.23-.549.23-1.373.23-2.745v-13.096c0-1.372 0-2.196-.23-2.745a2.85 2.85 0 00-1.703-1.704c-.55-.229-1.373-.229-2.746-.229h-78.785c-1.373 0-2.197 0-2.746.23a2.85 2.85 0 00-1.703 1.703c-.23.549-.23 1.373-.23 2.745v13.096c0 1.372 0 2.196.23 2.745a2.85 2.85 0 001.703 1.704c.55.229 1.373.229 2.746.229z" fill="none" stroke="#000" stroke-width="1.1"/></g><g clip-path="url(#1_svg__f)" transform="matrix(1.33333 0 0 -1.33333 -60.877 636.39)"><path d="M121.924 327.226h36v-14h-36z" fill="#fff"/><text style="-inkscape-font-specification:PTMono-Regular" transform="matrix(1 0 0 -1 121.924 316.046)" font-weight="400" font-size="12" font-family="PT Mono" fill="#795e26"><tspan y="0" x="0 7.1999998 14.4">run</tspan></text><text style="-inkscape-font-specification:PTMono-Regular" transform="matrix(1 0 0 -1 143.524 316.046)" font-weight="400" font-size="12" font-family="PT Mono"><tspan y="0" x="0 7.1999998">()</tspan></text></g><g clip-path="url(#1_svg__g)" transform="matrix(1.33333 0 0 -1.33333 -60.877 636.39)"><path d="M100.526 434.511h78.785c1.373 0 2.196 0 2.746-.23a2.85 2.85 0 001.703-1.703c.23-.549.23-1.372.23-2.745v-13.095c0-1.373 0-2.197-.23-2.746a2.85 2.85 0 00-1.703-1.703c-.55-.23-1.373-.23-2.746-.23h-78.785c-1.373 0-2.197 0-2.746.23a2.85 2.85 0 00-1.703 1.703c-.23.549-.23 1.373-.23 2.746v13.095c0 1.373 0 2.196.23 2.745a2.85 2.85 0 001.703 1.704c.55.229 1.373.229 2.746.229z" fill="none" stroke="#000" stroke-width="1.1"/></g><g clip-path="url(#1_svg__h)" transform="matrix(1.33333 0 0 -1.33333 -60.877 636.39)"><path d="M114.725 430.511h50.4v-14h-50.4z" fill="#fff"/><text style="-inkscape-font-specification:PTMono-Regular" transform="matrix(1 0 0 -1 114.725 419.331)" font-weight="400" font-size="12" font-family="PT Mono" fill="#795e26"><tspan y="0" x="0 7.1999998 14.4 21.6 28.799999">parse</tspan></text><text style="-inkscape-font-specification:PTMono-Regular" transform="matrix(1 0 0 -1 150.725 419.331)" font-weight="400" font-size="12" font-family="PT Mono"><tspan y="0" x="0 7.1999998">()</tspan></text></g><g clip-path="url(#1_svg__i)" transform="matrix(1.33333 0 0 -1.33333 -60.877 636.39)"><path d="M152.342 458.082h115.2v-14h-115.2z" fill="#fff"/><text style="-inkscape-font-specification:PTMono-Regular" transform="matrix(1 0 0 -1 152.342 446.902)" font-weight="400" font-size="12" font-family="PT Mono"><tspan y="0" x="0">(</tspan></text><text style="-inkscape-font-specification:PTMono-Regular" transform="matrix(1 0 0 -1 159.542 446.902)" font-weight="400" font-size="12" font-family="PT Mono" fill="#001080"><tspan y="0" x="0">y</tspan></text><text style="-inkscape-font-specification:PTMono-Regular" transform="matrix(1 0 0 -1 173.942 446.902)" font-weight="400" font-size="12" font-family="PT Mono" fill="#00f"><tspan y="0" x="0 7.1999998">=&gt;</tspan></text><text style="-inkscape-font-specification:PTMono-Regular" transform="matrix(1 0 0 -1 195.542 446.902)" font-weight="400" font-size="12" font-family="PT Mono" fill="#001080"><tspan y="0" x="0">y</tspan></text><text style="-inkscape-font-specification:PTMono-Regular" transform="matrix(1 0 0 -1 202.742 446.902)" font-weight="400" font-size="12" font-family="PT Mono"><tspan y="0" x="0 7.1999998">)(</tspan></text><text style="-inkscape-font-specification:PTMono-Regular" transform="matrix(1 0 0 -1 217.142 446.902)" font-weight="400" font-size="12" font-family="PT Mono" fill="#001080"><tspan y="0" x="0">x</tspan></text><text style="-inkscape-font-specification:PTMono-Regular" transform="matrix(1 0 0 -1 231.542 446.902)" font-weight="400" font-size="12" font-family="PT Mono" fill="#00f"><tspan y="0" x="0 7.1999998">=&gt;</tspan></text><text style="-inkscape-font-specification:PTMono-Regular" transform="matrix(1 0 0 -1 253.142 446.902)" font-weight="400" font-size="12" font-family="PT Mono" fill="#001080"><tspan y="0" x="0">x</tspan></text><text style="-inkscape-font-specification:PTMono-Regular" transform="matrix(1 0 0 -1 260.342 446.902)" font-weight="400" font-size="12" font-family="PT Mono"><tspan y="0" x="0">)</tspan></text></g><g clip-path="url(#1_svg__j)" transform="matrix(1.33333 0 0 -1.33333 -60.877 636.39)"><path d="M172.453 354.693a10.62 10.62 0 000-15.284c-4.327-4.22-11.343-4.22-15.67 0a10.62 10.62 0 000 15.284c4.327 4.22 11.343 4.22 15.67 0z" fill="none" stroke="#000"/></g><g clip-path="url(#1_svg__k)" transform="matrix(1.33333 0 0 -1.33333 -60.877 636.39)"><path d="M161.016 353.775h7.2v-14h-7.2z" fill="#fff"/><text style="-inkscape-font-specification:PTMono-Regular" transform="matrix(1 0 0 -1 161.016 342.595)" font-weight="400" font-size="12" font-family="PT Mono" fill="#001080"><tspan y="0" x="0">y</tspan></text></g><g clip-path="url(#1_svg__l)" transform="matrix(1.33333 0 0 -1.33333 -60.877 636.39)"><path d="M206.387 354.693a10.62 10.62 0 000-15.284c-4.327-4.22-11.343-4.22-15.67 0a10.62 10.62 0 000 15.284c4.327 4.22 11.343 4.22 15.67 0z" fill="none" stroke="#000"/></g><g clip-path="url(#1_svg__m)" transform="matrix(1.33333 0 0 -1.33333 -60.877 636.39)"><path d="M194.95 353.775h7.2v-14h-7.2z" fill="#fff"/><text style="-inkscape-font-specification:PTMono-Regular" transform="matrix(1 0 0 -1 194.95 342.595)" font-weight="400" font-size="12" font-family="PT Mono" fill="#001080"><tspan y="0" x="0">y</tspan></text></g><g clip-path="url(#1_svg__n)" transform="matrix(1.33333 0 0 -1.33333 -60.877 636.39)"><path d="M191.637 384.75a13.625 13.625 0 000-19.608c-5.552-5.415-14.552-5.415-20.104 0a13.625 13.625 0 000 19.608c5.552 5.415 14.552 5.415 20.104 0z" fill="none" stroke="#000"/></g><g clip-path="url(#1_svg__o)" transform="matrix(1.33333 0 0 -1.33333 -60.877 636.39)"><path d="M174.376 382.01h14.4v-14h-14.4z" fill="#fff"/><text style="-inkscape-font-specification:PTMono-Regular" transform="matrix(1 0 0 -1 174.376 370.83)" font-weight="400" font-size="12" font-family="PT Mono" fill="#00f"><tspan y="0" x="0 7.1999998">=&gt;</tspan></text></g><g clip-path="url(#1_svg__p)" transform="matrix(1.33333 0 0 -1.33333 -60.877 636.39)"><path d="M170.529 356.769l3.54 5.818" fill="none" stroke="#000"/></g><g clip-path="url(#1_svg__q)" transform="matrix(1.33333 0 0 -1.33333 -60.877 636.39)"><path d="M192.642 356.767l-3.539 5.818" fill="none" stroke="#000"/></g><g clip-path="url(#1_svg__r)" transform="matrix(1.33333 0 0 -1.33333 -60.877 636.39)"><path d="M239.283 354.693a10.62 10.62 0 000-15.284c-4.327-4.22-11.343-4.22-15.67 0a10.62 10.62 0 000 15.284c4.327 4.22 11.343 4.22 15.67 0z" fill="none" stroke="#000"/></g><g clip-path="url(#1_svg__s)" transform="matrix(1.33333 0 0 -1.33333 -60.877 636.39)"><path d="M227.846 353.775h7.2v-14h-7.2z" fill="#fff"/><text style="-inkscape-font-specification:PTMono-Regular" transform="matrix(1 0 0 -1 227.846 342.595)" font-weight="400" font-size="12" font-family="PT Mono" fill="#001080"><tspan y="0" x="0">x</tspan></text></g><g clip-path="url(#1_svg__t)" transform="matrix(1.33333 0 0 -1.33333 -60.877 636.39)"><path d="M273.217 354.693a10.62 10.62 0 000-15.284c-4.327-4.22-11.343-4.22-15.67 0a10.62 10.62 0 000 15.284c4.327 4.22 11.343 4.22 15.67 0z" fill="none" stroke="#000"/></g><g clip-path="url(#1_svg__u)" transform="matrix(1.33333 0 0 -1.33333 -60.877 636.39)"><path d="M261.78 353.775h7.2v-14h-7.2z" fill="#fff"/><text style="-inkscape-font-specification:PTMono-Regular" transform="matrix(1 0 0 -1 261.78 342.595)" font-weight="400" font-size="12" font-family="PT Mono" fill="#001080"><tspan y="0" x="0">x</tspan></text></g><g clip-path="url(#1_svg__v)" transform="matrix(1.33333 0 0 -1.33333 -60.877 636.39)"><path d="M258.467 384.75a13.625 13.625 0 000-19.608c-5.552-5.415-14.552-5.415-20.104 0a13.625 13.625 0 000 19.608c5.552 5.415 14.552 5.415 20.104 0z" fill="none" stroke="#000"/></g><g clip-path="url(#1_svg__w)" transform="matrix(1.33333 0 0 -1.33333 -60.877 636.39)"><path d="M241.206 382.01h14.4v-14h-14.4z" fill="#fff"/><text style="-inkscape-font-specification:PTMono-Regular" transform="matrix(1 0 0 -1 241.206 370.83)" font-weight="400" font-size="12" font-family="PT Mono" fill="#00f"><tspan y="0" x="0 7.1999998">=&gt;</tspan></text></g><g clip-path="url(#1_svg__x)" transform="matrix(1.33333 0 0 -1.33333 -60.877 636.39)"><path d="M237.359 356.769l3.54 5.818" fill="none" stroke="#000"/></g><g clip-path="url(#1_svg__y)" transform="matrix(1.33333 0 0 -1.33333 -60.877 636.39)"><path d="M259.472 356.767l-3.539 5.818" fill="none" stroke="#000"/></g><g clip-path="url(#1_svg__z)" transform="matrix(1.33333 0 0 -1.33333 -60.877 636.39)"><path d="M228.115 427.081c7.244-7.064 7.244-18.519 0-25.583-7.243-7.065-18.987-7.065-26.23 0-7.244 7.064-7.244 18.519 0 25.583 7.243 7.065 18.987 7.065 26.23 0z" fill="none" stroke="#000"/></g><g clip-path="url(#1_svg__A)" transform="matrix(1.33333 0 0 -1.33333 -60.877 636.39)"><path d="M200.599 421.596h28.8v-14h-28.8z" fill="#fff"/><text style="-inkscape-font-specification:PTMono-Regular" transform="matrix(1 0 0 -1 200.599 410.416)" font-weight="400" font-size="12" font-family="PT Mono"><tspan y="0" x="0 7.1999998 14.4 21.6">call</tspan></text></g><g clip-path="url(#1_svg__B)" transform="matrix(1.33333 0 0 -1.33333 -60.877 636.39)"><path d="M190.989 386.018l11.854 13.957" fill="none" stroke="#000"/></g><g clip-path="url(#1_svg__C)" transform="matrix(1.33333 0 0 -1.33333 -60.877 636.39)"><path d="M239.014 386.015l-11.857 13.961" fill="none" stroke="#000"/></g><g clip-path="url(#1_svg__D)" transform="matrix(1.33333 0 0 -1.33333 -60.877 636.39)"><path d="M205.868 276.904a10.62 10.62 0 000-15.283c-4.327-4.22-11.343-4.22-15.67 0a10.62 10.62 0 000 15.283c4.327 4.22 11.343 4.22 15.67 0z" fill="none" stroke="#000"/></g><g clip-path="url(#1_svg__E)" transform="matrix(1.33333 0 0 -1.33333 -60.877 636.39)"><path d="M194.431 275.987h7.2v-14h-7.2z" fill="#fff"/><text style="-inkscape-font-specification:PTMono-Regular" transform="matrix(1 0 0 -1 194.431 264.807)" font-weight="400" font-size="12" font-family="PT Mono" fill="#001080"><tspan y="0" x="0">x</tspan></text></g><g clip-path="url(#1_svg__F)" transform="matrix(1.33333 0 0 -1.33333 -60.877 636.39)"><path d="M239.802 276.904a10.62 10.62 0 000-15.283c-4.327-4.22-11.343-4.22-15.67 0a10.62 10.62 0 000 15.283c4.327 4.22 11.343 4.22 15.67 0z" fill="none" stroke="#000"/></g><g clip-path="url(#1_svg__G)" transform="matrix(1.33333 0 0 -1.33333 -60.877 636.39)"><path d="M228.365 275.987h7.2v-14h-7.2z" fill="#fff"/><text style="-inkscape-font-specification:PTMono-Regular" transform="matrix(1 0 0 -1 228.365 264.807)" font-weight="400" font-size="12" font-family="PT Mono" fill="#001080"><tspan y="0" x="0">x</tspan></text></g><g clip-path="url(#1_svg__H)" transform="matrix(1.33333 0 0 -1.33333 -60.877 636.39)"><path d="M225.052 306.962a13.625 13.625 0 000-19.608c-5.552-5.415-14.552-5.415-20.104 0a13.625 13.625 0 000 19.608c5.552 5.415 14.552 5.415 20.104 0z" fill="none" stroke="#000"/></g><g clip-path="url(#1_svg__I)" transform="matrix(1.33333 0 0 -1.33333 -60.877 636.39)"><path d="M207.79 304.221h14.4v-14h-14.4z" fill="#fff"/><text style="-inkscape-font-specification:PTMono-Regular" transform="matrix(1 0 0 -1 207.79 293.041)" font-weight="400" font-size="12" font-family="PT Mono" fill="#00f"><tspan y="0" x="0 7.1999998">=&gt;</tspan></text></g><g clip-path="url(#1_svg__J)" transform="matrix(1.33333 0 0 -1.33333 -60.877 636.39)"><path d="M203.944 278.98l3.54 5.82" fill="none" stroke="#000"/></g><g clip-path="url(#1_svg__K)" transform="matrix(1.33333 0 0 -1.33333 -60.877 636.39)"><path d="M226.057 278.98l-3.539 5.817" fill="none" stroke="#000"/></g><g clip-path="url(#1_svg__L)" transform="matrix(1.33333 0 0 -1.33333 -60.877 636.39)"><path d="M181.142 221.908h57.6v-14h-57.6z" fill="#fff"/><text style="-inkscape-font-specification:PTMono-Regular" transform="matrix(1 0 0 -1 181.142 210.728)" font-weight="400" font-size="12" font-family="PT Mono"><tspan y="0" x="0">(</tspan></text><text style="-inkscape-font-specification:PTMono-Regular" transform="matrix(1 0 0 -1 188.342 210.728)" font-weight="400" font-size="12" font-family="PT Mono" fill="#001080"><tspan y="0" x="0">x</tspan></text><text style="-inkscape-font-specification:PTMono-Regular" transform="matrix(1 0 0 -1 202.742 210.728)" font-weight="400" font-size="12" font-family="PT Mono" fill="#00f"><tspan y="0" x="0 7.1999998">=&gt;</tspan></text><text style="-inkscape-font-specification:PTMono-Regular" transform="matrix(1 0 0 -1 224.342 210.728)" font-weight="400" font-size="12" font-family="PT Mono" fill="#001080"><tspan y="0" x="0">x</tspan></text><text style="-inkscape-font-specification:PTMono-Regular" transform="matrix(1 0 0 -1 231.542 210.728)" font-weight="400" font-size="12" font-family="PT Mono"><tspan y="0" x="0">)</tspan></text><path d="M140.795 477.285l-.589-36.275-.008-.5" fill="none" stroke="#000"/><path d="M137.207 441.059l2.902-6.048 3.097 5.95z"/><path d="M139.918 411.574v-74.348" fill="none" stroke="#000"/><path d="M136.918 337.726l3-6 3 6z"/><path d="M139.918 308.288v-49.072" fill="none" stroke="#000"/><path d="M136.918 259.716l3-6 3 6z"/><path d="M139.814 230.279l-.352-39.271-.004-.5" fill="none" stroke="#000"/><path d="M136.463 191.035l2.946-6.027 3.053 5.973z"/></g></svg>