<svg xmlns="http://www.w3.org/2000/svg" height="71.421" width="76.109"><defs><clipPath id="2_svg__a" clipPathUnits="userSpaceOnUse"><path d="M185.453 256.956h25.16v24.614h-25.16z"/></clipPath><clipPath id="2_svg__b" clipPathUnits="userSpaceOnUse"><path d="M186.953 258.456h22.16v21.614h-22.16z"/></clipPath><clipPath id="2_svg__c" clipPathUnits="userSpaceOnUse"><path d="M219.387 256.956h25.16v24.614h-25.16z"/></clipPath><clipPath id="2_svg__d" clipPathUnits="userSpaceOnUse"><path d="M220.887 258.456h22.16v21.614h-22.16z"/></clipPath><clipPath id="2_svg__e" clipPathUnits="userSpaceOnUse"><path d="M199.284 281.793h31.432v30.73h-31.432z"/></clipPath><clipPath id="2_svg__f" clipPathUnits="userSpaceOnUse"><path d="M200.784 283.293h28.432v27.73h-28.432z"/></clipPath><clipPath id="2_svg__g" clipPathUnits="userSpaceOnUse"><path d="M202.517 277.72h6.393v8.34h-6.393z"/></clipPath><clipPath id="2_svg__h" clipPathUnits="userSpaceOnUse"><path d="M221.091 277.72h6.393v8.337h-6.393z"/></clipPath></defs><g clip-path="url(#2_svg__a)" transform="matrix(1.33333 0 0 -1.33333 -248.612 415.363)"><path d="M205.868 276.904a10.62 10.62 0 000-15.283c-4.327-4.22-11.343-4.22-15.67 0a10.62 10.62 0 000 15.283c4.327 4.22 11.343 4.22 15.67 0z" fill="none" stroke="#000"/></g><g clip-path="url(#2_svg__b)" transform="matrix(1.33333 0 0 -1.33333 -248.612 415.363)"><path d="M194.431 275.987h7.2v-14h-7.2z" fill="#fff"/><text style="-inkscape-font-specification:PTMono-Regular" transform="matrix(1 0 0 -1 194.431 264.807)" font-weight="400" font-size="12" font-family="PT Mono" fill="#001080"><tspan y="0" x="0">x</tspan></text></g><g clip-path="url(#2_svg__c)" transform="matrix(1.33333 0 0 -1.33333 -248.612 415.363)"><path d="M239.802 276.904a10.62 10.62 0 000-15.283c-4.327-4.22-11.343-4.22-15.67 0a10.62 10.62 0 000 15.283c4.327 4.22 11.343 4.22 15.67 0z" fill="none" stroke="#000"/></g><g clip-path="url(#2_svg__d)" transform="matrix(1.33333 0 0 -1.33333 -248.612 415.363)"><path d="M228.365 275.987h7.2v-14h-7.2z" fill="#fff"/><text style="-inkscape-font-specification:PTMono-Regular" transform="matrix(1 0 0 -1 228.365 264.807)" font-weight="400" font-size="12" font-family="PT Mono" fill="#001080"><tspan y="0" x="0">x</tspan></text></g><g clip-path="url(#2_svg__e)" transform="matrix(1.33333 0 0 -1.33333 -248.612 415.363)"><path d="M225.052 306.962a13.625 13.625 0 000-19.608c-5.552-5.415-14.552-5.415-20.104 0a13.625 13.625 0 000 19.608c5.552 5.415 14.552 5.415 20.104 0z" fill="none" stroke="#000"/></g><g clip-path="url(#2_svg__f)" transform="matrix(1.33333 0 0 -1.33333 -248.612 415.363)"><path d="M207.79 304.221h14.4v-14h-14.4z" fill="#fff"/><text style="-inkscape-font-specification:PTMono-Regular" transform="matrix(1 0 0 -1 207.79 293.041)" font-weight="400" font-size="12" font-family="PT Mono" fill="#00f"><tspan y="0" x="0 7.1999998">=&gt;</tspan></text></g><g clip-path="url(#2_svg__g)" transform="matrix(1.33333 0 0 -1.33333 -248.612 415.363)"><path d="M203.944 278.98l3.54 5.82" fill="none" stroke="#000"/></g><g clip-path="url(#2_svg__h)" transform="matrix(1.33333 0 0 -1.33333 -248.612 415.363)"><path d="M226.057 278.98l-3.539 5.817" fill="none" stroke="#000"/></g></svg>