<?xml version="1.0" encoding="UTF-8" standalone="no"?>
<svg
   xmlns:dc="http://purl.org/dc/elements/1.1/"
   xmlns:cc="http://creativecommons.org/ns#"
   xmlns:rdf="http://www.w3.org/1999/02/22-rdf-syntax-ns#"
   xmlns:svg="http://www.w3.org/2000/svg"
   xmlns="http://www.w3.org/2000/svg"
   viewBox="0 0 76.109474 71.421051"
   height="71.421051"
   width="76.109474"
   xml:space="preserve"
   id="svg2"
   version="1.1"><metadata
     id="metadata8"><rdf:RDF><cc:Work
         rdf:about=""><dc:format>image/svg+xml</dc:format><dc:type
           rdf:resource="http://purl.org/dc/dcmitype/StillImage" /></cc:Work></rdf:RDF></metadata><defs
     id="defs6"><clipPath
       id="clipPath20"
       clipPathUnits="userSpaceOnUse"><path
         id="path18"
         d="m 185.4531,256.9559 h 25.16032 v 24.61379 H 185.4531 Z" /></clipPath><clipPath
       id="clipPath32"
       clipPathUnits="userSpaceOnUse"><path
         id="path30"
         d="m 186.9531,258.4559 h 22.16031 v 21.61379 H 186.9531 Z" /></clipPath><clipPath
       id="clipPath48"
       clipPathUnits="userSpaceOnUse"><path
         id="path46"
         d="m 219.3866,256.9559 h 25.16032 v 24.61379 H 219.3866 Z" /></clipPath><clipPath
       id="clipPath60"
       clipPathUnits="userSpaceOnUse"><path
         id="path58"
         d="m 220.8866,258.4559 h 22.16031 v 21.61379 H 220.8866 Z" /></clipPath><clipPath
       id="clipPath76"
       clipPathUnits="userSpaceOnUse"><path
         id="path74"
         d="m 199.2842,281.7925 h 31.43156 v 30.73038 H 199.2842 Z" /></clipPath><clipPath
       id="clipPath88"
       clipPathUnits="userSpaceOnUse"><path
         id="path86"
         d="m 200.7842,283.2925 h 28.43156 v 27.73038 H 200.7842 Z" /></clipPath><clipPath
       id="clipPath104"
       clipPathUnits="userSpaceOnUse"><path
         id="path102"
         d="m 202.5167,277.7206 h 6.39362 v 8.3385 h -6.39362 z" /></clipPath><clipPath
       id="clipPath116"
       clipPathUnits="userSpaceOnUse"><path
         id="path114"
         d="m 221.0912,277.7194 h 6.39286 v 8.33725 h -6.39286 z" /></clipPath></defs><g
     transform="matrix(1.3333333,0,0,-1.3333333,-248.61193,415.36305)"
     id="g10"><g
       id="g12" /><g
       id="g14"><g
         clip-path="url(#clipPath20)"
         id="g16"><g
           transform="matrix(1,0,0,-1,186.9531,280.0697)"
           id="g22"><path
             id="path24"
             style="fill:none;stroke:#000000;stroke-width:1;stroke-linecap:butt;stroke-linejoin:miter;stroke-miterlimit:4;stroke-dasharray:none;stroke-opacity:1"
             d="m 18.91501,3.165267 c 4.32707,4.220355 4.32707,11.062903 0,15.283263 -4.32707,4.22035 -11.342636,4.22035 -15.669707,0 -4.327071,-4.22036 -4.327071,-11.062908 0,-15.283263 4.327071,-4.220356 11.342637,-4.220356 15.669707,0 z" /></g></g></g><g
       id="g26"><g
         clip-path="url(#clipPath32)"
         id="g28"><path
           id="path34"
           style="fill:#ffffff;fill-opacity:1;fill-rule:nonzero;stroke:none"
           d="m 194.4312,275.987 h 7.2 v -14 h -7.2 z" /><g
           transform="translate(194.4312,264.807)"
           id="g36"><text
             id="text40"
             style="font-variant:normal;font-weight:normal;font-size:12px;font-family:'PT Mono';-inkscape-font-specification:PTMono-Regular;writing-mode:lr-tb;fill:#001080;fill-opacity:1;fill-rule:nonzero;stroke:none"
             transform="scale(1,-1)"><tspan
               id="tspan38"
               y="0"
               x="0">x</tspan></text></g></g></g><g
       id="g42"><g
         clip-path="url(#clipPath48)"
         id="g44"><g
           transform="matrix(1,0,0,-1,220.8866,280.0697)"
           id="g50"><path
             id="path52"
             style="fill:none;stroke:#000000;stroke-width:1;stroke-linecap:butt;stroke-linejoin:miter;stroke-miterlimit:4;stroke-dasharray:none;stroke-opacity:1"
             d="m 18.91501,3.165267 c 4.32707,4.220355 4.32707,11.062903 0,15.283263 -4.32707,4.22035 -11.342636,4.22035 -15.669707,0 -4.327071,-4.22036 -4.327071,-11.062908 0,-15.283263 4.327071,-4.220356 11.342637,-4.220356 15.669707,0 z" /></g></g></g><g
       id="g54"><g
         clip-path="url(#clipPath60)"
         id="g56"><path
           id="path62"
           style="fill:#ffffff;fill-opacity:1;fill-rule:nonzero;stroke:none"
           d="m 228.3648,275.987 h 7.2 v -14 h -7.2 z" /><g
           transform="translate(228.3648,264.807)"
           id="g64"><text
             id="text68"
             style="font-variant:normal;font-weight:normal;font-size:12px;font-family:'PT Mono';-inkscape-font-specification:PTMono-Regular;writing-mode:lr-tb;fill:#001080;fill-opacity:1;fill-rule:nonzero;stroke:none"
             transform="scale(1,-1)"><tspan
               id="tspan66"
               y="0"
               x="0">x</tspan></text></g></g></g><g
       id="g70"><g
         clip-path="url(#clipPath76)"
         id="g72"><g
           transform="matrix(1,0,0,-1,200.7842,311.0229)"
           id="g78"><path
             id="path80"
             style="fill:none;stroke:#000000;stroke-width:1;stroke-linecap:butt;stroke-linejoin:miter;stroke-miterlimit:4;stroke-dasharray:none;stroke-opacity:1"
             d="m 24.26786,4.061019 c 5.5516,5.414693 5.5516,14.193641 0,19.608341 -5.55161,5.41469 -14.552547,5.41469 -20.104154,0 -5.551608,-5.4147 -5.551608,-14.193648 0,-19.608341 5.551607,-5.414692 14.552544,-5.414692 20.104154,0 z" /></g></g></g><g
       id="g82"><g
         clip-path="url(#clipPath88)"
         id="g84"><path
           id="path90"
           style="fill:#ffffff;fill-opacity:1;fill-rule:nonzero;stroke:none"
           d="m 207.7906,304.2214 h 14.4 v -14 h -14.4 z" /><g
           transform="translate(207.7906,293.0414)"
           id="g92"><text
             id="text96"
             style="font-variant:normal;font-weight:normal;font-size:12px;font-family:'PT Mono';-inkscape-font-specification:PTMono-Regular;writing-mode:lr-tb;fill:#0000ff;fill-opacity:1;fill-rule:nonzero;stroke:none"
             transform="scale(1,-1)"><tspan
               id="tspan94"
               y="0"
               x="0 7.1999998">=&gt;</tspan></text></g></g></g><g
       id="g98"><g
         clip-path="url(#clipPath104)"
         id="g100"><g
           transform="matrix(1,0,0,-1,203.9439,284.7993)"
           id="g106"><path
             id="path108"
             style="fill:none;stroke:#000000;stroke-width:1;stroke-linecap:butt;stroke-linejoin:miter;stroke-miterlimit:4;stroke-dasharray:none;stroke-opacity:1"
             d="M 0,5.818835 3.539248,0" /></g></g></g><g
       id="g110"><g
         clip-path="url(#clipPath116)"
         id="g112"><g
           transform="matrix(1,0,0,-1,222.5184,284.7968)"
           id="g118"><path
             id="path120"
             style="fill:none;stroke:#000000;stroke-width:1;stroke-linecap:butt;stroke-linejoin:miter;stroke-miterlimit:4;stroke-dasharray:none;stroke-opacity:1"
             d="M 3.538491,5.817583 0,0" /></g></g></g></g></svg>
