<svg xmlns="http://www.w3.org/2000/svg" xmlns:xlink="http://www.w3.org/1999/xlink" version="1.2" viewBox="0 0 123.91 97.134" height="129.513" width="165.214"><defs><clipPath id="3_svg__a"><path d="M152.04 280.64h25.16v24.618h-25.16zm0 0"/></clipPath><clipPath id="3_svg__c"><path d="M185.973 280.64h25.16v24.618h-25.16zm0 0"/></clipPath><clipPath id="3_svg__d"><path d="M165.871 249.688h31.43v30.73h-31.43zm0 0"/></clipPath><clipPath id="3_svg__g"><path d="M169.102 276.152h6.394v8.34h-6.394zm0 0"/></clipPath><clipPath id="3_svg__h"><path d="M187.676 276.156h6.394v8.336h-6.394zm0 0"/></clipPath><clipPath id="3_svg__i"><path d="M218.867 280.64h25.16v24.618h-25.16zm0 0"/></clipPath><clipPath id="3_svg__k"><path d="M252.8 280.64h25.16v24.618H252.8zm0 0"/></clipPath><clipPath id="3_svg__l"><path d="M232.7 249.688h31.429v30.73h-31.43zm0 0"/></clipPath><clipPath id="3_svg__m"><path d="M235.934 276.152h6.39v8.34h-6.39zm0 0"/></clipPath><clipPath id="3_svg__n"><path d="M254.508 276.156h6.39v8.336h-6.39zm0 0"/></clipPath><clipPath id="3_svg__o"><path d="M194.953 206.121h40.094v39.18h-40.094zm0 0"/></clipPath><clipPath id="3_svg__s"><path d="M189.61 238.703h14.613v16.602h-14.614zm0 0"/></clipPath><clipPath id="3_svg__t"><path d="M225.777 238.7h14.618v16.609h-14.618zm0 0"/></clipPath><symbol id="3_svg__b" overflow="visible"><path d="M3.734-.922h.454L5.671-6h.969L4.984-.61c-.093.282-.187.602-.28.954a3.943 3.943 0 01-.391 1c-.168.312-.399.57-.688.781-.281.219-.652.328-1.11.328-.105 0-.218-.012-.343-.031a2.63 2.63 0 01-.344-.094 1.932 1.932 0 01-.312-.125.54.54 0 01-.204-.14l.329-.86c.05.04.117.078.203.11.082.039.172.078.265.109.102.031.204.055.297.078.102.02.188.031.25.031.594 0 1-.511 1.219-1.531h-.797L.547-6h1.078zm0 0"/></symbol><symbol id="3_svg__e" overflow="visible"><path d="M.813-5.484H6.39v.859H.812zm0 1.968H6.39v.86H.812zm0 0"/></symbol><symbol id="3_svg__f" overflow="visible"><path d="M1-.39l-.453-.72 4.766-2.78L.546-6.704l.469-.75 5.64 3.437v.36zm0 0"/></symbol><symbol id="3_svg__j" overflow="visible"><path d="M3.031-3.078L.72-6h1.203L3.64-3.75 5.42-6H6.5L4.187-3.125 6.642 0H5.5L3.594-2.453 1.64 0H.547zm0 0"/></symbol><symbol id="3_svg__p" overflow="visible"><path d="M5.266-5.078a5.27 5.27 0 00-.594-.156 3.425 3.425 0 00-.625-.063c-.781 0-1.367.184-1.75.547-.387.367-.578.95-.578 1.75 0 .355.05.672.156.953.113.274.273.508.484.703.207.188.457.336.75.438.29.105.614.156.97.156.374 0 .737-.063 1.093-.188.363-.132.664-.304.906-.515l.406.703a2.589 2.589 0 01-.421.297c-.168.105-.36.203-.579.297a4.084 4.084 0 01-.734.203 3.69 3.69 0 01-.86.094c-.523 0-.98-.075-1.374-.22a2.641 2.641 0 01-1-.624 2.768 2.768 0 01-.594-1A3.943 3.943 0 01.719-3c0-.5.066-.945.203-1.344.144-.394.348-.722.61-.984.269-.258.593-.457.968-.594a3.44 3.44 0 011.25-.219c.594 0 1.078.055 1.453.157.375.105.688.218.938.343l-.016.032v1.671h-.86zm0 0"/></symbol><symbol id="3_svg__q" overflow="visible"><path d="M1.297-5.531a3.842 3.842 0 011.156-.422c.438-.094.863-.14 1.281-.14.407 0 .739.062 1 .187.258.125.461.293.61.5.144.21.242.445.297.703.05.262.078.523.078.781 0 .305-.012.625-.032.969-.011.344-.023.687-.03 1.031 0 .406.023.79.077 1.14h.813V0h-1.61l-.093-.906H4.78a6.095 6.095 0 01-.218.281c-.094.117-.22.23-.375.344-.157.105-.352.199-.579.281-.218.07-.484.11-.796.11-.586 0-1.047-.15-1.391-.454-.344-.3-.516-.719-.516-1.25 0-.406.086-.742.266-1.015.176-.282.43-.489.766-.625.343-.145.75-.227 1.218-.25a7.34 7.34 0 011.61.093c.039-.375.046-.68.015-.921-.031-.25-.101-.442-.203-.579a.782.782 0 00-.406-.312 2.062 2.062 0 00-.672-.094c-.355 0-.7.055-1.031.156-.324.106-.617.204-.875.297zM3.063-.703c.218 0 .421-.031.609-.094.195-.07.367-.164.515-.281.145-.113.266-.234.36-.36a2.21 2.21 0 00.219-.39v-.828a7.05 7.05 0 00-1.157-.11c-.355 0-.664.04-.921.11-.25.074-.45.195-.594.36-.137.155-.203.358-.203.608 0 .274.086.508.265.704.176.187.477.28.906.28zm0 0"/></symbol><symbol id="3_svg__r" overflow="visible"><path d="M1.422-8.406h2v6.39c0 .493.078.836.234 1.032.164.199.41.296.735.296.226 0 .441-.035.64-.109.207-.082.438-.223.688-.422l.422.672a3.22 3.22 0 01-.422.297 3.208 3.208 0 01-.469.219 2.64 2.64 0 01-.484.14A2.436 2.436 0 013.532.031a1.288 1.288 0 01-.579-.36 1.603 1.603 0 01-.36-.655 4.108 4.108 0 01-.109-1.032v-5.578H1.422zm0 0"/></symbol></defs><g clip-path="url(#3_svg__a)" transform="translate(-153.045 -207.122)"><path d="M172.453 285.309a10.615 10.615 0 010 15.28c-4.328 4.224-11.344 4.224-15.668 0a10.615 10.615 0 010-15.28c4.324-4.223 11.34-4.223 15.668 0zm0 0" fill="none" stroke="#000"/></g><path d="M7.97 79.105h7.2v14h-7.2zm0 0" fill="#fff"/><use height="100%" width="100%" y="297.405" x="161.016" xlink:href="#3_svg__b" fill="#000f7f" transform="translate(-153.045 -207.122)"/><g clip-path="url(#3_svg__c)" transform="translate(-153.045 -207.122)"><path d="M206.387 285.309a10.615 10.615 0 010 15.28c-4.328 4.224-11.344 4.224-15.668 0a10.615 10.615 0 010-15.28c4.324-4.223 11.34-4.223 15.668 0zm0 0" fill="none" stroke="#000"/></g><path d="M41.904 79.105h7.2v14h-7.2zm0 0" fill="#fff"/><use height="100%" width="100%" y="297.405" x="194.95" xlink:href="#3_svg__b" fill="#000f7f" transform="translate(-153.045 -207.122)"/><g clip-path="url(#3_svg__d)" transform="translate(-153.045 -207.122)"><path d="M191.637 255.25a13.627 13.627 0 010 19.61c-5.551 5.413-14.551 5.413-20.106 0a13.627 13.627 0 010-19.61c5.555-5.414 14.555-5.414 20.106 0zm0 0" fill="none" stroke="#000"/></g><path d="M21.33 50.87h14.402v14H21.33zm0 0" fill="#fff"/><g fill="#00f" transform="translate(-153.045 -207.122)"><use height="100%" width="100%" y="269.171" x="174.376" xlink:href="#3_svg__e"/><use height="100%" width="100%" y="269.171" x="181.576" xlink:href="#3_svg__f"/></g><g clip-path="url(#3_svg__g)" transform="translate(-153.045 -207.122)"><path d="M170.527 283.23l3.54-5.816" fill="none" stroke="#000"/></g><g clip-path="url(#3_svg__h)" transform="translate(-153.045 -207.122)"><path d="M192.64 283.234l-3.538-5.82" fill="none" stroke="#000"/></g><g clip-path="url(#3_svg__i)" transform="translate(-153.045 -207.122)"><path d="M239.281 285.309a10.615 10.615 0 010 15.28c-4.324 4.224-11.34 4.224-15.668 0a10.615 10.615 0 010-15.28c4.328-4.223 11.344-4.223 15.668 0zm0 0" fill="none" stroke="#000"/></g><path d="M74.803 79.105h7.199v14h-7.2zm0 0" fill="#fff"/><use height="100%" width="100%" y="297.405" x="227.846" xlink:href="#3_svg__j" fill="#000f7f" transform="translate(-153.045 -207.122)"/><g clip-path="url(#3_svg__k)" transform="translate(-153.045 -207.122)"><path d="M273.215 285.309a10.615 10.615 0 010 15.28c-4.324 4.224-11.34 4.224-15.668 0a10.615 10.615 0 010-15.28c4.328-4.223 11.344-4.223 15.668 0zm0 0" fill="none" stroke="#000"/></g><path d="M108.736 79.105h7.2v14h-7.2zm0 0" fill="#fff"/><use height="100%" width="100%" y="297.405" x="261.78" xlink:href="#3_svg__j" fill="#000f7f" transform="translate(-153.045 -207.122)"/><g clip-path="url(#3_svg__l)" transform="translate(-153.045 -207.122)"><path d="M258.469 255.25a13.627 13.627 0 010 19.61c-5.555 5.413-14.555 5.413-20.106 0a13.627 13.627 0 010-19.61c5.551-5.414 14.551-5.414 20.106 0zm0 0" fill="none" stroke="#000"/></g><path d="M88.162 50.87h14.399v14H88.162zm0 0" fill="#fff"/><g fill="#00f" transform="translate(-153.045 -207.122)"><use height="100%" width="100%" y="269.171" x="241.206" xlink:href="#3_svg__e"/><use height="100%" width="100%" y="269.171" x="248.406" xlink:href="#3_svg__f"/></g><g clip-path="url(#3_svg__m)" transform="translate(-153.045 -207.122)"><path d="M237.36 283.23l3.538-5.816" fill="none" stroke="#000"/></g><g clip-path="url(#3_svg__n)" transform="translate(-153.045 -207.122)"><path d="M259.473 283.234l-3.54-5.82" fill="none" stroke="#000"/></g><g clip-path="url(#3_svg__o)" transform="translate(-153.045 -207.122)"><path d="M228.117 212.918c7.242 7.066 7.242 18.52 0 25.586-7.246 7.062-18.988 7.062-26.234 0-7.242-7.066-7.242-18.52 0-25.586 7.246-7.063 18.988-7.063 26.234 0zm0 0" fill="none" stroke="#000"/></g><path d="M47.553 11.285h28.8v14h-28.8zm0 0" fill="#fff"/><g transform="translate(-153.045 -207.122)"><use height="100%" width="100%" y="229.584" x="200.599" xlink:href="#3_svg__p"/><use height="100%" width="100%" y="229.584" x="207.799" xlink:href="#3_svg__q"/><use height="100%" width="100%" y="229.584" x="214.999" xlink:href="#3_svg__r"/><use height="100%" width="100%" y="229.584" x="222.199" xlink:href="#3_svg__r"/></g><g clip-path="url(#3_svg__s)" transform="translate(-153.045 -207.122)"><path d="M190.988 253.98l11.856-13.957" fill="none" stroke="#000"/></g><g clip-path="url(#3_svg__t)" transform="translate(-153.045 -207.122)"><path d="M239.016 253.984l-11.86-13.96" fill="none" stroke="#000"/></g></svg>