<svg xmlns="http://www.w3.org/2000/svg" height="325.971" width="439.511"><defs><clipPath id="4_svg__a" clipPathUnits="userSpaceOnUse"><path d="M0 0h430v640H0z"/></clipPath><clipPath id="4_svg__b" clipPathUnits="userSpaceOnUse"><path d="M161.939 252.295H268.07v22.451H161.939z"/></clipPath><clipPath id="4_svg__c" clipPathUnits="userSpaceOnUse"><path d="M0 0h430v640H0z"/></clipPath><clipPath id="4_svg__d" clipPathUnits="userSpaceOnUse"><path d="M103.684 354.758h11.588v11.588h-11.588z"/></clipPath><clipPath id="4_svg__e" clipPathUnits="userSpaceOnUse"><path d="M92.684 332.531h11.588v11.588H92.684z"/></clipPath><clipPath id="4_svg__f" clipPathUnits="userSpaceOnUse"><path d="M114.684 332.531h11.588v11.588h-11.588z"/></clipPath><clipPath id="4_svg__g" clipPathUnits="userSpaceOnUse"><path d="M99.157 341.401h9.642v16.075h-9.642z"/></clipPath><clipPath id="4_svg__h" clipPathUnits="userSpaceOnUse"><path d="M110.157 341.401h9.642v16.075h-9.642z"/></clipPath><clipPath id="4_svg__i" clipPathUnits="userSpaceOnUse"><path d="M103.684 279.954h11.588v11.588h-11.588z"/></clipPath><clipPath id="4_svg__j" clipPathUnits="userSpaceOnUse"><path d="M86.684 257.726h11.588v11.588H86.684z"/></clipPath><clipPath id="4_svg__k" clipPathUnits="userSpaceOnUse"><path d="M120.684 257.726h11.588v11.588h-11.588z"/></clipPath><clipPath id="4_svg__l" clipPathUnits="userSpaceOnUse"><path d="M93.994 266.025h13.969v17.218h-13.97z"/></clipPath><clipPath id="4_svg__m" clipPathUnits="userSpaceOnUse"><path d="M110.994 266.025h13.969v17.218h-13.97z"/></clipPath><clipPath id="4_svg__n" clipPathUnits="userSpaceOnUse"><path d="M69.684 235.484h11.588v11.587H69.684z"/></clipPath><clipPath id="4_svg__o" clipPathUnits="userSpaceOnUse"><path d="M103.684 235.484h11.588v11.587h-11.588z"/></clipPath><clipPath id="4_svg__p" clipPathUnits="userSpaceOnUse"><path d="M76.992 243.783h13.972v17.232H76.992z"/></clipPath><clipPath id="4_svg__q" clipPathUnits="userSpaceOnUse"><path d="M93.992 243.783h13.972v17.232H93.992z"/></clipPath><clipPath id="4_svg__r" clipPathUnits="userSpaceOnUse"><path d="M92.684 213.24h11.588v11.589H92.684z"/></clipPath><clipPath id="4_svg__s" clipPathUnits="userSpaceOnUse"><path d="M114.684 213.24h11.588v11.589h-11.588z"/></clipPath><clipPath id="4_svg__t" clipPathUnits="userSpaceOnUse"><path d="M99.156 222.111h9.645v16.09h-9.645z"/></clipPath><clipPath id="4_svg__u" clipPathUnits="userSpaceOnUse"><path d="M110.156 222.111h9.645v16.09h-9.645z"/></clipPath><clipPath id="4_svg__v" clipPathUnits="userSpaceOnUse"><path d="M337.521 279.954h11.588v11.588h-11.588z"/></clipPath><clipPath id="4_svg__w" clipPathUnits="userSpaceOnUse"><path d="M320.521 257.726h11.588v11.588h-11.588z"/></clipPath><clipPath id="4_svg__x" clipPathUnits="userSpaceOnUse"><path d="M354.521 257.726h11.588v11.588h-11.588z"/></clipPath><clipPath id="4_svg__y" clipPathUnits="userSpaceOnUse"><path d="M327.83 266.025h13.97v17.218h-13.97z"/></clipPath><clipPath id="4_svg__z" clipPathUnits="userSpaceOnUse"><path d="M344.83 266.025h13.97v17.218h-13.97z"/></clipPath><clipPath id="4_svg__A" clipPathUnits="userSpaceOnUse"><path d="M337.521 235.484h11.588v11.587h-11.588z"/></clipPath><clipPath id="4_svg__B" clipPathUnits="userSpaceOnUse"><path d="M310.81 243.574h14.011v17.425H310.81z"/></clipPath><clipPath id="4_svg__C" clipPathUnits="userSpaceOnUse"><path d="M327.83 243.783H341.8v17.232H327.83z"/></clipPath><clipPath id="4_svg__D" clipPathUnits="userSpaceOnUse"><path d="M326.521 213.24h11.588v11.589h-11.588z"/></clipPath><clipPath id="4_svg__E" clipPathUnits="userSpaceOnUse"><path d="M332.993 222.111h9.645v16.09h-9.645z"/></clipPath><clipPath id="4_svg__F" clipPathUnits="userSpaceOnUse"><path d="M343.993 222.111h9.645v16.09h-9.645z"/></clipPath><clipPath id="4_svg__G" clipPathUnits="userSpaceOnUse"><path d="M303.521 235.258h11.588v11.588h-11.588z"/></clipPath><clipPath id="4_svg__H" clipPathUnits="userSpaceOnUse"><path d="M292.521 213.031h11.588v11.588h-11.588z"/></clipPath><clipPath id="4_svg__I" clipPathUnits="userSpaceOnUse"><path d="M314.521 213.031h11.588v11.588h-11.588z"/></clipPath><clipPath id="4_svg__J" clipPathUnits="userSpaceOnUse"><path d="M298.994 221.901h9.643v16.075h-9.643z"/></clipPath><clipPath id="4_svg__K" clipPathUnits="userSpaceOnUse"><path d="M309.994 221.901h9.643v16.075h-9.643z"/></clipPath><clipPath id="4_svg__L" clipPathUnits="userSpaceOnUse"><path d="M348.521 213.24h11.588v11.589h-11.588z"/></clipPath><clipPath id="4_svg__M" clipPathUnits="userSpaceOnUse"><path d="M337.521 191.013h11.588v11.588h-11.588z"/></clipPath><clipPath id="4_svg__N" clipPathUnits="userSpaceOnUse"><path d="M359.521 191.013h11.588v11.588h-11.588z"/></clipPath><clipPath id="4_svg__O" clipPathUnits="userSpaceOnUse"><path d="M343.994 199.883h9.643v16.076h-9.643z"/></clipPath><clipPath id="4_svg__P" clipPathUnits="userSpaceOnUse"><path d="M354.994 199.883h9.643v16.076h-9.643z"/></clipPath><clipPath id="4_svg__Q" clipPathUnits="userSpaceOnUse"><path d="M0 0h430v640H0z"/></clipPath></defs><g clip-path="url(#4_svg__a)" transform="matrix(1.33333 0 0 -1.33333 -78.91 572.523)"><path d="M77.078 429.392h64.8v-14h-64.8z" fill="#fff"/><text style="-inkscape-font-specification:PTMono-Regular" transform="matrix(1 0 0 -1 77.078 418.212)" font-weight="400" font-size="12" font-family="PT Mono" fill="#001080"><tspan y="0" x="0 7.1999998 14.4 21.6 28.799999 36 43.200001 50.400002 57.599998">parameter</tspan></text><path d="M80.678 386.159h57.6v-14h-57.6z" fill="#fff"/><text style="-inkscape-font-specification:PTMono-Regular" transform="matrix(1 0 0 -1 80.678 374.979)" font-weight="400" font-size="12" font-family="PT Mono" fill="#001080"><tspan y="0" x="0 7.1999998 14.4 21.6 28.799999 36 43.200001 50.400002">argument</tspan></text><path d="M95.078 316.036h28.8v-14h-28.8z" fill="#fff"/><text style="-inkscape-font-specification:PTMono-Regular" transform="matrix(1 0 0 -1 95.078 304.856)" font-weight="400" font-size="12" font-family="PT Mono" fill="#001080"><tspan y="0" x="0 7.1999998 14.4 21.6">body</tspan></text><path d="M280.815 316.036h108v-14h-108z" fill="#fff"/><text style="-inkscape-font-specification:PTMono-Regular" transform="matrix(1 0 0 -1 280.815 304.856)" font-weight="400" font-size="12" font-family="PT Mono" fill="#001080"><tspan y="0" x="0 7.1999998 14.4 21.6 28.799999 36 43.200001 50.400002 57.599998 64.800003 72 79.199997 86.400002 93.599998 100.8">substitutedBody</tspan></text><path d="M168.396 274.746h93.208c1.373 0 2.197 0 2.746-.229a2.85 2.85 0 001.703-1.703c.23-.55.23-1.373.23-2.746v-13.095c0-1.373 0-2.197-.23-2.746a2.85 2.85 0 00-1.703-1.703c-.55-.23-1.373-.23-2.746-.23h-93.208c-1.373 0-2.197 0-2.746.23a2.85 2.85 0 00-1.703 1.703c-.23.55-.23 1.373-.23 2.746v13.095c0 1.373 0 2.197.23 2.746a2.85 2.85 0 001.703 1.703c.55.23 1.373.23 2.746.23z" fill="none" stroke="#000" stroke-width="1.1"/></g><g clip-path="url(#4_svg__b)" transform="matrix(1.33333 0 0 -1.33333 -78.91 572.523)"><path d="M171.804 270.747h86.4v-14h-86.4z" fill="#fff"/><text style="-inkscape-font-specification:PTMono-Regular" transform="matrix(1 0 0 -1 171.804 259.567)" font-weight="400" font-size="12" font-family="PT Mono" fill="#795e26"><tspan y="0" x="0 7.1999998 14.4 21.6 28.799999 36 43.200001 50.400002 57.599998 64.800003">substitute</tspan></text><text style="-inkscape-font-specification:PTMono-Regular" transform="matrix(1 0 0 -1 243.804 259.567)" font-weight="400" font-size="12" font-family="PT Mono"><tspan y="0" x="0 7.1999998">()</tspan></text></g><g clip-path="url(#4_svg__c)" transform="matrix(1.33333 0 0 -1.33333 -78.91 572.523)"><path d="M112.868 408.27a4.794 4.794 0 10-6.78-6.78 4.794 4.794 0 006.78 6.78z" fill="#b20001"/></g><g clip-path="url(#4_svg__d)" transform="matrix(1.33333 0 0 -1.33333 -78.91 572.523)"><path d="M112.868 363.942a4.794 4.794 0 10-6.78-6.78 4.794 4.794 0 006.78 6.78z" fill="#008200"/></g><g clip-path="url(#4_svg__e)" transform="matrix(1.33333 0 0 -1.33333 -78.91 572.523)"><path d="M101.868 341.715a4.794 4.794 0 10-6.78-6.78 4.794 4.794 0 006.78 6.78z" fill="#008200"/></g><g clip-path="url(#4_svg__f)" transform="matrix(1.33333 0 0 -1.33333 -78.91 572.523)"><path d="M123.868 341.715a4.794 4.794 0 10-6.78-6.78 4.794 4.794 0 006.78 6.78z" fill="#008200"/></g><g clip-path="url(#4_svg__g)" transform="matrix(1.33333 0 0 -1.33333 -78.91 572.523)"><path d="M100.605 342.623l6.746 13.631" fill="none" stroke="green"/></g><g clip-path="url(#4_svg__h)" transform="matrix(1.33333 0 0 -1.33333 -78.91 572.523)"><path d="M118.351 342.623l-6.746 13.631" fill="none" stroke="green"/></g><g clip-path="url(#4_svg__i)" transform="matrix(1.33333 0 0 -1.33333 -78.91 572.523)"><path d="M112.868 289.137a4.794 4.794 0 10-6.78-6.78 4.794 4.794 0 006.78 6.78z"/></g><g clip-path="url(#4_svg__j)" transform="matrix(1.33333 0 0 -1.33333 -78.91 572.523)"><path d="M95.868 266.91a4.794 4.794 0 10-6.78-6.78 4.794 4.794 0 006.78 6.78z"/></g><g clip-path="url(#4_svg__k)" transform="matrix(1.33333 0 0 -1.33333 -78.91 572.523)"><path d="M129.868 266.91a4.794 4.794 0 10-6.78-6.78 4.794 4.794 0 006.78 6.78z"/></g><g clip-path="url(#4_svg__l)" transform="matrix(1.33333 0 0 -1.33333 -78.91 572.523)"><path d="M95.39 267.329l11.176 14.61" fill="none" stroke="#000"/></g><g clip-path="url(#4_svg__m)" transform="matrix(1.33333 0 0 -1.33333 -78.91 572.523)"><path d="M123.565 267.329l-11.174 14.61" fill="none" stroke="#000"/></g><g clip-path="url(#4_svg__n)" transform="matrix(1.33333 0 0 -1.33333 -78.91 572.523)"><path d="M78.868 244.667a4.794 4.794 0 10-6.78-6.78 4.794 4.794 0 006.78 6.78z" fill="#b20001"/></g><g clip-path="url(#4_svg__o)" transform="matrix(1.33333 0 0 -1.33333 -78.91 572.523)"><path d="M112.868 244.667a4.794 4.794 0 10-6.78-6.78 4.794 4.794 0 006.78 6.78z"/></g><g clip-path="url(#4_svg__p)" transform="matrix(1.33333 0 0 -1.33333 -78.91 572.523)"><path d="M78.39 245.087l11.177 14.624" fill="none" stroke="#000"/></g><g clip-path="url(#4_svg__q)" transform="matrix(1.33333 0 0 -1.33333 -78.91 572.523)"><path d="M106.567 245.087L95.39 259.71" fill="none" stroke="#000"/></g><g clip-path="url(#4_svg__r)" transform="matrix(1.33333 0 0 -1.33333 -78.91 572.523)"><path d="M101.868 222.424a4.794 4.794 0 10-6.78-6.78 4.794 4.794 0 006.78 6.78z"/></g><g clip-path="url(#4_svg__s)" transform="matrix(1.33333 0 0 -1.33333 -78.91 572.523)"><path d="M123.868 222.424a4.794 4.794 0 10-6.78-6.78 4.794 4.794 0 006.78 6.78z" fill="#b20001"/></g><g clip-path="url(#4_svg__t)" transform="matrix(1.33333 0 0 -1.33333 -78.91 572.523)"><path d="M100.604 223.333l6.748 13.646" fill="none" stroke="#000"/></g><g clip-path="url(#4_svg__u)" transform="matrix(1.33333 0 0 -1.33333 -78.91 572.523)"><path d="M118.352 223.333l-6.748 13.646" fill="none" stroke="#000"/></g><g clip-path="url(#4_svg__v)" transform="matrix(1.33333 0 0 -1.33333 -78.91 572.523)"><path d="M346.705 289.137a4.794 4.794 0 10-6.78-6.78 4.794 4.794 0 006.78 6.78z"/></g><g clip-path="url(#4_svg__w)" transform="matrix(1.33333 0 0 -1.33333 -78.91 572.523)"><path d="M329.705 266.91a4.794 4.794 0 10-6.78-6.78 4.794 4.794 0 006.78 6.78z"/></g><g clip-path="url(#4_svg__x)" transform="matrix(1.33333 0 0 -1.33333 -78.91 572.523)"><path d="M363.705 266.91a4.794 4.794 0 10-6.78-6.78 4.794 4.794 0 006.78 6.78z"/></g><g clip-path="url(#4_svg__y)" transform="matrix(1.33333 0 0 -1.33333 -78.91 572.523)"><path d="M329.228 267.329l11.175 14.61" fill="none" stroke="#000"/></g><g clip-path="url(#4_svg__z)" transform="matrix(1.33333 0 0 -1.33333 -78.91 572.523)"><path d="M357.403 267.329l-11.175 14.61" fill="none" stroke="#000"/></g><g clip-path="url(#4_svg__A)" transform="matrix(1.33333 0 0 -1.33333 -78.91 572.523)"><path d="M346.705 244.667a4.794 4.794 0 10-6.78-6.78 4.794 4.794 0 006.78 6.78z"/></g><g clip-path="url(#4_svg__B)" transform="matrix(1.33333 0 0 -1.33333 -78.91 572.523)"><path d="M312.208 244.876l11.214 14.821" fill="none" stroke="#000"/></g><g clip-path="url(#4_svg__C)" transform="matrix(1.33333 0 0 -1.33333 -78.91 572.523)"><path d="M340.404 245.087l-11.177 14.624" fill="none" stroke="#000"/></g><g clip-path="url(#4_svg__D)" transform="matrix(1.33333 0 0 -1.33333 -78.91 572.523)"><path d="M335.705 222.424a4.794 4.794 0 10-6.78-6.78 4.794 4.794 0 006.78 6.78z"/></g><g clip-path="url(#4_svg__E)" transform="matrix(1.33333 0 0 -1.33333 -78.91 572.523)"><path d="M334.441 223.333l6.749 13.646" fill="none" stroke="#000"/></g><g clip-path="url(#4_svg__F)" transform="matrix(1.33333 0 0 -1.33333 -78.91 572.523)"><path d="M352.19 223.333l-6.749 13.646" fill="none" stroke="#000"/></g><g clip-path="url(#4_svg__G)" transform="matrix(1.33333 0 0 -1.33333 -78.91 572.523)"><path d="M312.705 244.442a4.794 4.794 0 10-6.78-6.78 4.794 4.794 0 006.78 6.78z" fill="#008200"/></g><g clip-path="url(#4_svg__H)" transform="matrix(1.33333 0 0 -1.33333 -78.91 572.523)"><path d="M301.705 222.215a4.794 4.794 0 10-6.78-6.78 4.794 4.794 0 006.78 6.78z" fill="#008200"/></g><g clip-path="url(#4_svg__I)" transform="matrix(1.33333 0 0 -1.33333 -78.91 572.523)"><path d="M323.705 222.215a4.794 4.794 0 10-6.78-6.78 4.794 4.794 0 006.78 6.78z" fill="#008200"/></g><g clip-path="url(#4_svg__J)" transform="matrix(1.33333 0 0 -1.33333 -78.91 572.523)"><path d="M300.442 223.123l6.746 13.632" fill="none" stroke="green"/></g><g clip-path="url(#4_svg__K)" transform="matrix(1.33333 0 0 -1.33333 -78.91 572.523)"><path d="M318.188 223.123l-6.746 13.632" fill="none" stroke="green"/></g><g clip-path="url(#4_svg__L)" transform="matrix(1.33333 0 0 -1.33333 -78.91 572.523)"><path d="M357.705 222.424a4.794 4.794 0 10-6.78-6.78 4.794 4.794 0 006.78 6.78z" fill="#008200"/></g><g clip-path="url(#4_svg__M)" transform="matrix(1.33333 0 0 -1.33333 -78.91 572.523)"><path d="M346.705 200.197a4.794 4.794 0 10-6.78-6.78 4.794 4.794 0 006.78 6.78z" fill="#008200"/></g><g clip-path="url(#4_svg__N)" transform="matrix(1.33333 0 0 -1.33333 -78.91 572.523)"><path d="M368.705 200.197a4.794 4.794 0 10-6.78-6.78 4.794 4.794 0 006.78 6.78z" fill="#008200"/></g><g clip-path="url(#4_svg__O)" transform="matrix(1.33333 0 0 -1.33333 -78.91 572.523)"><path d="M345.442 201.105l6.746 13.632" fill="none" stroke="green"/></g><g clip-path="url(#4_svg__P)" transform="matrix(1.33333 0 0 -1.33333 -78.91 572.523)"><path d="M363.188 201.105l-6.746 13.632" fill="none" stroke="green"/></g><g clip-path="url(#4_svg__Q)" transform="matrix(1.33333 0 0 -1.33333 -78.91 572.523)"><path d="M99.534 293.183a197.982 197.982 0 00-17.787-19.796c-5.943-5.782-12.298-11.248-16.86-18.184-4.711-7.16-7.172-16.003-3.265-23.476 2.648-5.065 8.1-8.233 13.33-6.467 5.596 1.89 7.426 8.522 11.917 12.161 2.503 2.029 5.95 2.813 8.158.745 5.696-5.336-4.441-10.278-9.195-16.316-3.159-4.012-2.783-9.62-.128-14.083 3.841-6.456 11.908-8.487 15.734-3.486 3.478 4.546.659 15.295 7.98 14.35 5.08-.657 3.532-7.479 5.253-11.94 2.444-6.337 10.852-7.441 17.269-3.374 5.08 3.22 8.25 8.834 7.668 14.787-.495 5.069-3.677 9.28-6.458 13.526-2.875 4.388-5.508 9.13-9.963 11.933-6.04 3.799-12.092 8.648-8.084 12.571 3.596 3.52 8.007-1.563 12.24-5.118 4.007-3.366 9.81-3.79 13.551-.325 5.385 4.988 3.394 13.879-3.193 18.565-4.371 3.11-10.42 4.41-12.479 9.463-3.46 8.493 4.408 15.9 11.86 14.356l.44-.241" fill="none" stroke="#af00db"/><path d="M135.64 290.445l6.703-.26-3.814 5.518z" fill="#af00db"/><text style="-inkscape-font-specification:PTSerif-Regular" transform="matrix(1 0 0 -1 84.812 185.058)" font-weight="400" font-size="12" font-family="PT Serif" fill="#af00db"><tspan y="0" x="0 7.0679998 11.676 17.736 23.82 29.856001 34.464001 39.66 45.720001">Traversal</tspan></text><path d="M284.77 263.657h-.5l-17.49-.035" fill="none" stroke="#000"/><path d="M284.277 260.656l5.994 3.012-6.006 2.988z"/><path d="M151.21 262.551l12.008.183" fill="none" stroke="#000"/></g></svg>