<?xml version="1.0" encoding="UTF-8" standalone="no"?>
<svg
   xmlns:dc="http://purl.org/dc/elements/1.1/"
   xmlns:cc="http://creativecommons.org/ns#"
   xmlns:rdf="http://www.w3.org/1999/02/22-rdf-syntax-ns#"
   xmlns:svg="http://www.w3.org/2000/svg"
   xmlns="http://www.w3.org/2000/svg"
   viewBox="0 0 401.66223 277.86893"
   height="277.86893"
   width="401.66223"
   xml:space="preserve"
   id="svg2"
   version="1.1"><metadata
     id="metadata8"><rdf:RDF><cc:Work
         rdf:about=""><dc:format>image/svg+xml</dc:format><dc:type
           rdf:resource="http://purl.org/dc/dcmitype/StillImage" /></cc:Work></rdf:RDF></metadata><defs
     id="defs6"><clipPath
       id="clipPath20"
       clipPathUnits="userSpaceOnUse"><path
         id="path18"
         d="M 0,0 H 430 V 640 H 0 Z" /></clipPath><clipPath
       id="clipPath64"
       clipPathUnits="userSpaceOnUse"><path
         id="path62"
         d="M 161.9388,252.2946 H 268.07 v 22.45166 H 161.9388 Z" /></clipPath><clipPath
       id="clipPath86"
       clipPathUnits="userSpaceOnUse"><path
         id="path84"
         d="M 0,0 H 430 V 640 H 0 Z" /></clipPath><clipPath
       id="clipPath120"
       clipPathUnits="userSpaceOnUse"><path
         id="path118"
         d="m 98.39807,405.3084 h 22.16031 v 21.61379 H 98.39807 Z" /></clipPath><clipPath
       id="clipPath136"
       clipPathUnits="userSpaceOnUse"><path
         id="path134"
         d="m 79.93129,326.3872 h 25.16032 v 24.61379 H 79.93129 Z" /></clipPath><clipPath
       id="clipPath148"
       clipPathUnits="userSpaceOnUse"><path
         id="path146"
         d="m 81.43129,327.8872 h 22.16031 v 21.61379 H 81.43129 Z" /></clipPath><clipPath
       id="clipPath164"
       clipPathUnits="userSpaceOnUse"><path
         id="path162"
         d="m 113.8649,326.3872 h 25.16032 v 24.61379 H 113.8649 Z" /></clipPath><clipPath
       id="clipPath176"
       clipPathUnits="userSpaceOnUse"><path
         id="path174"
         d="m 115.3649,327.8872 h 22.16031 v 21.61379 H 115.3649 Z" /></clipPath><clipPath
       id="clipPath192"
       clipPathUnits="userSpaceOnUse"><path
         id="path190"
         d="M 93.76244,351.2238 H 125.194 v 30.73038 H 93.76244 Z" /></clipPath><clipPath
       id="clipPath204"
       clipPathUnits="userSpaceOnUse"><path
         id="path202"
         d="M 95.26244,352.7238 H 123.694 v 27.73038 H 95.26244 Z" /></clipPath><clipPath
       id="clipPath220"
       clipPathUnits="userSpaceOnUse"><path
         id="path218"
         d="m 96.99494,347.1519 h 6.39363 v 8.33851 h -6.39363 z" /></clipPath><clipPath
       id="clipPath232"
       clipPathUnits="userSpaceOnUse"><path
         id="path230"
         d="m 115.5694,347.1506 h 6.39287 v 8.33726 h -6.39287 z" /></clipPath><clipPath
       id="clipPath244"
       clipPathUnits="userSpaceOnUse"><path
         id="path242"
         d="M 0,0 H 430 V 640 H 0 Z" /></clipPath><clipPath
       id="clipPath256"
       clipPathUnits="userSpaceOnUse"><path
         id="path254"
         d="m 98.39807,268.0717 h 22.16031 v 21.61379 H 98.39807 Z" /></clipPath><clipPath
       id="clipPath272"
       clipPathUnits="userSpaceOnUse"><path
         id="path270"
         d="m 294.7779,235.737 h 25.16032 v 24.61379 H 294.7779 Z" /></clipPath><clipPath
       id="clipPath284"
       clipPathUnits="userSpaceOnUse"><path
         id="path282"
         d="m 296.2779,237.237 h 22.16031 v 21.61379 H 296.2779 Z" /></clipPath><clipPath
       id="clipPath300"
       clipPathUnits="userSpaceOnUse"><path
         id="path298"
         d="m 328.7115,235.737 h 25.16032 v 24.61379 H 328.7115 Z" /></clipPath><clipPath
       id="clipPath312"
       clipPathUnits="userSpaceOnUse"><path
         id="path310"
         d="m 330.2115,237.237 h 22.16031 v 21.61379 H 330.2115 Z" /></clipPath><clipPath
       id="clipPath328"
       clipPathUnits="userSpaceOnUse"><path
         id="path326"
         d="m 308.6091,260.5736 h 31.43156 v 30.73038 H 308.6091 Z" /></clipPath><clipPath
       id="clipPath340"
       clipPathUnits="userSpaceOnUse"><path
         id="path338"
         d="m 310.1091,262.0736 h 28.43156 v 27.73038 H 310.1091 Z" /></clipPath><clipPath
       id="clipPath356"
       clipPathUnits="userSpaceOnUse"><path
         id="path354"
         d="m 311.8416,256.5017 h 6.39363 v 8.33851 h -6.39363 z" /></clipPath><clipPath
       id="clipPath368"
       clipPathUnits="userSpaceOnUse"><path
         id="path366"
         d="m 330.4161,256.5004 h 6.39287 v 8.33726 h -6.39287 z" /></clipPath></defs><g
     transform="matrix(1.3333333,0,0,-1.3333333,-102.77097,593.51905)"
     id="g10"><g
       id="g12" /><g
       id="g14"><g
         clip-path="url(#clipPath20)"
         id="g16"><path
           id="path22"
           style="fill:#ffffff;fill-opacity:1;fill-rule:nonzero;stroke:none"
           d="m 77.07823,445.1393 h 64.79997 v -14 H 77.07823 Z" /><g
           transform="translate(77.07823,433.9593)"
           id="g24"><text
             id="text28"
             style="font-variant:normal;font-weight:normal;font-size:12px;font-family:'PT Mono';-inkscape-font-specification:PTMono-Regular;writing-mode:lr-tb;fill:#001080;fill-opacity:1;fill-rule:nonzero;stroke:none"
             transform="scale(1,-1)"><tspan
               id="tspan26"
               y="0"
               x="0 7.1999998 14.4 21.6 28.799999 36 43.200001 50.400002 57.599998">parameter</tspan></text></g><path
           id="path30"
           style="fill:#ffffff;fill-opacity:1;fill-rule:nonzero;stroke:none"
           d="m 80.67823,396.9063 h 57.59997 v -14 H 80.67823 Z" /><g
           transform="translate(80.67823,385.7263)"
           id="g32"><text
             id="text36"
             style="font-variant:normal;font-weight:normal;font-size:12px;font-family:'PT Mono';-inkscape-font-specification:PTMono-Regular;writing-mode:lr-tb;fill:#001080;fill-opacity:1;fill-rule:nonzero;stroke:none"
             transform="scale(1,-1)"><tspan
               id="tspan34"
               y="0"
               x="0 7.1999998 14.4 21.6 28.799999 36 43.200001 50.400002">argument</tspan></text></g><path
           id="path38"
           style="fill:#ffffff;fill-opacity:1;fill-rule:nonzero;stroke:none"
           d="m 95.07823,316.0363 h 28.79997 v -14 H 95.07823 Z" /><g
           transform="translate(95.07823,304.8564)"
           id="g40"><text
             id="text44"
             style="font-variant:normal;font-weight:normal;font-size:12px;font-family:'PT Mono';-inkscape-font-specification:PTMono-Regular;writing-mode:lr-tb;fill:#001080;fill-opacity:1;fill-rule:nonzero;stroke:none"
             transform="scale(1,-1)"><tspan
               id="tspan42"
               y="0"
               x="0 7.1999998 14.4 21.6">body</tspan></text></g><path
           id="path46"
           style="fill:#ffffff;fill-opacity:1;fill-rule:nonzero;stroke:none"
           d="m 270.3249,316.0363 h 108 v -14 h -108 z" /><g
           transform="translate(270.3249,304.8564)"
           id="g48"><text
             id="text52"
             style="font-variant:normal;font-weight:normal;font-size:12px;font-family:'PT Mono';-inkscape-font-specification:PTMono-Regular;writing-mode:lr-tb;fill:#001080;fill-opacity:1;fill-rule:nonzero;stroke:none"
             transform="scale(1,-1)"><tspan
               id="tspan50"
               y="0"
               x="0 7.1999998 14.4 21.6 28.799999 36 43.200001 50.400002 57.599998 64.800003 72 79.199997 86.400002 93.599998 100.8">substitutedBody</tspan></text></g><g
           transform="matrix(1,0,0,-1,163.7176,274.7463)"
           id="g54"><path
             id="path56"
             style="fill:none;stroke:#000000;stroke-width:1.1;stroke-linecap:butt;stroke-linejoin:miter;stroke-miterlimit:4;stroke-dasharray:none;stroke-opacity:1"
             d="m 4.67817,0 h 93.20852 c 1.3728,0 2.19651,0 2.74561,0.2292511 0.7916,0.2881214 1.4152,0.9117009 1.7033,1.7033079 0.2293,0.549122 0.2293,1.372805 0.2293,2.745611 v 13.09532 c 0,1.3728 0,2.19649 -0.2293,2.74561 -0.2881,0.79161 -0.9117,1.41519 -1.7033,1.70331 -0.5491,0.22925 -1.37281,0.22925 -2.74561,0.22925 H 4.67817 c -1.372806,0 -2.196489,0 -2.745611,-0.22925 C 1.140952,21.93429 0.5173725,21.31071 0.2292511,20.5191 0,19.96998 0,19.14629 0,17.77349 V 4.67817 C 0,3.305364 0,2.481681 0.2292511,1.932559 0.5173725,1.140952 1.140952,0.5173725 1.932559,0.2292511 2.481681,0 3.305364,0 4.67817,0 Z" /></g></g></g><g
       id="g58"><g
         clip-path="url(#clipPath64)"
         id="g60"><path
           id="path66"
           style="fill:#ffffff;fill-opacity:1;fill-rule:nonzero;stroke:none"
           d="m 171.8044,270.7466 h 86.4 v -14 h -86.4 z" /><g
           transform="translate(171.8044,259.5666)"
           id="g68"><text
             id="text72"
             style="font-variant:normal;font-weight:normal;font-size:12px;font-family:'PT Mono';-inkscape-font-specification:PTMono-Regular;writing-mode:lr-tb;fill:#795e26;fill-opacity:1;fill-rule:nonzero;stroke:none"
             transform="scale(1,-1)"><tspan
               id="tspan70"
               y="0"
               x="0 7.1999998 14.4 21.6 28.799999 36 43.200001 50.400002 57.599998 64.800003">substitute</tspan></text></g><g
           transform="translate(171.8044,259.5666)"
           id="g74"><text
             id="text78"
             style="font-variant:normal;font-weight:normal;font-size:12px;font-family:'PT Mono';-inkscape-font-specification:PTMono-Regular;writing-mode:lr-tb;fill:#000000;fill-opacity:1;fill-rule:nonzero;stroke:none"
             transform="matrix(1,0,0,-1,72,0)"><tspan
               id="tspan76"
               y="0"
               x="0 7.1999998">()</tspan></text></g></g></g><g
       id="g80"><g
         clip-path="url(#clipPath86)"
         id="g82"><g
           transform="matrix(1,0,0,-1,90.26235,283.4266)"
           id="g88"><path
             id="path90"
             style="fill:none;stroke:#af00db;stroke-width:1;stroke-linecap:butt;stroke-linejoin:miter;stroke-miterlimit:4;stroke-dasharray:none;stroke-opacity:1"
             d="M 0.3746862,0.8954767 C -1.459305,10.50918 3.423002,20.17318 12.27987,24.33827 c 7.97832,3.75194 17.11271,2.18634 21.84517,-4.75419 2.38408,-3.49644 3.035,-8.00387 5.16193,-11.637405 1.80273,-3.079692 4.54405,-5.441909 7.78352,-6.76298 l 0.4908,-0.098758" /></g><path
           id="path92"
           style="fill:#af00db;fill-opacity:1;fill-rule:nonzero;stroke:none"
           d="m 137.9253,279.302 5.2903,4.1246 -6.4739,1.7575 z" /><g
           transform="translate(84.81223,244.0329)"
           id="g94"><text
             id="text98"
             style="font-variant:normal;font-weight:normal;font-size:12px;font-family:'PT Serif';-inkscape-font-specification:PTSerif-Regular;writing-mode:lr-tb;fill:#af00db;fill-opacity:1;fill-rule:nonzero;stroke:none"
             transform="scale(1,-1)"><tspan
               id="tspan96"
               y="0"
               x="0 7.0679998 11.676 17.736 23.82 29.856001 34.464001 39.66 45.720001">Traversal</tspan></text></g><g
           transform="matrix(1,0,0,-1,266.7801,263.6678)"
           id="g100"><path
             id="path102"
             style="fill:none;stroke:#000000;stroke-width:1;stroke-linecap:butt;stroke-linejoin:miter;stroke-miterlimit:4;stroke-dasharray:none;stroke-opacity:1"
             d="m 17.99067,0.0107659 -0.5,9.7871e-4 L 0,0.04598155" /></g><path
           id="path104"
           style="fill:#000000;fill-opacity:1;fill-rule:nonzero;stroke:none"
           d="m 284.2766,260.6561 5.9941,3.0117 -6.0058,2.9883 z" /><g
           transform="matrix(1,0,0,-1,151.2108,262.7337)"
           id="g106"><path
             id="path108"
             style="fill:none;stroke:#000000;stroke-width:1;stroke-linecap:butt;stroke-linejoin:miter;stroke-miterlimit:4;stroke-dasharray:none;stroke-opacity:1"
             d="M 0,0.1824296 12.00677,0" /></g><g
           transform="matrix(1,0,0,-1,98.39807,426.9222)"
           id="g110"><path
             id="path112"
             style="fill:none;stroke:#a31515;stroke-width:1;stroke-linecap:butt;stroke-linejoin:miter;stroke-miterlimit:4;stroke-dasharray:none;stroke-opacity:1"
             d="m 18.91501,3.165267 c 4.32707,4.220355 4.32707,11.062903 0,15.283263 -4.32707,4.22035 -11.342636,4.22035 -15.669707,0 -4.327071,-4.22036 -4.327071,-11.062908 0,-15.283263 4.327071,-4.220356 11.342637,-4.220356 15.669707,0 z" /></g></g></g><g
       id="g114"><g
         clip-path="url(#clipPath120)"
         id="g116"><path
           id="path122"
           style="fill:#ffffff;fill-opacity:1;fill-rule:nonzero;stroke:none"
           d="m 105.8762,422.8395 h 7.2 v -14 h -7.2 z" /><g
           transform="translate(105.8762,411.6595)"
           id="g124"><text
             id="text128"
             style="font-variant:normal;font-weight:normal;font-size:12px;font-family:'PT Mono';-inkscape-font-specification:PTMono-Regular;writing-mode:lr-tb;fill:#a31515;fill-opacity:1;fill-rule:nonzero;stroke:none"
             transform="scale(1,-1)"><tspan
               id="tspan126"
               y="0"
               x="0">y</tspan></text></g></g></g><g
       id="g130"><g
         clip-path="url(#clipPath136)"
         id="g132"><g
           transform="matrix(1,0,0,-1,81.43129,349.501)"
           id="g138"><path
             id="path140"
             style="fill:none;stroke:#008000;stroke-width:1;stroke-linecap:butt;stroke-linejoin:miter;stroke-miterlimit:4;stroke-dasharray:none;stroke-opacity:1"
             d="m 18.91501,3.165267 c 4.32707,4.220355 4.32707,11.062903 0,15.283263 -4.32707,4.22035 -11.342636,4.22035 -15.669707,0 -4.327071,-4.22036 -4.327071,-11.062908 0,-15.283263 4.327071,-4.220356 11.342637,-4.220356 15.669707,0 z" /></g></g></g><g
       id="g142"><g
         clip-path="url(#clipPath148)"
         id="g144"><path
           id="path150"
           style="fill:#ffffff;fill-opacity:1;fill-rule:nonzero;stroke:none"
           d="m 88.90941,345.4183 h 7.2 v -14 h -7.2 z" /><g
           transform="translate(88.90941,334.2383)"
           id="g152"><text
             id="text156"
             style="font-variant:normal;font-weight:normal;font-size:12px;font-family:'PT Mono';-inkscape-font-specification:PTMono-Regular;writing-mode:lr-tb;fill:#008000;fill-opacity:1;fill-rule:nonzero;stroke:none"
             transform="scale(1,-1)"><tspan
               id="tspan154"
               y="0"
               x="0">x</tspan></text></g></g></g><g
       id="g158"><g
         clip-path="url(#clipPath164)"
         id="g160"><g
           transform="matrix(1,0,0,-1,115.3649,349.501)"
           id="g166"><path
             id="path168"
             style="fill:none;stroke:#008000;stroke-width:1;stroke-linecap:butt;stroke-linejoin:miter;stroke-miterlimit:4;stroke-dasharray:none;stroke-opacity:1"
             d="m 18.91501,3.165267 c 4.32707,4.220355 4.32707,11.062903 0,15.283263 -4.32707,4.22035 -11.342636,4.22035 -15.669707,0 -4.327071,-4.22036 -4.327071,-11.062908 0,-15.283263 4.327071,-4.220356 11.342637,-4.220356 15.669707,0 z" /></g></g></g><g
       id="g170"><g
         clip-path="url(#clipPath176)"
         id="g172"><path
           id="path178"
           style="fill:#ffffff;fill-opacity:1;fill-rule:nonzero;stroke:none"
           d="m 122.843,345.4183 h 7.2 v -14 h -7.2 z" /><g
           transform="translate(122.843,334.2383)"
           id="g180"><text
             id="text184"
             style="font-variant:normal;font-weight:normal;font-size:12px;font-family:'PT Mono';-inkscape-font-specification:PTMono-Regular;writing-mode:lr-tb;fill:#008000;fill-opacity:1;fill-rule:nonzero;stroke:none"
             transform="scale(1,-1)"><tspan
               id="tspan182"
               y="0"
               x="0">x</tspan></text></g></g></g><g
       id="g186"><g
         clip-path="url(#clipPath192)"
         id="g188"><g
           transform="matrix(1,0,0,-1,95.26244,380.4542)"
           id="g194"><path
             id="path196"
             style="fill:none;stroke:#008000;stroke-width:1;stroke-linecap:butt;stroke-linejoin:miter;stroke-miterlimit:4;stroke-dasharray:none;stroke-opacity:1"
             d="m 24.26786,4.061019 c 5.5516,5.414693 5.5516,14.193641 0,19.608341 -5.55161,5.41469 -14.552547,5.41469 -20.104154,0 -5.551608,-5.4147 -5.551608,-14.193648 0,-19.608341 5.551607,-5.414692 14.552544,-5.414692 20.104154,0 z" /></g></g></g><g
       id="g198"><g
         clip-path="url(#clipPath204)"
         id="g200"><path
           id="path206"
           style="fill:#ffffff;fill-opacity:1;fill-rule:nonzero;stroke:none"
           d="m 102.2689,373.6527 h 14.4 v -14 h -14.4 z" /><g
           transform="translate(102.2689,362.4727)"
           id="g208"><text
             id="text212"
             style="font-variant:normal;font-weight:normal;font-size:12px;font-family:'PT Mono';-inkscape-font-specification:PTMono-Regular;writing-mode:lr-tb;fill:#008000;fill-opacity:1;fill-rule:nonzero;stroke:none"
             transform="scale(1,-1)"><tspan
               id="tspan210"
               y="0"
               x="0 7.1999998">=&gt;</tspan></text></g></g></g><g
       id="g214"><g
         clip-path="url(#clipPath220)"
         id="g216"><g
           transform="matrix(1,0,0,-1,98.42212,354.2306)"
           id="g222"><path
             id="path224"
             style="fill:none;stroke:#008000;stroke-width:1;stroke-linecap:butt;stroke-linejoin:miter;stroke-miterlimit:4;stroke-dasharray:none;stroke-opacity:1"
             d="M 0,5.818847 3.539253,0" /></g></g></g><g
       id="g226"><g
         clip-path="url(#clipPath232)"
         id="g228"><g
           transform="matrix(1,0,0,-1,116.9966,354.2281)"
           id="g234"><path
             id="path236"
             style="fill:none;stroke:#008000;stroke-width:1;stroke-linecap:butt;stroke-linejoin:miter;stroke-miterlimit:4;stroke-dasharray:none;stroke-opacity:1"
             d="M 3.538496,5.817595 0,0" /></g></g></g><g
       id="g238"><g
         clip-path="url(#clipPath244)"
         id="g240"><g
           transform="matrix(1,0,0,-1,98.39807,289.6855)"
           id="g246"><path
             id="path248"
             style="fill:none;stroke:#a31515;stroke-width:1;stroke-linecap:butt;stroke-linejoin:miter;stroke-miterlimit:4;stroke-dasharray:none;stroke-opacity:1"
             d="m 18.91501,3.165267 c 4.32707,4.220355 4.32707,11.062903 0,15.283263 -4.32707,4.22035 -11.342636,4.22035 -15.669707,0 -4.327071,-4.22036 -4.327071,-11.062908 0,-15.283263 4.327071,-4.220356 11.342637,-4.220356 15.669707,0 z" /></g></g></g><g
       id="g250"><g
         clip-path="url(#clipPath256)"
         id="g252"><path
           id="path258"
           style="fill:#ffffff;fill-opacity:1;fill-rule:nonzero;stroke:none"
           d="m 105.8762,285.6028 h 7.2 v -14 h -7.2 z" /><g
           transform="translate(105.8762,274.4228)"
           id="g260"><text
             id="text264"
             style="font-variant:normal;font-weight:normal;font-size:12px;font-family:'PT Mono';-inkscape-font-specification:PTMono-Regular;writing-mode:lr-tb;fill:#a31515;fill-opacity:1;fill-rule:nonzero;stroke:none"
             transform="scale(1,-1)"><tspan
               id="tspan262"
               y="0"
               x="0">y</tspan></text></g></g></g><g
       id="g266"><g
         clip-path="url(#clipPath272)"
         id="g268"><g
           transform="matrix(1,0,0,-1,296.2779,258.8508)"
           id="g274"><path
             id="path276"
             style="fill:none;stroke:#008000;stroke-width:1;stroke-linecap:butt;stroke-linejoin:miter;stroke-miterlimit:4;stroke-dasharray:none;stroke-opacity:1"
             d="m 18.91501,3.165267 c 4.32707,4.220355 4.32707,11.062903 0,15.283263 -4.32707,4.22035 -11.342636,4.22035 -15.669707,0 -4.327071,-4.22036 -4.327071,-11.062908 0,-15.283263 4.327071,-4.220356 11.342637,-4.220356 15.669707,0 z" /></g></g></g><g
       id="g278"><g
         clip-path="url(#clipPath284)"
         id="g280"><path
           id="path286"
           style="fill:#ffffff;fill-opacity:1;fill-rule:nonzero;stroke:none"
           d="m 303.7561,254.7681 h 7.2 v -14 h -7.2 z" /><g
           transform="translate(303.7561,243.5881)"
           id="g288"><text
             id="text292"
             style="font-variant:normal;font-weight:normal;font-size:12px;font-family:'PT Mono';-inkscape-font-specification:PTMono-Regular;writing-mode:lr-tb;fill:#008000;fill-opacity:1;fill-rule:nonzero;stroke:none"
             transform="scale(1,-1)"><tspan
               id="tspan290"
               y="0"
               x="0">x</tspan></text></g></g></g><g
       id="g294"><g
         clip-path="url(#clipPath300)"
         id="g296"><g
           transform="matrix(1,0,0,-1,330.2115,258.8508)"
           id="g302"><path
             id="path304"
             style="fill:none;stroke:#008000;stroke-width:1;stroke-linecap:butt;stroke-linejoin:miter;stroke-miterlimit:4;stroke-dasharray:none;stroke-opacity:1"
             d="m 18.91501,3.165267 c 4.32707,4.220355 4.32707,11.062903 0,15.283263 -4.32707,4.22035 -11.342636,4.22035 -15.669707,0 -4.327071,-4.22036 -4.327071,-11.062908 0,-15.283263 4.327071,-4.220356 11.342637,-4.220356 15.669707,0 z" /></g></g></g><g
       id="g306"><g
         clip-path="url(#clipPath312)"
         id="g308"><path
           id="path314"
           style="fill:#ffffff;fill-opacity:1;fill-rule:nonzero;stroke:none"
           d="m 337.6896,254.7681 h 7.2 v -14 h -7.2 z" /><g
           transform="translate(337.6896,243.5881)"
           id="g316"><text
             id="text320"
             style="font-variant:normal;font-weight:normal;font-size:12px;font-family:'PT Mono';-inkscape-font-specification:PTMono-Regular;writing-mode:lr-tb;fill:#008000;fill-opacity:1;fill-rule:nonzero;stroke:none"
             transform="scale(1,-1)"><tspan
               id="tspan318"
               y="0"
               x="0">x</tspan></text></g></g></g><g
       id="g322"><g
         clip-path="url(#clipPath328)"
         id="g324"><g
           transform="matrix(1,0,0,-1,310.1091,289.804)"
           id="g330"><path
             id="path332"
             style="fill:none;stroke:#008000;stroke-width:1;stroke-linecap:butt;stroke-linejoin:miter;stroke-miterlimit:4;stroke-dasharray:none;stroke-opacity:1"
             d="m 24.26786,4.061019 c 5.5516,5.414693 5.5516,14.193641 0,19.608341 -5.55161,5.41469 -14.552547,5.41469 -20.104154,0 -5.551608,-5.4147 -5.551608,-14.193648 0,-19.608341 5.551607,-5.414692 14.552544,-5.414692 20.104154,0 z" /></g></g></g><g
       id="g334"><g
         clip-path="url(#clipPath340)"
         id="g336"><path
           id="path342"
           style="fill:#ffffff;fill-opacity:1;fill-rule:nonzero;stroke:none"
           d="m 317.1155,283.0025 h 14.4 v -14 h -14.4 z" /><g
           transform="translate(317.1155,271.8225)"
           id="g344"><text
             id="text348"
             style="font-variant:normal;font-weight:normal;font-size:12px;font-family:'PT Mono';-inkscape-font-specification:PTMono-Regular;writing-mode:lr-tb;fill:#008000;fill-opacity:1;fill-rule:nonzero;stroke:none"
             transform="scale(1,-1)"><tspan
               id="tspan346"
               y="0"
               x="0 7.1999998">=&gt;</tspan></text></g></g></g><g
       id="g350"><g
         clip-path="url(#clipPath356)"
         id="g352"><g
           transform="matrix(1,0,0,-1,313.2688,263.5804)"
           id="g358"><path
             id="path360"
             style="fill:none;stroke:#008000;stroke-width:1;stroke-linecap:butt;stroke-linejoin:miter;stroke-miterlimit:4;stroke-dasharray:none;stroke-opacity:1"
             d="M 0,5.818847 3.539253,0" /></g></g></g><g
       id="g362"><g
         clip-path="url(#clipPath368)"
         id="g364"><g
           transform="matrix(1,0,0,-1,331.8433,263.5779)"
           id="g370"><path
             id="path372"
             style="fill:none;stroke:#008000;stroke-width:1;stroke-linecap:butt;stroke-linejoin:miter;stroke-miterlimit:4;stroke-dasharray:none;stroke-opacity:1"
             d="M 3.538496,5.817595 0,0" /></g></g></g></g></svg>
