<svg xmlns="http://www.w3.org/2000/svg" xmlns:xlink="http://www.w3.org/1999/xlink" version="1.2" viewBox="0 0 305.026 238.402" height="317.869" width="406.701"><defs><symbol id="6_svg__a" overflow="visible"><path d="M1.156-3.906c0-.07-.008-.164-.015-.281 0-.114-.008-.235-.016-.36-.012-.125-.023-.242-.031-.36l-.032-.312H.25V-6h1.594l.125.844h.062c.219-.282.489-.516.813-.703.332-.188.738-.282 1.219-.282.863 0 1.507.235 1.937.704.426.468.64 1.242.64 2.312 0 .512-.074.969-.218 1.375a2.91 2.91 0 01-.625 1.016c-.274.28-.602.5-.984.656A3.588 3.588 0 013.546.14c-.18 0-.336-.008-.469-.016a4.726 4.726 0 01-.36-.047C2.614.055 2.509.031 2.407 0a2.15 2.15 0 01-.328-.125v2.531h-.922zm2.75-1.36c-.242 0-.465.047-.672.141-.21.086-.398.2-.562.344a1.707 1.707 0 00-.406.468 1.34 1.34 0 00-.188.532v2.734c.176.125.375.227.594.297.219.063.508.094.875.094.633 0 1.144-.207 1.531-.625.383-.426.578-1.04.578-1.844 0-.688-.136-1.21-.406-1.578-.273-.375-.719-.563-1.344-.563zm0 0"/></symbol><symbol id="6_svg__b" overflow="visible"><path d="M1.297-5.531a3.842 3.842 0 011.156-.422c.438-.094.863-.14 1.281-.14.407 0 .739.062 1 .187.258.125.461.293.61.5.144.21.242.445.297.703.05.262.078.523.078.781 0 .305-.012.625-.032.969-.011.344-.023.687-.03 1.031 0 .406.023.79.077 1.14h.813V0h-1.61l-.093-.906H4.78a6.095 6.095 0 01-.218.281c-.094.117-.22.23-.375.344-.157.105-.352.199-.579.281-.218.07-.484.11-.796.11-.586 0-1.047-.15-1.391-.454-.344-.3-.516-.719-.516-1.25 0-.406.086-.742.266-1.015.176-.282.43-.489.766-.625.343-.145.75-.227 1.218-.25a7.34 7.34 0 011.61.093c.039-.375.046-.68.015-.921-.031-.25-.101-.442-.203-.579a.782.782 0 00-.406-.312 2.062 2.062 0 00-.672-.094c-.355 0-.7.055-1.031.156-.324.106-.617.204-.875.297zM3.063-.703c.218 0 .421-.031.609-.094.195-.07.367-.164.515-.281.145-.113.266-.234.36-.36a2.21 2.21 0 00.219-.39v-.828a7.05 7.05 0 00-1.157-.11c-.355 0-.664.04-.921.11-.25.074-.45.195-.594.36-.137.155-.203.358-.203.608 0 .274.086.508.265.704.176.187.477.28.906.28zm0 0"/></symbol><symbol id="6_svg__c" overflow="visible"><path d="M.797 0v-.797h1.61v-4.406H.796V-6H3.03l.203.781h.047c.281-.25.586-.46.922-.64.332-.176.734-.266 1.203-.266.27 0 .485.055.64.156.165.106.298.262.391.469.094.2.157.438.188.719.031.281.047.605.047.968l-.844.016c0-.52-.055-.898-.156-1.14a.528.528 0 00-.531-.36c-.25 0-.48.04-.688.11-.2.074-.371.164-.516.265-.148.106-.273.211-.374.313a1.34 1.34 0 00-.22.265v3.547h2.298V0zm0 0"/></symbol><symbol id="6_svg__d" overflow="visible"><path d="M3.14 0v-4a9.71 9.71 0 00-.015-.484 1.393 1.393 0 00-.094-.422.577.577 0 00-.187-.282.503.503 0 00-.328-.109c-.274 0-.5.117-.688.344a2.154 2.154 0 00-.422.828V0H.484v-6h.625l.188.734h.047c.082-.125.16-.238.234-.343.07-.102.156-.196.25-.282.102-.082.223-.144.36-.187.144-.04.32-.063.53-.063.114 0 .235.024.36.063.133.031.254.086.36.156.101.074.195.18.28.313.083.125.134.28.157.468.188-.312.395-.554.625-.734.227-.176.54-.266.938-.266.257 0 .472.047.64.141a.87.87 0 01.375.375c.094.156.156.352.188.578.039.23.062.484.062.766V0h-.906v-4.078c0-.164-.012-.32-.031-.469a1.083 1.083 0 00-.094-.39.667.667 0 00-.172-.266.443.443 0 00-.297-.094.921.921 0 00-.719.344c-.187.219-.328.531-.421.937V0zm0 0"/></symbol><symbol id="6_svg__e" overflow="visible"><path d="M6.344-.75c-.149.125-.32.246-.516.36-.187.105-.402.199-.64.28-.231.087-.47.145-.72.188-.25.04-.507.063-.765.063-.48 0-.902-.075-1.265-.22a2.43 2.43 0 01-.922-.624 2.911 2.911 0 01-.579-1A4.174 4.174 0 01.75-3c0-.5.066-.945.203-1.344.145-.394.348-.722.61-.984.269-.258.593-.457.968-.594a3.496 3.496 0 011.266-.219c.332 0 .66.047.984.141.332.086.625.25.875.5.25.242.442.574.578 1 .133.43.188.98.157 1.656H1.734c0 .719.192 1.258.579 1.61.394.355.914.53 1.562.53.219 0 .43-.023.64-.077.22-.051.423-.11.61-.172.188-.07.352-.149.5-.235.156-.093.27-.175.344-.25zM3.812-5.36c-.261 0-.511.032-.75.094-.23.055-.437.149-.624.282-.18.136-.325.308-.438.515-.117.211-.188.469-.219.782h3.735c-.043-.52-.215-.926-.516-1.22-.305-.3-.7-.452-1.188-.452zm0 0"/></symbol><symbol id="6_svg__f" overflow="visible"><path d="M.375-6h1.422v-1.188l.937-.265V-6h3.204v.797H2.733v2.844c0 .586.141 1.015.422 1.296.29.282.696.422 1.219.422.363 0 .676-.066.938-.203.269-.144.515-.297.734-.453l.312.703c-.28.23-.617.414-1 .547-.386.133-.789.203-1.203.203-.312 0-.617-.047-.906-.14a2.218 2.218 0 01-.75-.422 2.256 2.256 0 01-.516-.735c-.125-.3-.187-.66-.187-1.078v-2.984H.375zm0 0"/></symbol><symbol id="6_svg__g" overflow="visible"><path d="M6.281.297c0 .375-.074.703-.218.984-.137.29-.336.524-.594.703a2.64 2.64 0 01-.875.422c-.336.094-.7.14-1.094.14-.469 0-.883-.054-1.234-.155a3.683 3.683 0 01-.907-.36l.454-.86c.07.063.164.126.28.188.114.063.243.118.391.172.157.051.317.094.485.125a3.62 3.62 0 001.406-.047c.238-.062.426-.164.563-.296.144-.137.25-.313.312-.532.07-.219.11-.484.11-.797v-.671h-.063c-.18.273-.414.48-.703.625C4.3.07 3.93.14 3.484.14c-.918 0-1.59-.25-2.015-.75-.43-.508-.64-1.301-.64-2.375 0-1.032.269-1.805.812-2.329.539-.519 1.347-.78 2.421-.78.5 0 .922.038 1.266.109.352.062.672.148.953.25zM3.61-.656c.489 0 .875-.125 1.157-.375.28-.258.476-.649.593-1.172v-2.844c-.355-.164-.851-.25-1.484-.25-.637 0-1.14.195-1.516.578-.367.375-.546.95-.546 1.719 0 .344.03.664.093.953.063.281.16.527.297.735.145.199.332.359.563.484.226.117.507.172.843.172zm0 0"/></symbol><symbol id="6_svg__h" overflow="visible"><path d="M4.36-6h1.702v4.094c0 .398.02.773.063 1.125h.813V0H5.343l-.047-1.016H5.25a2.59 2.59 0 01-.828.844c-.344.207-.758.313-1.234.313-.376 0-.696-.043-.954-.125a1.272 1.272 0 01-.64-.438c-.168-.207-.293-.484-.375-.828-.074-.352-.11-.79-.11-1.313v-2.64H.297V-6h1.75v3.25c0 .336.008.633.031.89.031.262.086.481.172.657.094.18.223.312.39.406.176.094.41.14.704.14.406 0 .765-.132 1.078-.405a2.48 2.48 0 00.703-1.032v-3.11h-.766zm0 0"/></symbol><symbol id="6_svg__i" overflow="visible"><path d="M1.11-3.906v-.281c0-.114-.008-.235-.016-.36-.012-.125-.024-.242-.032-.36a2.445 2.445 0 00-.046-.312H.219V-6h1.61l.109.969h.046c.082-.133.192-.266.329-.39.132-.134.285-.255.453-.36.175-.114.375-.203.593-.266.22-.062.446-.094.688-.094.363 0 .687.043.969.125.289.075.53.215.718.422.188.2.329.477.422.828.094.344.14.79.14 1.329V0H5.36v-3.266c0-.664-.109-1.164-.328-1.5-.21-.332-.601-.5-1.172-.5-.21 0-.414.043-.609.125a2.5 2.5 0 00-.531.329 2.426 2.426 0 00-.422.484c-.117.18-.2.367-.25.562V0h-.938zm0 0"/></symbol><symbol id="6_svg__j" overflow="visible"><path d="M.031-8.406h1.907v3.094H2c.207-.27.473-.473.797-.61a2.673 2.673 0 011.078-.219c1.758 0 2.64 1.016 2.64 3.047 0 1.031-.288 1.824-.859 2.375-.562.543-1.37.813-2.422.813-.492 0-.937-.047-1.343-.14-.399-.095-.688-.208-.875-.345v-7.203H.03zM3.75-5.344c-.48 0-.871.137-1.172.407-.293.273-.508.656-.64 1.156v2.765c.187.094.406.172.656.235.258.054.531.078.812.078.32 0 .614-.047.875-.14.258-.095.477-.239.657-.438.187-.196.328-.446.421-.75.102-.301.157-.66.157-1.078 0-.301-.032-.586-.094-.86a1.924 1.924 0 00-.313-.703 1.426 1.426 0 00-.546-.484c-.22-.125-.493-.188-.813-.188zm0 0"/></symbol><symbol id="6_svg__k" overflow="visible"><path d="M.688-3c0-.969.25-1.734.75-2.297.507-.562 1.226-.844 2.156-.844.508 0 .945.086 1.312.25.364.157.664.375.907.657.238.28.414.617.53 1 .114.386.173.796.173 1.234 0 .48-.07.918-.204 1.313a2.6 2.6 0 01-.562.984c-.242.273-.543.48-.906.625a3.381 3.381 0 01-1.25.219c-.492 0-.922-.078-1.297-.235a2.513 2.513 0 01-.906-.672 2.646 2.646 0 01-.532-1A4.21 4.21 0 01.688-3zm1 0c0 .281.03.563.093.844.07.281.18.539.328.765.157.22.352.399.594.532.25.136.547.203.89.203.645 0 1.13-.196 1.454-.594.32-.395.484-.977.484-1.75 0-.29-.039-.57-.11-.844a2.034 2.034 0 00-.327-.75 1.75 1.75 0 00-.61-.547c-.242-.132-.539-.203-.89-.203-.637 0-1.117.2-1.438.594-.312.398-.469.98-.469 1.75zm0 0"/></symbol><symbol id="6_svg__l" overflow="visible"><path d="M4.188-8.406h1.937v6.36c0 .073.004.163.016.265.007.105.02.218.03.343.009.118.02.235.032.36.02.117.04.215.063.297h.796V0H5.47l-.11-.922h-.062c-.168.305-.43.559-.781.766A2.399 2.399 0 013.312.14c-.906 0-1.574-.25-2-.75-.43-.508-.64-1.301-.64-2.375 0-.508.07-.957.219-1.344.144-.383.347-.707.609-.969.27-.258.594-.457.969-.594a3.772 3.772 0 011.265-.203c.164 0 .313.008.438.016.133 0 .258.012.375.031.113.012.219.031.312.063.102.03.22.062.344.093v-1.703H4.187zm-.72 7.75c.489 0 .876-.125 1.157-.375.281-.258.473-.64.578-1.14v-2.782a1.786 1.786 0 00-.61-.266 3.928 3.928 0 00-.859-.078c-.648 0-1.152.188-1.515.563-.367.367-.547.949-.547 1.75 0 .324.023.632.078.921.063.282.16.528.297.735.144.21.332.375.562.5.239.117.524.172.86.172zm0 0"/></symbol><symbol id="6_svg__m" overflow="visible"><path d="M3.734-.922h.454L5.671-6h.969L4.984-.61c-.093.282-.187.602-.28.954a3.943 3.943 0 01-.391 1c-.168.312-.399.57-.688.781-.281.219-.652.328-1.11.328-.105 0-.218-.012-.343-.031a2.63 2.63 0 01-.344-.094 1.932 1.932 0 01-.312-.125.54.54 0 01-.204-.14l.329-.86c.05.04.117.078.203.11.082.039.172.078.265.109.102.031.204.055.297.078.102.02.188.031.25.031.594 0 1-.511 1.219-1.531h-.797L.547-6h1.078zm0 0"/></symbol><symbol id="6_svg__n" overflow="visible"><path d="M5.25-1.625a.667.667 0 00-.297-.578c-.2-.145-.45-.258-.75-.344-.293-.082-.617-.16-.969-.234a5.453 5.453 0 01-.953-.281 2.457 2.457 0 01-.75-.485c-.199-.207-.297-.5-.297-.875 0-.3.063-.555.188-.766.133-.218.312-.394.531-.53.219-.145.469-.25.75-.313.29-.07.594-.11.906-.11.563 0 1.04.075 1.438.22.406.136.734.276.984.421l-.39.766a10.389 10.389 0 00-.86-.422c-.312-.133-.699-.203-1.156-.203-.18 0-.355.023-.531.062a1.838 1.838 0 00-.469.156.966.966 0 00-.328.282.716.716 0 00-.125.437c0 .211.098.371.297.484.195.106.441.2.734.282.3.074.625.148.969.219.351.062.676.156.969.28.3.126.55.298.75.516.195.22.296.512.296.875 0 .555-.218 1.012-.656 1.375-.43.356-1.078.532-1.953.532-.262 0-.523-.028-.781-.078a4.936 4.936 0 01-.735-.172 4.372 4.372 0 01-.609-.282 2.302 2.302 0 01-.437-.312l.468-.766c.094.094.22.196.375.297.164.094.344.184.532.266.195.074.406.136.625.187.218.055.441.078.671.078.22 0 .422-.015.61-.046.187-.04.348-.098.484-.172.145-.082.258-.188.344-.313a.802.802 0 00.125-.453zm0 0"/></symbol><symbol id="6_svg__o" overflow="visible"><path d="M1.266 0v-.797h2.078v-4.406H1.266V-6h3.046v5.203h2.032V0zM3.03-7.703c0-.219.067-.406.203-.563a.731.731 0 01.563-.234.79.79 0 01.578.234.767.767 0 01.234.563c0 .21-.078.387-.234.531a.808.808 0 01-.578.219.747.747 0 01-.563-.219.74.74 0 01-.203-.531zm0 0"/></symbol><symbol id="6_svg__p" overflow="visible"><path d="M6.266-6.484c0 .199-.032.402-.094.609-.063.21-.164.406-.297.594-.125.18-.29.336-.484.468-.2.137-.434.243-.704.313v.047c.239.043.47.11.688.203.219.094.41.23.578.406.164.168.3.371.406.61.102.242.157.523.157.843 0 .438-.094.813-.282 1.125-.18.313-.414.575-.703.782a3.09 3.09 0 01-1 .437c-.375.094-.758.14-1.14.14h-.485c-.187 0-.383-.007-.578-.015-.2-.012-.402-.027-.61-.047-.198-.023-.37-.05-.515-.093v-8.266c.29-.05.629-.094 1.016-.125.394-.031.828-.047 1.297-.047.312 0 .629.027.953.078.32.055.613.156.875.313.27.148.488.351.656.609.176.262.266.602.266 1.016zM3.484-.766c.25 0 .493-.03.735-.093.238-.063.453-.157.64-.282.188-.132.332-.296.438-.484.101-.195.156-.426.156-.688 0-.332-.07-.597-.203-.796a1.361 1.361 0 00-.516-.47 1.976 1.976 0 00-.703-.218 5.392 5.392 0 00-.797-.062h-1.03v3c.05.023.128.039.233.046.102.012.211.024.329.032.125 0 .25.008.375.015h.343zm-.671-3.937c.144 0 .312-.004.5-.016.187-.008.347-.02.484-.031.187-.063.363-.14.531-.234a2.53 2.53 0 00.453-.329c.133-.132.239-.28.313-.437.07-.156.11-.332.11-.531 0-.258-.056-.477-.157-.657a1.128 1.128 0 00-.39-.421 1.52 1.52 0 00-.579-.204 3.732 3.732 0 00-.656-.062c-.262 0-.508.008-.735.016a4.013 4.013 0 00-.484.046v2.86zm0 0"/></symbol><symbol id="6_svg__q" overflow="visible"><path d="M5.188 2.547a5.922 5.922 0 01-1.516-.61A4.273 4.273 0 012.453.875a5.027 5.027 0 01-.828-1.563c-.21-.625-.313-1.367-.313-2.234 0-.844.102-1.582.313-2.219.207-.632.488-1.171.844-1.609a4.373 4.373 0 011.234-1.078c.469-.27.961-.461 1.485-.578l.296.765a6.31 6.31 0 00-1.296.532 3.256 3.256 0 00-1.016.875c-.281.367-.5.82-.656 1.359-.157.543-.235 1.195-.235 1.953 0 .781.094 1.45.281 2 .188.543.43.992.735 1.36.312.363.656.644 1.031.843.383.207.77.352 1.156.438zm0 0"/></symbol><symbol id="6_svg__r" overflow="visible"><path d="M1.719 1.719c.383-.086.765-.23 1.14-.438.383-.199.727-.48 1.032-.843.312-.368.562-.817.75-1.36.187-.55.28-1.219.28-2 0-.758-.077-1.41-.234-1.953a3.954 3.954 0 00-.671-1.36A3.3 3.3 0 003-7.108a5.999 5.999 0 00-1.281-.532l.297-.765c.52.117 1.015.308 1.484.578.469.273.875.633 1.219 1.078.351.438.633.977.843 1.61.208.636.313 1.374.313 2.218 0 .867-.105 1.61-.313 2.235A4.721 4.721 0 014.734.875c-.343.438-.75.79-1.218 1.063-.47.269-.97.472-1.5.609zm0 0"/></symbol><symbol id="6_svg__A" overflow="visible"><path d="M3.031-3.078L.72-6h1.203L3.64-3.75 5.42-6H6.5L4.187-3.125 6.642 0H5.5L3.594-2.453 1.64 0H.547zm0 0"/></symbol><symbol id="6_svg__D" overflow="visible"><path d="M.813-5.484H6.39v.859H.812zm0 1.968H6.39v.86H.812zm0 0"/></symbol><symbol id="6_svg__E" overflow="visible"><path d="M1-.39l-.453-.72 4.766-2.78L.546-6.704l.469-.75 5.64 3.437v.36zm0 0"/></symbol><symbol id="6_svg__I" overflow="visible"><path d="M1.016-.797l4.062-4.406H1.016V-6h5.171v.797L2.095-.797h4.094V0H1.016zm0 0"/></symbol><symbol id="6_svg__s" overflow="visible"><path d="M5.406 0H2.031v-.344c.176-.062.352-.117.531-.172.176-.05.368-.093.579-.125v-7.14H1.312l-.64 1.718H.375a10.68 10.68 0 01-.063-.53 8.252 8.252 0 01-.046-.626c-.012-.218-.024-.426-.032-.625v-.562h6.97c0 .168-.009.351-.016.547-.012.199-.024.406-.032.625-.011.21-.023.418-.031.625-.012.199-.031.382-.063.546H6.75L6.125-7.78H4.297v7.14c.207.043.398.086.578.125.176.043.352.102.531.172zm0 0"/></symbol><symbol id="6_svg__t" overflow="visible"><path d="M2.922-5.094c-.086.043-.195.14-.328.297-.125.149-.242.36-.344.64v3.563c.156.024.313.055.469.094.164.043.328.11.484.203V0H.375v-.297C.52-.379.656-.44.781-.484c.125-.04.25-.079.375-.11v-4.703l-.781-.11v-.312c.25-.101.508-.187.781-.25.282-.07.54-.129.782-.172h.312v1.266h.047a2.528 2.528 0 01.75-.906c.176-.125.363-.223.562-.297a1.37 1.37 0 01.641-.063c.05.106.098.22.14.344.051.125.098.258.141.39v.313zm0 0"/></symbol><symbol id="6_svg__u" overflow="visible"><path d="M4.922-1.578v.469c.008.125.02.261.031.406l.828.11v.25c-.199.105-.422.198-.672.28a5.37 5.37 0 01-.687.188h-.313a2.172 2.172 0 01-.14-.61c-.012-.218-.024-.46-.031-.734h-.063a1.597 1.597 0 01-.188.5 1.984 1.984 0 01-.359.438 1.68 1.68 0 01-.515.297c-.2.082-.43.125-.688.125-.492 0-.89-.145-1.203-.438-.305-.3-.453-.691-.453-1.172 0-.363.07-.66.219-.89.144-.239.363-.426.656-.563a3.96 3.96 0 011.062-.297c.426-.062.922-.11 1.485-.14.03-.344.039-.649.03-.922A2.116 2.116 0 003.782-5a.97.97 0 00-.328-.453 1.001 1.001 0 00-.578-.156c-.117 0-.246.007-.39.015a1.495 1.495 0 00-.407.094l-.562 1.438h-.313a7.589 7.589 0 01-.219-.735 5.922 5.922 0 01-.109-.766c.3-.175.64-.316 1.016-.421a4.702 4.702 0 011.234-.157c.414 0 .742.059.984.172.239.117.422.266.547.453.133.18.223.383.266.61.039.218.062.445.062.672 0 .48-.011.945-.03 1.39-.024.438-.032.86-.032 1.266zm-2.313.984c.196 0 .368-.039.516-.125.156-.082.285-.176.39-.281.102-.113.188-.227.25-.344.063-.125.11-.222.141-.297v-1.265c-.469 0-.855.027-1.156.078-.293.043-.523.117-.688.219a.82.82 0 00-.343.39 1.43 1.43 0 00-.094.531c0 .356.082.625.25.813.176.188.422.281.734.281zm0 0"/></symbol><symbol id="6_svg__v" overflow="visible"><path d="M2.86.14L.515-5.405a2.87 2.87 0 01-.641-.282V-6h2.516v.297a3.268 3.268 0 01-.329.172 1.555 1.555 0 01-.359.125l1.39 3.625.25.734h.016l.188-.75 1.281-3.61a2.19 2.19 0 01-.36-.109c-.105-.05-.21-.109-.312-.171V-6h2.047v.313a2.314 2.314 0 01-.297.156 1.833 1.833 0 01-.39.125L3.39 0zm0 0"/></symbol><symbol id="6_svg__w" overflow="visible"><path d="M5.36-.844c-.075.137-.18.266-.313.39a2.576 2.576 0 01-.469.313c-.18.086-.371.149-.578.203-.2.051-.406.079-.625.079-.48 0-.902-.075-1.266-.22a2.315 2.315 0 01-.89-.624 2.85 2.85 0 01-.547-1A4.174 4.174 0 01.484-3c0-1.02.235-1.797.704-2.328.476-.54 1.148-.813 2.015-.813.281 0 .555.04.828.11.27.074.508.199.719.375.219.18.39.414.516.703.132.293.203.656.203 1.094 0 .136-.008.277-.016.421A3.926 3.926 0 015.391-3H1.64c0 .336.039.648.125.938.082.292.207.546.375.765.175.219.39.39.64.516.258.125.563.187.906.187.282 0 .563-.039.844-.125.29-.082.508-.187.657-.312zM3.155-5.609c-.46 0-.808.156-1.047.468-.242.305-.382.84-.421 1.61h2.625c.007-.07.015-.14.015-.203.008-.07.016-.141.016-.204 0-.507-.102-.914-.297-1.218-.188-.301-.484-.453-.89-.453zm0 0"/></symbol><symbol id="6_svg__x" overflow="visible"><path d="M3.547-1.375a.801.801 0 00-.219-.563 2.354 2.354 0 00-.531-.437 9.8 9.8 0 00-.703-.39 5.357 5.357 0 01-.688-.454 2.722 2.722 0 01-.531-.594C.738-4.038.672-4.316.672-4.64c0-.218.047-.414.14-.593a1.61 1.61 0 01.407-.485 1.87 1.87 0 01.578-.312c.226-.07.473-.11.734-.11.438 0 .79.028 1.063.079.281.042.547.105.797.187-.032.262-.07.523-.11.781a6.17 6.17 0 01-.187.797h-.297l-.453-1.219A1.341 1.341 0 003-5.594c-.117-.008-.234-.015-.36-.015a.942.942 0 00-.39.078.873.873 0 00-.266.203.76.76 0 00-.171.266.825.825 0 00-.063.312c0 .219.066.406.203.563.145.156.32.304.531.437.22.125.446.25.688.375.25.125.484.273.703.438.219.156.395.343.531.562.145.21.219.46.219.75 0 .273-.063.516-.188.734a1.707 1.707 0 01-.484.563 2.27 2.27 0 01-.703.344 2.806 2.806 0 01-.844.125c-.344 0-.664-.032-.953-.094a5.015 5.015 0 01-.906-.25c.02-.29.055-.567.11-.828.062-.27.132-.532.218-.782h.297L1.703-.5a.627.627 0 00.313.11h.343c.352 0 .641-.094.86-.282a.888.888 0 00.328-.703zm0 0"/></symbol><symbol id="6_svg__y" overflow="visible"><path d="M3.156 0H.484v-.297a5.38 5.38 0 01.797-.297v-7.593l-.906-.094v-.313c.207-.094.469-.176.781-.25.313-.07.614-.133.907-.187h.296v8.437a4.8 4.8 0 01.797.297zm0 0"/></symbol><clipPath id="6_svg__z"><path d="M79.93 289h25.16v24.613H79.93zm0 0"/></clipPath><clipPath id="6_svg__B"><path d="M113.863 289h25.16v24.613h-25.16zm0 0"/></clipPath><clipPath id="6_svg__C"><path d="M93.762 258.047h31.433v30.73H93.762zm0 0"/></clipPath><clipPath id="6_svg__F"><path d="M96.996 284.508h6.39v8.34h-6.39zm0 0"/></clipPath><clipPath id="6_svg__G"><path d="M115.57 284.512h6.39v8.336h-6.39zm0 0"/></clipPath><clipPath id="6_svg__H"><path d="M79.93 380.273h25.16v24.618H79.93zm0 0"/></clipPath><clipPath id="6_svg__J"><path d="M113.863 380.273h25.16v24.618h-25.16zm0 0"/></clipPath><clipPath id="6_svg__K"><path d="M93.762 349.32h31.433v30.73H93.762zm0 0"/></clipPath><clipPath id="6_svg__L"><path d="M96.996 375.785h6.39v8.34h-6.39zm0 0"/></clipPath><clipPath id="6_svg__M"><path d="M115.57 375.79h6.39v8.335h-6.39zm0 0"/></clipPath></defs><path d="M3.78 0h64.8v14H3.78zm0 0" fill="#fff"/><g fill="#000f7f" transform="translate(-73.298 -194.86)"><use height="100%" width="100%" y="206.041" x="77.078" xlink:href="#6_svg__a"/><use height="100%" width="100%" y="206.041" x="84.278" xlink:href="#6_svg__b"/><use height="100%" width="100%" y="206.041" x="91.478" xlink:href="#6_svg__c"/><use height="100%" width="100%" y="206.041" x="98.678" xlink:href="#6_svg__b"/><use height="100%" width="100%" y="206.041" x="105.878" xlink:href="#6_svg__d"/><use height="100%" width="100%" y="206.041" x="113.078" xlink:href="#6_svg__e"/><use height="100%" width="100%" y="206.041" x="120.278" xlink:href="#6_svg__f"/><use height="100%" width="100%" y="206.041" x="127.478" xlink:href="#6_svg__e"/><use height="100%" width="100%" y="206.041" x="134.678" xlink:href="#6_svg__c"/></g><path d="M7.381 48.234H64.98v14H7.38zm0 0" fill="#fff"/><g fill="#000f7f" transform="translate(-73.298 -194.86)"><use height="100%" width="100%" y="254.274" x="80.678" xlink:href="#6_svg__b"/><use height="100%" width="100%" y="254.274" x="87.878" xlink:href="#6_svg__c"/><use height="100%" width="100%" y="254.274" x="95.078" xlink:href="#6_svg__g"/><use height="100%" width="100%" y="254.274" x="102.278" xlink:href="#6_svg__h"/><use height="100%" width="100%" y="254.274" x="109.478" xlink:href="#6_svg__d"/><use height="100%" width="100%" y="254.274" x="116.678" xlink:href="#6_svg__e"/><use height="100%" width="100%" y="254.274" x="123.878" xlink:href="#6_svg__i"/><use height="100%" width="100%" y="254.274" x="131.078" xlink:href="#6_svg__f"/></g><path d="M21.78 129.105h28.8v14h-28.8zm0 0" fill="#fff"/><g fill="#000f7f" transform="translate(-73.298 -194.86)"><use height="100%" width="100%" y="335.144" x="95.078" xlink:href="#6_svg__j"/><use height="100%" width="100%" y="335.144" x="102.278" xlink:href="#6_svg__k"/><use height="100%" width="100%" y="335.144" x="109.478" xlink:href="#6_svg__l"/><use height="100%" width="100%" y="335.144" x="116.678" xlink:href="#6_svg__m"/></g><path d="M197.026 129.105h108v14h-108zm0 0" fill="#fff"/><g fill="#000f7f" transform="translate(-73.298 -194.86)"><use height="100%" width="100%" y="335.144" x="270.325" xlink:href="#6_svg__n"/><use height="100%" width="100%" y="335.144" x="277.525" xlink:href="#6_svg__h"/><use height="100%" width="100%" y="335.144" x="284.725" xlink:href="#6_svg__j"/><use height="100%" width="100%" y="335.144" x="291.925" xlink:href="#6_svg__n"/><use height="100%" width="100%" y="335.144" x="299.125" xlink:href="#6_svg__f"/><use height="100%" width="100%" y="335.144" x="306.325" xlink:href="#6_svg__o"/><use height="100%" width="100%" y="335.144" x="313.525" xlink:href="#6_svg__f"/><use height="100%" width="100%" y="335.144" x="320.725" xlink:href="#6_svg__h"/><use height="100%" width="100%" y="335.144" x="327.925" xlink:href="#6_svg__f"/><use height="100%" width="100%" y="335.144" x="335.125" xlink:href="#6_svg__e"/><use height="100%" width="100%" y="335.144" x="342.325" xlink:href="#6_svg__l"/><use height="100%" width="100%" y="335.144" x="349.525" xlink:href="#6_svg__p"/><use height="100%" width="100%" y="335.144" x="356.725" xlink:href="#6_svg__k"/><use height="100%" width="100%" y="335.144" x="363.925" xlink:href="#6_svg__l"/><use height="100%" width="100%" y="335.144" x="371.125" xlink:href="#6_svg__m"/></g><path d="M95.096 170.395h93.211c1.371 0 2.195 0 2.746.23.79.285 1.414.91 1.703 1.703.227.547.227 1.371.227 2.746v13.094c0 1.371 0 2.195-.227 2.746a2.867 2.867 0 01-1.703 1.703c-.55.23-1.375.23-2.746.23h-93.21c-1.372 0-2.196 0-2.747-.23a2.867 2.867 0 01-1.703-1.703c-.227-.55-.227-1.375-.227-2.746v-13.094c0-1.375 0-2.199.227-2.746a2.847 2.847 0 011.703-1.703c.55-.23 1.375-.23 2.746-.23zm0 0" fill="none" stroke="#000" stroke-width="1.1"/><path d="M98.506 174.395h86.399v14H98.506zm0 0" fill="#fff"/><g fill="#785c23" transform="translate(-73.298 -194.86)"><use height="100%" width="100%" y="380.433" x="171.804" xlink:href="#6_svg__n"/><use height="100%" width="100%" y="380.433" x="179.004" xlink:href="#6_svg__h"/><use height="100%" width="100%" y="380.433" x="186.204" xlink:href="#6_svg__j"/><use height="100%" width="100%" y="380.433" x="193.404" xlink:href="#6_svg__n"/><use height="100%" width="100%" y="380.433" x="200.604" xlink:href="#6_svg__f"/><use height="100%" width="100%" y="380.433" x="207.804" xlink:href="#6_svg__o"/><use height="100%" width="100%" y="380.433" x="215.004" xlink:href="#6_svg__f"/><use height="100%" width="100%" y="380.433" x="222.204" xlink:href="#6_svg__h"/><use height="100%" width="100%" y="380.433" x="229.404" xlink:href="#6_svg__f"/><use height="100%" width="100%" y="380.433" x="236.604" xlink:href="#6_svg__e"/></g><g transform="translate(-73.298 -194.86)"><use height="100%" width="100%" y="380.433" x="243.804" xlink:href="#6_svg__q"/><use height="100%" width="100%" y="380.433" x="251.004" xlink:href="#6_svg__r"/></g><use height="100%" width="100%" y="431.967" x="84.812" xlink:href="#6_svg__s" fill="#ae00d9" transform="translate(-73.298 -194.86)"/><g fill="#ae00d9" transform="translate(-73.298 -194.86)"><use height="100%" width="100%" y="431.967" x="91.88" xlink:href="#6_svg__t"/><use height="100%" width="100%" y="431.967" x="96.488" xlink:href="#6_svg__u"/><use height="100%" width="100%" y="431.967" x="102.548" xlink:href="#6_svg__v"/><use height="100%" width="100%" y="431.967" x="108.632" xlink:href="#6_svg__w"/><use height="100%" width="100%" y="431.967" x="114.668" xlink:href="#6_svg__t"/><use height="100%" width="100%" y="431.967" x="119.276" xlink:href="#6_svg__x"/><use height="100%" width="100%" y="431.967" x="124.472" xlink:href="#6_svg__u"/><use height="100%" width="100%" y="431.967" x="130.532" xlink:href="#6_svg__y"/></g><path d="M211.471 181.484h-.5l-17.488.036" fill="none" stroke="#000"/><path d="M210.979 184.484l5.992-3.011-6.004-2.989zm0 0"/><path d="M77.913 182.59l12.007-.184" fill="none" stroke="#000"/><path d="M44.014 21.383a10.62 10.62 0 010 15.285c-4.328 4.219-11.344 4.219-15.668 0a10.62 10.62 0 010-15.285c4.324-4.219 11.34-4.219 15.668 0zm0 0" fill="none" stroke="#a11414"/><path d="M32.577 22.3h7.203v14h-7.203zm0 0" fill="#fff"/><use height="100%" width="100%" y="228.34" x="105.876" xlink:href="#6_svg__m" fill="#a11414" transform="translate(-73.298 -194.86)"/><g clip-path="url(#6_svg__z)" transform="translate(-73.298 -194.86)"><path d="M100.348 293.664a10.627 10.627 0 010 15.285c-4.328 4.219-11.344 4.219-15.672 0a10.62 10.62 0 010-15.285c4.328-4.219 11.344-4.219 15.672 0zm0 0" fill="none" stroke="#007f00"/></g><path d="M15.612 99.723h7.199v14h-7.2zm0 0" fill="#fff"/><use height="100%" width="100%" y="305.762" x="88.909" xlink:href="#6_svg__A" fill="#007f00" transform="translate(-73.298 -194.86)"/><g clip-path="url(#6_svg__B)" transform="translate(-73.298 -194.86)"><path d="M134.281 293.664a10.627 10.627 0 010 15.285c-4.328 4.219-11.344 4.219-15.672 0a10.62 10.62 0 010-15.285c4.329-4.219 11.344-4.219 15.672 0zm0 0" fill="none" stroke="#007f00"/></g><path d="M49.545 99.723h7.2v14h-7.2zm0 0" fill="#fff"/><use height="100%" width="100%" y="305.762" x="122.843" xlink:href="#6_svg__A" fill="#007f00" transform="translate(-73.298 -194.86)"/><g clip-path="url(#6_svg__C)" transform="translate(-73.298 -194.86)"><path d="M119.531 263.605c5.551 5.418 5.551 14.196 0 19.61-5.55 5.414-14.554 5.414-20.105 0s-5.551-14.192 0-19.61c5.55-5.414 14.554-5.414 20.105 0zm0 0" fill="none" stroke="#007f00"/></g><path d="M28.971 71.488H43.37v14H28.97zm0 0" fill="#fff"/><g fill="#007f00" transform="translate(-73.298 -194.86)"><use height="100%" width="100%" y="277.527" x="102.269" xlink:href="#6_svg__D"/><use height="100%" width="100%" y="277.527" x="109.469" xlink:href="#6_svg__E"/></g><g clip-path="url(#6_svg__F)" transform="translate(-73.298 -194.86)"><path d="M98.422 291.59l3.539-5.82" fill="none" stroke="#007f00"/></g><g clip-path="url(#6_svg__G)" transform="translate(-73.298 -194.86)"><path d="M120.535 291.59l-3.539-5.817" fill="none" stroke="#007f00"/></g><path d="M260.893 219.457a10.615 10.615 0 010 15.281c-4.324 4.219-11.34 4.219-15.668 0a10.615 10.615 0 010-15.281c4.328-4.223 11.344-4.223 15.668 0zm0 0" fill="none" stroke="#007f00"/><path d="M249.46 220.371h7.199v14h-7.2zm0 0" fill="#fff"/><use height="100%" width="100%" y="426.412" x="322.756" xlink:href="#6_svg__A" fill="#007f00" transform="translate(-73.298 -194.86)"/><path d="M294.827 219.457a10.615 10.615 0 010 15.281c-4.325 4.219-11.34 4.219-15.668 0a10.615 10.615 0 010-15.281c4.328-4.223 11.343-4.223 15.668 0zm0 0" fill="none" stroke="#007f00"/><path d="M283.393 220.371h7.2v14h-7.2zm0 0" fill="#fff"/><use height="100%" width="100%" y="426.412" x="356.69" xlink:href="#6_svg__A" fill="#007f00" transform="translate(-73.298 -194.86)"/><path d="M280.08 189.398c5.551 5.414 5.551 14.192 0 19.61-5.554 5.414-14.554 5.414-20.105 0-5.55-5.418-5.55-14.196 0-19.61s14.55-5.414 20.106 0zm0 0" fill="none" stroke="#007f00"/><path d="M262.819 192.137h14.398v14H262.82zm0 0" fill="#fff"/><g fill="#007f00" transform="translate(-73.298 -194.86)"><use height="100%" width="100%" y="398.177" x="336.116" xlink:href="#6_svg__D"/><use height="100%" width="100%" y="398.177" x="343.315" xlink:href="#6_svg__E"/></g><path d="M258.971 217.379l3.54-5.82M281.084 217.379l-3.539-5.817" fill="none" stroke="#007f00"/><g clip-path="url(#6_svg__H)" transform="translate(-73.298 -194.86)"><path d="M100.348 384.941a10.622 10.622 0 010 15.282c-4.328 4.222-11.344 4.222-15.672 0a10.615 10.615 0 010-15.282c4.328-4.222 11.344-4.222 15.672 0zm0 0" fill="none" stroke="#000"/></g><path d="M15.612 191h7.199v14h-7.2zm0 0" fill="#fff"/><use height="100%" width="100%" y="397.038" x="88.909" xlink:href="#6_svg__I" transform="translate(-73.298 -194.86)"/><g clip-path="url(#6_svg__J)" transform="translate(-73.298 -194.86)"><path d="M134.281 384.941a10.622 10.622 0 010 15.282c-4.328 4.222-11.344 4.222-15.672 0a10.615 10.615 0 010-15.282c4.329-4.222 11.344-4.222 15.672 0zm0 0" fill="none" stroke="#a11414"/></g><path d="M49.545 191h7.2v14h-7.2zm0 0" fill="#fff"/><use height="100%" width="100%" y="397.038" x="122.843" xlink:href="#6_svg__m" fill="#a11414" transform="translate(-73.298 -194.86)"/><g clip-path="url(#6_svg__K)" transform="translate(-73.298 -194.86)"><path d="M119.531 354.883a13.627 13.627 0 010 19.61c-5.55 5.413-14.554 5.413-20.105 0a13.627 13.627 0 010-19.61c5.55-5.414 14.554-5.414 20.105 0zm0 0" fill="none" stroke="#000"/></g><path d="M28.971 162.766H43.37v14H28.97zm0 0" fill="#fff"/><g transform="translate(-73.298 -194.86)"><use height="100%" width="100%" y="368.803" x="102.269" xlink:href="#6_svg__D"/><use height="100%" width="100%" y="368.803" x="109.469" xlink:href="#6_svg__E"/></g><g clip-path="url(#6_svg__L)" transform="translate(-73.298 -194.86)"><path d="M98.422 382.863l3.539-5.816" fill="none" stroke="#000"/></g><g clip-path="url(#6_svg__M)" transform="translate(-73.298 -194.86)"><path d="M120.535 382.867l-3.539-5.82" fill="none" stroke="#000"/></g><path d="M14.385 158.809a81.176 81.176 0 00-8.324 13.46C2.123 180.29-.47 189.083.846 197.919c.961 6.43 4.008 12.387 8.824 16.75 4.91 4.45 11.914 6.422 16.45 2.27 4.07-3.727 4.503-12.223 10.652-11.618 5.547.543 5.105 7.848 7.371 12.715 2.953 6.352 10.836 8.352 17.645 5.692 5.445-2.13 9.464-6.774 11.175-12.372 1.52-4.976 1.11-10.316-.89-15.12-2.399-5.758-6.914-10.34-9.637-15.946-1.934-3.977-2.914-8.453-1.762-12.719a13.892 13.892 0 015.492-7.797l.461-.191" fill="none" stroke="#ae00d9"/><path d="M67.307 162.547l4.41-5.055-6.691-.496zm0 0" fill="#ae00d9"/><path d="M241.893 189.074a10.615 10.615 0 010 15.281c-4.324 4.223-11.34 4.223-15.668 0a10.615 10.615 0 010-15.28c4.328-4.223 11.344-4.223 15.668 0zm0 0" fill="none" stroke="#000"/><path d="M230.46 189.992h7.199v14h-7.2zm0 0" fill="#fff"/><use height="100%" width="100%" y="396.03" x="303.756" xlink:href="#6_svg__I" transform="translate(-73.298 -194.86)"/><path d="M261.08 159.016a13.627 13.627 0 010 19.609c-5.554 5.414-14.554 5.414-20.105 0a13.627 13.627 0 010-19.61c5.55-5.413 14.55-5.413 20.106 0zm0 0" fill="none" stroke="#000"/><path d="M243.819 161.758h14.398v14H243.82zm0 0" fill="#fff"/><g transform="translate(-73.298 -194.86)"><use height="100%" width="100%" y="367.796" x="317.116" xlink:href="#6_svg__D"/><use height="100%" width="100%" y="367.796" x="324.315" xlink:href="#6_svg__E"/></g><path d="M239.971 186.996l3.54-5.816M262.35 186.93l-3.648-5.84" fill="none" stroke="#000"/></svg>