<svg xmlns="http://www.w3.org/2000/svg" height="316.334" width="406.701"><defs><clipPath id="7_svg__a" clipPathUnits="userSpaceOnUse"><path d="M0 0h430v640H0z"/></clipPath><clipPath id="7_svg__b" clipPathUnits="userSpaceOnUse"><path d="M161.939 252.295H268.07v22.451H161.939z"/></clipPath><clipPath id="7_svg__c" clipPathUnits="userSpaceOnUse"><path d="M0 0h430v640H0z"/></clipPath><clipPath id="7_svg__d" clipPathUnits="userSpaceOnUse"><path d="M98.398 405.308h22.16v21.614h-22.16z"/></clipPath><clipPath id="7_svg__e" clipPathUnits="userSpaceOnUse"><path d="M79.931 326.387h25.16v24.614h-25.16z"/></clipPath><clipPath id="7_svg__f" clipPathUnits="userSpaceOnUse"><path d="M81.431 327.887h22.16v21.614h-22.16z"/></clipPath><clipPath id="7_svg__g" clipPathUnits="userSpaceOnUse"><path d="M113.865 326.387h25.16v24.614h-25.16z"/></clipPath><clipPath id="7_svg__h" clipPathUnits="userSpaceOnUse"><path d="M115.365 327.887h22.16v21.614h-22.16z"/></clipPath><clipPath id="7_svg__i" clipPathUnits="userSpaceOnUse"><path d="M93.762 351.224h31.432v30.73H93.762z"/></clipPath><clipPath id="7_svg__j" clipPathUnits="userSpaceOnUse"><path d="M95.262 352.724h28.432v27.73H95.262z"/></clipPath><clipPath id="7_svg__k" clipPathUnits="userSpaceOnUse"><path d="M96.995 347.152h6.394v8.338h-6.394z"/></clipPath><clipPath id="7_svg__l" clipPathUnits="userSpaceOnUse"><path d="M115.57 347.15h6.392v8.338h-6.393z"/></clipPath><clipPath id="7_svg__m" clipPathUnits="userSpaceOnUse"><path d="M79.931 235.111h25.16v24.614h-25.16z"/></clipPath><clipPath id="7_svg__n" clipPathUnits="userSpaceOnUse"><path d="M81.431 236.611h22.16v21.614h-22.16z"/></clipPath><clipPath id="7_svg__o" clipPathUnits="userSpaceOnUse"><path d="M113.865 235.111h25.16v24.614h-25.16z"/></clipPath><clipPath id="7_svg__p" clipPathUnits="userSpaceOnUse"><path d="M115.365 236.611h22.16v21.614h-22.16z"/></clipPath><clipPath id="7_svg__q" clipPathUnits="userSpaceOnUse"><path d="M93.762 259.948h31.432v30.73H93.762z"/></clipPath><clipPath id="7_svg__r" clipPathUnits="userSpaceOnUse"><path d="M95.262 261.448h28.432v27.73H95.262z"/></clipPath><clipPath id="7_svg__s" clipPathUnits="userSpaceOnUse"><path d="M96.995 255.876h6.394v8.339h-6.394z"/></clipPath><clipPath id="7_svg__t" clipPathUnits="userSpaceOnUse"><path d="M115.57 255.875h6.392v8.337h-6.393z"/></clipPath><clipPath id="7_svg__u" clipPathUnits="userSpaceOnUse"><path d="M0 0h430v640H0z"/></clipPath><clipPath id="7_svg__v" clipPathUnits="userSpaceOnUse"><path d="M294.778 235.111h25.16v24.614h-25.16z"/></clipPath><clipPath id="7_svg__w" clipPathUnits="userSpaceOnUse"><path d="M296.278 236.611h22.16v21.614h-22.16z"/></clipPath><clipPath id="7_svg__x" clipPathUnits="userSpaceOnUse"><path d="M328.712 235.111h25.16v24.614h-25.16z"/></clipPath><clipPath id="7_svg__y" clipPathUnits="userSpaceOnUse"><path d="M330.212 236.611h22.16v21.614h-22.16z"/></clipPath><clipPath id="7_svg__z" clipPathUnits="userSpaceOnUse"><path d="M308.61 259.948h31.43v30.73h-31.43z"/></clipPath><clipPath id="7_svg__A" clipPathUnits="userSpaceOnUse"><path d="M310.11 261.448h28.43v27.73h-28.43z"/></clipPath><clipPath id="7_svg__B" clipPathUnits="userSpaceOnUse"><path d="M311.842 255.876h6.393v8.339h-6.393z"/></clipPath><clipPath id="7_svg__C" clipPathUnits="userSpaceOnUse"><path d="M330.416 255.875h6.393v8.337h-6.393z"/></clipPath></defs><g clip-path="url(#7_svg__a)" transform="matrix(1.33333 0 0 -1.33333 -97.732 593.52)"><path d="M77.078 445.14h64.8v-14h-64.8z" fill="#fff"/><text style="-inkscape-font-specification:PTMono-Regular" transform="matrix(1 0 0 -1 77.078 433.96)" font-weight="400" font-size="12" font-family="PT Mono" fill="#001080"><tspan y="0" x="0 7.1999998 14.4 21.6 28.799999 36 43.200001 50.400002 57.599998">parameter</tspan></text><path d="M80.678 396.906h57.6v-14h-57.6z" fill="#fff"/><text style="-inkscape-font-specification:PTMono-Regular" transform="matrix(1 0 0 -1 80.678 385.726)" font-weight="400" font-size="12" font-family="PT Mono" fill="#001080"><tspan y="0" x="0 7.1999998 14.4 21.6 28.799999 36 43.200001 50.400002">argument</tspan></text><path d="M95.078 316.036h28.8v-14h-28.8z" fill="#fff"/><text style="-inkscape-font-specification:PTMono-Regular" transform="matrix(1 0 0 -1 95.078 304.856)" font-weight="400" font-size="12" font-family="PT Mono" fill="#001080"><tspan y="0" x="0 7.1999998 14.4 21.6">body</tspan></text><path d="M270.325 316.036h108v-14h-108z" fill="#fff"/><text style="-inkscape-font-specification:PTMono-Regular" transform="matrix(1 0 0 -1 270.325 304.856)" font-weight="400" font-size="12" font-family="PT Mono" fill="#001080"><tspan y="0" x="0 7.1999998 14.4 21.6 28.799999 36 43.200001 50.400002 57.599998 64.800003 72 79.199997 86.400002 93.599998 100.8">substitutedBody</tspan></text><path d="M168.396 274.746h93.208c1.373 0 2.197 0 2.746-.229a2.85 2.85 0 001.703-1.703c.23-.55.23-1.373.23-2.746v-13.095c0-1.373 0-2.197-.23-2.746a2.85 2.85 0 00-1.703-1.703c-.55-.23-1.373-.23-2.746-.23h-93.208c-1.373 0-2.197 0-2.746.23a2.85 2.85 0 00-1.703 1.703c-.23.55-.23 1.373-.23 2.746v13.095c0 1.373 0 2.197.23 2.746a2.85 2.85 0 001.703 1.703c.55.23 1.373.23 2.746.23z" fill="none" stroke="#000" stroke-width="1.1"/></g><g clip-path="url(#7_svg__b)" transform="matrix(1.33333 0 0 -1.33333 -97.732 593.52)"><path d="M171.804 270.747h86.4v-14h-86.4z" fill="#fff"/><text style="-inkscape-font-specification:PTMono-Regular" transform="matrix(1 0 0 -1 171.804 259.567)" font-weight="400" font-size="12" font-family="PT Mono" fill="#795e26"><tspan y="0" x="0 7.1999998 14.4 21.6 28.799999 36 43.200001 50.400002 57.599998 64.800003">substitute</tspan></text><text style="-inkscape-font-specification:PTMono-Regular" transform="matrix(1 0 0 -1 243.804 259.567)" font-weight="400" font-size="12" font-family="PT Mono"><tspan y="0" x="0 7.1999998">()</tspan></text></g><g clip-path="url(#7_svg__c)" transform="matrix(1.33333 0 0 -1.33333 -97.732 593.52)"><text style="-inkscape-font-specification:PTSerif-Regular" transform="matrix(1 0 0 -1 84.812 208.033)" font-weight="400" font-size="12" font-family="PT Serif" fill="#af00db"><tspan y="0" x="0 7.0679998 11.676 17.736 23.82 29.856001 34.464001 39.66 45.720001">Traversal</tspan></text><path d="M284.77 263.657h-.5l-17.49-.035" fill="none" stroke="#000"/><path d="M284.277 260.656l5.994 3.012-6.006 2.988z"/><path d="M151.21 262.551l12.008.183" fill="none" stroke="#000"/><path d="M117.313 423.757a10.62 10.62 0 000-15.283c-4.327-4.22-11.343-4.22-15.67 0a10.62 10.62 0 000 15.283c4.327 4.22 11.343 4.22 15.67 0z" fill="none" stroke="#a31515"/></g><g clip-path="url(#7_svg__d)" transform="matrix(1.33333 0 0 -1.33333 -97.732 593.52)"><path d="M105.876 422.84h7.2v-14h-7.2z" fill="#fff"/><text style="-inkscape-font-specification:PTMono-Regular" transform="matrix(1 0 0 -1 105.876 411.66)" font-weight="400" font-size="12" font-family="PT Mono" fill="#a31515"><tspan y="0" x="0">z</tspan></text></g><g clip-path="url(#7_svg__e)" transform="matrix(1.33333 0 0 -1.33333 -97.732 593.52)"><path d="M100.346 346.336a10.62 10.62 0 000-15.284c-4.327-4.22-11.342-4.22-15.67 0a10.62 10.62 0 000 15.284c4.328 4.22 11.343 4.22 15.67 0z" fill="none" stroke="green"/></g><g clip-path="url(#7_svg__f)" transform="matrix(1.33333 0 0 -1.33333 -97.732 593.52)"><path d="M88.91 345.418h7.2v-14h-7.2z" fill="#fff"/><text style="-inkscape-font-specification:PTMono-Regular" transform="matrix(1 0 0 -1 88.91 334.238)" font-weight="400" font-size="12" font-family="PT Mono" fill="green"><tspan y="0" x="0">y</tspan></text></g><g clip-path="url(#7_svg__g)" transform="matrix(1.33333 0 0 -1.33333 -97.732 593.52)"><path d="M134.28 346.336a10.62 10.62 0 000-15.284c-4.327-4.22-11.343-4.22-15.67 0a10.62 10.62 0 000 15.284c4.327 4.22 11.343 4.22 15.67 0z" fill="none" stroke="green"/></g><g clip-path="url(#7_svg__h)" transform="matrix(1.33333 0 0 -1.33333 -97.732 593.52)"><path d="M122.843 345.418h7.2v-14h-7.2z" fill="#fff"/><text style="-inkscape-font-specification:PTMono-Regular" transform="matrix(1 0 0 -1 122.843 334.238)" font-weight="400" font-size="12" font-family="PT Mono" fill="green"><tspan y="0" x="0">y</tspan></text></g><g clip-path="url(#7_svg__i)" transform="matrix(1.33333 0 0 -1.33333 -97.732 593.52)"><path d="M119.53 376.393a13.625 13.625 0 000-19.608c-5.551-5.415-14.552-5.415-20.104 0a13.625 13.625 0 000 19.608c5.552 5.415 14.553 5.415 20.104 0z" fill="none" stroke="green"/></g><g clip-path="url(#7_svg__j)" transform="matrix(1.33333 0 0 -1.33333 -97.732 593.52)"><path d="M102.269 373.653h14.4v-14h-14.4z" fill="#fff"/><text style="-inkscape-font-specification:PTMono-Regular" transform="matrix(1 0 0 -1 102.269 362.473)" font-weight="400" font-size="12" font-family="PT Mono" fill="green"><tspan y="0" x="0 7.1999998">=&gt;</tspan></text></g><g clip-path="url(#7_svg__k)" transform="matrix(1.33333 0 0 -1.33333 -97.732 593.52)"><path d="M98.422 348.412l3.54 5.819" fill="none" stroke="green"/></g><g clip-path="url(#7_svg__l)" transform="matrix(1.33333 0 0 -1.33333 -97.732 593.52)"><path d="M120.535 348.41l-3.538 5.818" fill="none" stroke="green"/></g><g clip-path="url(#7_svg__m)" transform="matrix(1.33333 0 0 -1.33333 -97.732 593.52)"><path d="M100.346 255.06a10.62 10.62 0 000-15.283c-4.327-4.22-11.342-4.22-15.67 0a10.62 10.62 0 000 15.283c4.328 4.22 11.343 4.22 15.67 0z" fill="none" stroke="#000"/></g><g clip-path="url(#7_svg__n)" transform="matrix(1.33333 0 0 -1.33333 -97.732 593.52)"><path d="M88.91 254.142h7.2v-14h-7.2z" fill="#fff"/><text style="-inkscape-font-specification:PTMono-Regular" transform="matrix(1 0 0 -1 88.91 242.962)" font-weight="400" font-size="12" font-family="PT Mono"><tspan y="0" x="0">x</tspan></text></g><g clip-path="url(#7_svg__o)" transform="matrix(1.33333 0 0 -1.33333 -97.732 593.52)"><path d="M134.28 255.06a10.62 10.62 0 000-15.283c-4.327-4.22-11.343-4.22-15.67 0a10.62 10.62 0 000 15.283c4.327 4.22 11.343 4.22 15.67 0z" fill="none" stroke="#000"/></g><g clip-path="url(#7_svg__p)" transform="matrix(1.33333 0 0 -1.33333 -97.732 593.52)"><path d="M122.843 254.142h7.2v-14h-7.2z" fill="#fff"/><text style="-inkscape-font-specification:PTMono-Regular" transform="matrix(1 0 0 -1 122.843 242.962)" font-weight="400" font-size="12" font-family="PT Mono"><tspan y="0" x="0">x</tspan></text></g><g clip-path="url(#7_svg__q)" transform="matrix(1.33333 0 0 -1.33333 -97.732 593.52)"><path d="M119.53 285.117a13.625 13.625 0 000-19.608c-5.551-5.415-14.552-5.415-20.104 0a13.625 13.625 0 000 19.608c5.552 5.415 14.553 5.415 20.104 0z" fill="none" stroke="#000"/></g><g clip-path="url(#7_svg__r)" transform="matrix(1.33333 0 0 -1.33333 -97.732 593.52)"><path d="M102.269 282.377h14.4v-14h-14.4z" fill="#fff"/><text style="-inkscape-font-specification:PTMono-Regular" transform="matrix(1 0 0 -1 102.269 271.197)" font-weight="400" font-size="12" font-family="PT Mono"><tspan y="0" x="0 7.1999998">=&gt;</tspan></text></g><g clip-path="url(#7_svg__s)" transform="matrix(1.33333 0 0 -1.33333 -97.732 593.52)"><path d="M98.422 257.136l3.54 5.819" fill="none" stroke="#000"/></g><g clip-path="url(#7_svg__t)" transform="matrix(1.33333 0 0 -1.33333 -97.732 593.52)"><path d="M120.535 257.135l-3.538 5.817" fill="none" stroke="#000"/></g><g clip-path="url(#7_svg__u)" transform="matrix(1.33333 0 0 -1.33333 -97.732 593.52)"><path d="M87.683 286.33a81.136 81.136 0 01-8.325-13.46c-3.934-8.018-6.53-16.811-5.212-25.648.959-6.43 4.007-12.384 8.823-16.748 4.911-4.45 11.914-6.422 16.449-2.27 4.07 3.728 4.502 12.224 10.654 11.618 5.544-.546 5.104-7.848 7.368-12.715 2.956-6.352 10.838-8.353 17.647-5.692 5.445 2.128 9.464 6.773 11.174 12.37 1.52 4.976 1.11 10.318-.891 15.122-2.398 5.756-6.911 10.34-9.634 15.943-1.935 3.98-2.914 8.453-1.763 12.722a13.9 13.9 0 005.49 7.796l.464.191" fill="none" stroke="#af00db"/><path d="M140.605 282.594l4.41 5.055-6.69.495z" fill="#af00db"/></g><g clip-path="url(#7_svg__v)" transform="matrix(1.33333 0 0 -1.33333 -97.732 593.52)"><path d="M315.193 255.06a10.62 10.62 0 000-15.283c-4.327-4.22-11.343-4.22-15.67 0a10.62 10.62 0 000 15.283c4.327 4.22 11.343 4.22 15.67 0z" fill="none" stroke="#000"/></g><g clip-path="url(#7_svg__w)" transform="matrix(1.33333 0 0 -1.33333 -97.732 593.52)"><path d="M303.756 254.142h7.2v-14h-7.2z" fill="#fff"/><text style="-inkscape-font-specification:PTMono-Regular" transform="matrix(1 0 0 -1 303.756 242.962)" font-weight="400" font-size="12" font-family="PT Mono"><tspan y="0" x="0">x</tspan></text></g><g clip-path="url(#7_svg__x)" transform="matrix(1.33333 0 0 -1.33333 -97.732 593.52)"><path d="M349.127 255.06a10.62 10.62 0 000-15.283c-4.328-4.22-11.343-4.22-15.67 0a10.62 10.62 0 000 15.283c4.327 4.22 11.342 4.22 15.67 0z" fill="none" stroke="#000"/></g><g clip-path="url(#7_svg__y)" transform="matrix(1.33333 0 0 -1.33333 -97.732 593.52)"><path d="M337.69 254.142h7.2v-14h-7.2z" fill="#fff"/><text style="-inkscape-font-specification:PTMono-Regular" transform="matrix(1 0 0 -1 337.69 242.962)" font-weight="400" font-size="12" font-family="PT Mono"><tspan y="0" x="0">x</tspan></text></g><g clip-path="url(#7_svg__z)" transform="matrix(1.33333 0 0 -1.33333 -97.732 593.52)"><path d="M334.377 285.117a13.625 13.625 0 000-19.608c-5.552-5.415-14.553-5.415-20.104 0a13.625 13.625 0 000 19.608c5.551 5.415 14.552 5.415 20.104 0z" fill="none" stroke="#000"/></g><g clip-path="url(#7_svg__A)" transform="matrix(1.33333 0 0 -1.33333 -97.732 593.52)"><path d="M317.115 282.377h14.4v-14h-14.4z" fill="#fff"/><text style="-inkscape-font-specification:PTMono-Regular" transform="matrix(1 0 0 -1 317.115 271.197)" font-weight="400" font-size="12" font-family="PT Mono"><tspan y="0" x="0 7.1999998">=&gt;</tspan></text></g><g clip-path="url(#7_svg__B)" transform="matrix(1.33333 0 0 -1.33333 -97.732 593.52)"><path d="M313.269 257.136l3.54 5.819" fill="none" stroke="#000"/></g><g clip-path="url(#7_svg__C)" transform="matrix(1.33333 0 0 -1.33333 -97.732 593.52)"><path d="M335.382 257.135l-3.539 5.817" fill="none" stroke="#000"/></g></svg>