<?xml version="1.0" encoding="UTF-8" standalone="no"?>
<svg
   xmlns:dc="http://purl.org/dc/elements/1.1/"
   xmlns:cc="http://creativecommons.org/ns#"
   xmlns:rdf="http://www.w3.org/1999/02/22-rdf-syntax-ns#"
   xmlns:svg="http://www.w3.org/2000/svg"
   xmlns="http://www.w3.org/2000/svg"
   viewBox="0 0 406.55356 316.33386"
   height="316.33386"
   width="406.55356"
   xml:space="preserve"
   id="svg2"
   version="1.1"><metadata
     id="metadata8"><rdf:RDF><cc:Work
         rdf:about=""><dc:format>image/svg+xml</dc:format><dc:type
           rdf:resource="http://purl.org/dc/dcmitype/StillImage" /></cc:Work></rdf:RDF></metadata><defs
     id="defs6"><clipPath
       id="clipPath20"
       clipPathUnits="userSpaceOnUse"><path
         id="path18"
         d="M 0,0 H 430 V 640 H 0 Z" /></clipPath><clipPath
       id="clipPath64"
       clipPathUnits="userSpaceOnUse"><path
         id="path62"
         d="M 161.9388,252.2946 H 268.07 v 22.45166 H 161.9388 Z" /></clipPath><clipPath
       id="clipPath86"
       clipPathUnits="userSpaceOnUse"><path
         id="path84"
         d="M 0,0 H 430 V 640 H 0 Z" /></clipPath><clipPath
       id="clipPath114"
       clipPathUnits="userSpaceOnUse"><path
         id="path112"
         d="m 98.39807,405.3084 h 22.16031 v 21.61379 H 98.39807 Z" /></clipPath><clipPath
       id="clipPath130"
       clipPathUnits="userSpaceOnUse"><path
         id="path128"
         d="m 79.93129,326.3872 h 25.16032 v 24.61379 H 79.93129 Z" /></clipPath><clipPath
       id="clipPath142"
       clipPathUnits="userSpaceOnUse"><path
         id="path140"
         d="m 81.43129,327.8872 h 22.16031 v 21.61379 H 81.43129 Z" /></clipPath><clipPath
       id="clipPath158"
       clipPathUnits="userSpaceOnUse"><path
         id="path156"
         d="m 113.8649,326.3872 h 25.16032 v 24.61379 H 113.8649 Z" /></clipPath><clipPath
       id="clipPath170"
       clipPathUnits="userSpaceOnUse"><path
         id="path168"
         d="m 115.3649,327.8872 h 22.16031 v 21.61379 H 115.3649 Z" /></clipPath><clipPath
       id="clipPath186"
       clipPathUnits="userSpaceOnUse"><path
         id="path184"
         d="M 93.76244,351.2238 H 125.194 v 30.73038 H 93.76244 Z" /></clipPath><clipPath
       id="clipPath198"
       clipPathUnits="userSpaceOnUse"><path
         id="path196"
         d="M 95.26244,352.7238 H 123.694 v 27.73038 H 95.26244 Z" /></clipPath><clipPath
       id="clipPath214"
       clipPathUnits="userSpaceOnUse"><path
         id="path212"
         d="m 96.99494,347.1519 h 6.39363 v 8.33851 h -6.39363 z" /></clipPath><clipPath
       id="clipPath226"
       clipPathUnits="userSpaceOnUse"><path
         id="path224"
         d="m 115.5694,347.1506 h 6.39287 v 8.33726 h -6.39287 z" /></clipPath><clipPath
       id="clipPath238"
       clipPathUnits="userSpaceOnUse"><path
         id="path236"
         d="m 79.93129,235.1113 h 25.16032 v 24.61379 H 79.93129 Z" /></clipPath><clipPath
       id="clipPath250"
       clipPathUnits="userSpaceOnUse"><path
         id="path248"
         d="m 81.43129,236.6113 h 22.16031 v 21.61379 H 81.43129 Z" /></clipPath><clipPath
       id="clipPath266"
       clipPathUnits="userSpaceOnUse"><path
         id="path264"
         d="m 113.8649,235.1113 h 25.16032 v 24.61379 H 113.8649 Z" /></clipPath><clipPath
       id="clipPath278"
       clipPathUnits="userSpaceOnUse"><path
         id="path276"
         d="m 115.3649,236.6113 h 22.16031 v 21.61379 H 115.3649 Z" /></clipPath><clipPath
       id="clipPath294"
       clipPathUnits="userSpaceOnUse"><path
         id="path292"
         d="M 93.76244,259.9479 H 125.194 v 30.73038 H 93.76244 Z" /></clipPath><clipPath
       id="clipPath306"
       clipPathUnits="userSpaceOnUse"><path
         id="path304"
         d="M 95.26244,261.4479 H 123.694 v 27.73038 H 95.26244 Z" /></clipPath><clipPath
       id="clipPath322"
       clipPathUnits="userSpaceOnUse"><path
         id="path320"
         d="m 96.99493,255.876 h 6.39363 v 8.33852 h -6.39363 z" /></clipPath><clipPath
       id="clipPath334"
       clipPathUnits="userSpaceOnUse"><path
         id="path332"
         d="m 115.5694,255.8747 h 6.39287 v 8.33727 h -6.39287 z" /></clipPath><clipPath
       id="clipPath346"
       clipPathUnits="userSpaceOnUse"><path
         id="path344"
         d="M 0,0 H 430 V 640 H 0 Z" /></clipPath><clipPath
       id="clipPath362"
       clipPathUnits="userSpaceOnUse"><path
         id="path360"
         d="m 294.778,235.1113 h 25.16032 v 24.61379 H 294.778 Z" /></clipPath><clipPath
       id="clipPath374"
       clipPathUnits="userSpaceOnUse"><path
         id="path372"
         d="m 296.278,236.6113 h 22.16031 v 21.61379 H 296.278 Z" /></clipPath><clipPath
       id="clipPath390"
       clipPathUnits="userSpaceOnUse"><path
         id="path388"
         d="m 328.7115,235.1113 h 25.16032 v 24.61379 H 328.7115 Z" /></clipPath><clipPath
       id="clipPath402"
       clipPathUnits="userSpaceOnUse"><path
         id="path400"
         d="m 330.2115,236.6113 h 22.16031 v 21.61379 H 330.2115 Z" /></clipPath><clipPath
       id="clipPath418"
       clipPathUnits="userSpaceOnUse"><path
         id="path416"
         d="m 308.6091,259.9479 h 31.43156 v 30.73038 H 308.6091 Z" /></clipPath><clipPath
       id="clipPath430"
       clipPathUnits="userSpaceOnUse"><path
         id="path428"
         d="m 310.1091,261.4479 h 28.43156 v 27.73038 H 310.1091 Z" /></clipPath><clipPath
       id="clipPath446"
       clipPathUnits="userSpaceOnUse"><path
         id="path444"
         d="m 311.8416,255.876 h 6.39363 v 8.33852 h -6.39363 z" /></clipPath><clipPath
       id="clipPath458"
       clipPathUnits="userSpaceOnUse"><path
         id="path456"
         d="m 330.4161,255.8747 h 6.39287 v 8.33727 h -6.39287 z" /></clipPath></defs><g
     transform="matrix(1.3333333,0,0,-1.3333333,-97.87964,593.51905)"
     id="g10"><g
       id="g12" /><g
       id="g14"><g
         clip-path="url(#clipPath20)"
         id="g16"><path
           id="path22"
           style="fill:#ffffff;fill-opacity:1;fill-rule:nonzero;stroke:none"
           d="m 77.07823,445.1393 h 64.79997 v -14 H 77.07823 Z" /><g
           transform="translate(77.07823,433.9594)"
           id="g24"><text
             id="text28"
             style="font-variant:normal;font-weight:normal;font-size:12px;font-family:'PT Mono';-inkscape-font-specification:PTMono-Regular;writing-mode:lr-tb;fill:#001080;fill-opacity:1;fill-rule:nonzero;stroke:none"
             transform="scale(1,-1)"><tspan
               id="tspan26"
               y="0"
               x="0 7.1999998 14.4 21.6 28.799999 36 43.200001 50.400002 57.599998">parameter</tspan></text></g><path
           id="path30"
           style="fill:#ffffff;fill-opacity:1;fill-rule:nonzero;stroke:none"
           d="m 80.67823,396.9063 h 57.59997 v -14 H 80.67823 Z" /><g
           transform="translate(80.67823,385.7263)"
           id="g32"><text
             id="text36"
             style="font-variant:normal;font-weight:normal;font-size:12px;font-family:'PT Mono';-inkscape-font-specification:PTMono-Regular;writing-mode:lr-tb;fill:#001080;fill-opacity:1;fill-rule:nonzero;stroke:none"
             transform="scale(1,-1)"><tspan
               id="tspan34"
               y="0"
               x="0 7.1999998 14.4 21.6 28.799999 36 43.200001 50.400002">argument</tspan></text></g><path
           id="path38"
           style="fill:#ffffff;fill-opacity:1;fill-rule:nonzero;stroke:none"
           d="m 95.07823,316.0363 h 28.79997 v -14 H 95.07823 Z" /><g
           transform="translate(95.07823,304.8564)"
           id="g40"><text
             id="text44"
             style="font-variant:normal;font-weight:normal;font-size:12px;font-family:'PT Mono';-inkscape-font-specification:PTMono-Regular;writing-mode:lr-tb;fill:#001080;fill-opacity:1;fill-rule:nonzero;stroke:none"
             transform="scale(1,-1)"><tspan
               id="tspan42"
               y="0"
               x="0 7.1999998 14.4 21.6">body</tspan></text></g><path
           id="path46"
           style="fill:#ffffff;fill-opacity:1;fill-rule:nonzero;stroke:none"
           d="m 270.3249,316.0363 h 108 v -14 h -108 z" /><g
           transform="translate(270.3249,304.8564)"
           id="g48"><text
             id="text52"
             style="font-variant:normal;font-weight:normal;font-size:12px;font-family:'PT Mono';-inkscape-font-specification:PTMono-Regular;writing-mode:lr-tb;fill:#001080;fill-opacity:1;fill-rule:nonzero;stroke:none"
             transform="scale(1,-1)"><tspan
               id="tspan50"
               y="0"
               x="0 7.1999998 14.4 21.6 28.799999 36 43.200001 50.400002 57.599998 64.800003 72 79.199997 86.400002 93.599998 100.8">substitutedBody</tspan></text></g><g
           transform="matrix(1,0,0,-1,163.7176,274.7463)"
           id="g54"><path
             id="path56"
             style="fill:none;stroke:#000000;stroke-width:1.1;stroke-linecap:butt;stroke-linejoin:miter;stroke-miterlimit:4;stroke-dasharray:none;stroke-opacity:1"
             d="m 4.67817,0 h 93.20852 c 1.3728,0 2.19651,0 2.74561,0.2292511 0.7916,0.2881214 1.4152,0.9117009 1.7033,1.7033079 0.2293,0.549122 0.2293,1.372805 0.2293,2.745611 v 13.09532 c 0,1.3728 0,2.19649 -0.2293,2.74561 -0.2881,0.79161 -0.9117,1.41519 -1.7033,1.70331 -0.5491,0.22925 -1.37281,0.22925 -2.74561,0.22925 H 4.67817 c -1.372806,0 -2.196489,0 -2.745611,-0.22925 C 1.140952,21.93429 0.5173725,21.31071 0.2292511,20.5191 0,19.96998 0,19.14629 0,17.77349 V 4.67817 C 0,3.305364 0,2.481681 0.2292511,1.932559 0.5173725,1.140952 1.140952,0.5173725 1.932559,0.2292511 2.481681,0 3.305364,0 4.67817,0 Z" /></g></g></g><g
       id="g58"><g
         clip-path="url(#clipPath64)"
         id="g60"><path
           id="path66"
           style="fill:#ffffff;fill-opacity:1;fill-rule:nonzero;stroke:none"
           d="m 171.8044,270.7466 h 86.4 v -14 h -86.4 z" /><g
           transform="translate(171.8044,259.5666)"
           id="g68"><text
             id="text72"
             style="font-variant:normal;font-weight:normal;font-size:12px;font-family:'PT Mono';-inkscape-font-specification:PTMono-Regular;writing-mode:lr-tb;fill:#795e26;fill-opacity:1;fill-rule:nonzero;stroke:none"
             transform="scale(1,-1)"><tspan
               id="tspan70"
               y="0"
               x="0 7.1999998 14.4 21.6 28.799999 36 43.200001 50.400002 57.599998 64.800003">substitute</tspan></text></g><g
           transform="translate(171.8044,259.5666)"
           id="g74"><text
             id="text78"
             style="font-variant:normal;font-weight:normal;font-size:12px;font-family:'PT Mono';-inkscape-font-specification:PTMono-Regular;writing-mode:lr-tb;fill:#000000;fill-opacity:1;fill-rule:nonzero;stroke:none"
             transform="matrix(1,0,0,-1,72,0)"><tspan
               id="tspan76"
               y="0"
               x="0 7.1999998">()</tspan></text></g></g></g><g
       id="g80"><g
         clip-path="url(#clipPath86)"
         id="g82"><g
           transform="translate(84.81223,208.0329)"
           id="g88"><text
             id="text92"
             style="font-variant:normal;font-weight:normal;font-size:12px;font-family:'PT Serif';-inkscape-font-specification:PTSerif-Regular;writing-mode:lr-tb;fill:#af00db;fill-opacity:1;fill-rule:nonzero;stroke:none"
             transform="scale(1,-1)"><tspan
               id="tspan90"
               y="0"
               x="0 7.0679998 11.676 17.736 23.82 29.856001 34.464001 39.66 45.720001">Traversal</tspan></text></g><g
           transform="matrix(1,0,0,-1,266.7801,263.6678)"
           id="g94"><path
             id="path96"
             style="fill:none;stroke:#000000;stroke-width:1;stroke-linecap:butt;stroke-linejoin:miter;stroke-miterlimit:4;stroke-dasharray:none;stroke-opacity:1"
             d="m 17.99067,0.0107659 -0.5,9.7871e-4 L 0,0.04598155" /></g><path
           id="path98"
           style="fill:#000000;fill-opacity:1;fill-rule:nonzero;stroke:none"
           d="m 284.2766,260.6561 5.9941,3.0117 -6.0058,2.9883 z" /><g
           transform="matrix(1,0,0,-1,151.2108,262.7337)"
           id="g100"><path
             id="path102"
             style="fill:none;stroke:#000000;stroke-width:1;stroke-linecap:butt;stroke-linejoin:miter;stroke-miterlimit:4;stroke-dasharray:none;stroke-opacity:1"
             d="M 0,0.1824296 12.00677,0" /></g><g
           transform="matrix(1,0,0,-1,98.39807,426.9222)"
           id="g104"><path
             id="path106"
             style="fill:none;stroke:#ff0000;stroke-width:1;stroke-linecap:butt;stroke-linejoin:miter;stroke-miterlimit:4;stroke-dasharray:none;stroke-opacity:1"
             d="m 18.91501,3.165267 c 4.32707,4.220355 4.32707,11.062903 0,15.283263 -4.32707,4.22035 -11.342636,4.22035 -15.669707,0 -4.327071,-4.22036 -4.327071,-11.062908 0,-15.283263 4.327071,-4.220356 11.342637,-4.220356 15.669707,0 z" /></g></g></g><g
       id="g108"><g
         clip-path="url(#clipPath114)"
         id="g110"><path
           id="path116"
           style="fill:#ffffff;fill-opacity:1;fill-rule:nonzero;stroke:none"
           d="m 105.8762,422.8395 h 7.2 v -14 h -7.2 z" /><g
           transform="translate(105.8762,411.6595)"
           id="g118"><text
             id="text122"
             style="font-variant:normal;font-weight:normal;font-size:12px;font-family:'PT Mono';-inkscape-font-specification:PTMono-Regular;writing-mode:lr-tb;fill:#ff0000;fill-opacity:1;fill-rule:nonzero;stroke:none"
             transform="scale(1,-1)"><tspan
               id="tspan120"
               y="0"
               x="0">x</tspan></text></g></g></g><g
       id="g124"><g
         clip-path="url(#clipPath130)"
         id="g126"><g
           transform="matrix(1,0,0,-1,81.43129,349.501)"
           id="g132"><path
             id="path134"
             style="fill:none;stroke:#000000;stroke-width:1;stroke-linecap:butt;stroke-linejoin:miter;stroke-miterlimit:4;stroke-dasharray:none;stroke-opacity:1"
             d="m 18.91501,3.165267 c 4.32707,4.220355 4.32707,11.062903 0,15.283263 -4.32707,4.22035 -11.342636,4.22035 -15.669707,0 -4.327071,-4.22036 -4.327071,-11.062908 0,-15.283263 4.327071,-4.220356 11.342637,-4.220356 15.669707,0 z" /></g></g></g><g
       id="g136"><g
         clip-path="url(#clipPath142)"
         id="g138"><path
           id="path144"
           style="fill:#ffffff;fill-opacity:1;fill-rule:nonzero;stroke:none"
           d="m 88.90941,345.4183 h 7.2 v -14 h -7.2 z" /><g
           transform="translate(88.90941,334.2383)"
           id="g146"><text
             id="text150"
             style="font-variant:normal;font-weight:normal;font-size:12px;font-family:'PT Mono';-inkscape-font-specification:PTMono-Regular;writing-mode:lr-tb;fill:#000000;fill-opacity:1;fill-rule:nonzero;stroke:none"
             transform="scale(1,-1)"><tspan
               id="tspan148"
               y="0"
               x="0">y</tspan></text></g></g></g><g
       id="g152"><g
         clip-path="url(#clipPath158)"
         id="g154"><g
           transform="matrix(1,0,0,-1,115.3649,349.501)"
           id="g160"><path
             id="path162"
             style="fill:none;stroke:#000000;stroke-width:1;stroke-linecap:butt;stroke-linejoin:miter;stroke-miterlimit:4;stroke-dasharray:none;stroke-opacity:1"
             d="m 18.91501,3.165267 c 4.32707,4.220355 4.32707,11.062903 0,15.283263 -4.32707,4.22035 -11.342636,4.22035 -15.669707,0 -4.327071,-4.22036 -4.327071,-11.062908 0,-15.283263 4.327071,-4.220356 11.342637,-4.220356 15.669707,0 z" /></g></g></g><g
       id="g164"><g
         clip-path="url(#clipPath170)"
         id="g166"><path
           id="path172"
           style="fill:#ffffff;fill-opacity:1;fill-rule:nonzero;stroke:none"
           d="m 122.843,345.4183 h 7.2 v -14 h -7.2 z" /><g
           transform="translate(122.843,334.2383)"
           id="g174"><text
             id="text178"
             style="font-variant:normal;font-weight:normal;font-size:12px;font-family:'PT Mono';-inkscape-font-specification:PTMono-Regular;writing-mode:lr-tb;fill:#000000;fill-opacity:1;fill-rule:nonzero;stroke:none"
             transform="scale(1,-1)"><tspan
               id="tspan176"
               y="0"
               x="0">y</tspan></text></g></g></g><g
       id="g180"><g
         clip-path="url(#clipPath186)"
         id="g182"><g
           transform="matrix(1,0,0,-1,95.26244,380.4542)"
           id="g188"><path
             id="path190"
             style="fill:none;stroke:#000000;stroke-width:1;stroke-linecap:butt;stroke-linejoin:miter;stroke-miterlimit:4;stroke-dasharray:none;stroke-opacity:1"
             d="m 24.26786,4.061019 c 5.5516,5.414693 5.5516,14.193641 0,19.608341 -5.55161,5.41469 -14.552547,5.41469 -20.104154,0 -5.551608,-5.4147 -5.551608,-14.193648 0,-19.608341 5.551607,-5.414692 14.552544,-5.414692 20.104154,0 z" /></g></g></g><g
       id="g192"><g
         clip-path="url(#clipPath198)"
         id="g194"><path
           id="path200"
           style="fill:#ffffff;fill-opacity:1;fill-rule:nonzero;stroke:none"
           d="m 102.2689,373.6527 h 14.4 v -14 h -14.4 z" /><g
           transform="translate(102.2689,362.4727)"
           id="g202"><text
             id="text206"
             style="font-variant:normal;font-weight:normal;font-size:12px;font-family:'PT Mono';-inkscape-font-specification:PTMono-Regular;writing-mode:lr-tb;fill:#000000;fill-opacity:1;fill-rule:nonzero;stroke:none"
             transform="scale(1,-1)"><tspan
               id="tspan204"
               y="0"
               x="0 7.1999998">=&gt;</tspan></text></g></g></g><g
       id="g208"><g
         clip-path="url(#clipPath214)"
         id="g210"><g
           transform="matrix(1,0,0,-1,98.42212,354.2306)"
           id="g216"><path
             id="path218"
             style="fill:none;stroke:#000000;stroke-width:1;stroke-linecap:butt;stroke-linejoin:miter;stroke-miterlimit:4;stroke-dasharray:none;stroke-opacity:1"
             d="M 0,5.818847 3.539253,0" /></g></g></g><g
       id="g220"><g
         clip-path="url(#clipPath226)"
         id="g222"><g
           transform="matrix(1,0,0,-1,116.9966,354.2281)"
           id="g228"><path
             id="path230"
             style="fill:none;stroke:#000000;stroke-width:1;stroke-linecap:butt;stroke-linejoin:miter;stroke-miterlimit:4;stroke-dasharray:none;stroke-opacity:1"
             d="M 3.538496,5.817595 0,0" /></g></g></g><g
       id="g232"><g
         clip-path="url(#clipPath238)"
         id="g234"><g
           transform="matrix(1,0,0,-1,81.43129,258.2251)"
           id="g240"><path
             id="path242"
             style="fill:none;stroke:#000000;stroke-width:1;stroke-linecap:butt;stroke-linejoin:miter;stroke-miterlimit:4;stroke-dasharray:none;stroke-opacity:1"
             d="m 18.91501,3.165267 c 4.32707,4.220355 4.32707,11.062903 0,15.283263 -4.32707,4.22035 -11.342636,4.22035 -15.669707,0 -4.327071,-4.22036 -4.327071,-11.062908 0,-15.283263 4.327071,-4.220356 11.342637,-4.220356 15.669707,0 z" /></g></g></g><g
       id="g244"><g
         clip-path="url(#clipPath250)"
         id="g246"><path
           id="path252"
           style="fill:#ffffff;fill-opacity:1;fill-rule:nonzero;stroke:none"
           d="m 88.90941,254.1424 h 7.2 v -14 h -7.2 z" /><g
           transform="translate(88.90941,242.9624)"
           id="g254"><text
             id="text258"
             style="font-variant:normal;font-weight:normal;font-size:12px;font-family:'PT Mono';-inkscape-font-specification:PTMono-Regular;writing-mode:lr-tb;fill:#008000;fill-opacity:1;fill-rule:nonzero;stroke:none"
             transform="scale(1,-1)"><tspan
               id="tspan256"
               y="0"
               x="0">x</tspan></text></g></g></g><g
       id="g260"><g
         clip-path="url(#clipPath266)"
         id="g262"><g
           transform="matrix(1,0,0,-1,115.3649,258.2251)"
           id="g268"><path
             id="path270"
             style="fill:none;stroke:#000000;stroke-width:1;stroke-linecap:butt;stroke-linejoin:miter;stroke-miterlimit:4;stroke-dasharray:none;stroke-opacity:1"
             d="m 18.91501,3.165267 c 4.32707,4.220355 4.32707,11.062903 0,15.283263 -4.32707,4.22035 -11.342636,4.22035 -15.669707,0 -4.327071,-4.22036 -4.327071,-11.062908 0,-15.283263 4.327071,-4.220356 11.342637,-4.220356 15.669707,0 z" /></g></g></g><g
       id="g272"><g
         clip-path="url(#clipPath278)"
         id="g274"><path
           id="path280"
           style="fill:#ffffff;fill-opacity:1;fill-rule:nonzero;stroke:none"
           d="m 122.843,254.1424 h 7.2 v -14 h -7.2 z" /><g
           transform="translate(122.843,242.9624)"
           id="g282"><text
             id="text286"
             style="font-variant:normal;font-weight:normal;font-size:12px;font-family:'PT Mono';-inkscape-font-specification:PTMono-Regular;writing-mode:lr-tb;fill:#795e26;fill-opacity:1;fill-rule:nonzero;stroke:none"
             transform="scale(1,-1)"><tspan
               id="tspan284"
               y="0"
               x="0">x</tspan></text></g></g></g><g
       id="g288"><g
         clip-path="url(#clipPath294)"
         id="g290"><g
           transform="matrix(1,0,0,-1,95.26244,289.1783)"
           id="g296"><path
             id="path298"
             style="fill:none;stroke:#000000;stroke-width:1;stroke-linecap:butt;stroke-linejoin:miter;stroke-miterlimit:4;stroke-dasharray:none;stroke-opacity:1"
             d="m 24.26786,4.061019 c 5.5516,5.414693 5.5516,14.193641 0,19.608341 -5.55161,5.41469 -14.552547,5.41469 -20.104154,0 -5.551608,-5.4147 -5.551608,-14.193648 0,-19.608341 5.551607,-5.414692 14.552544,-5.414692 20.104154,0 z" /></g></g></g><g
       id="g300"><g
         clip-path="url(#clipPath306)"
         id="g302"><path
           id="path308"
           style="fill:#ffffff;fill-opacity:1;fill-rule:nonzero;stroke:none"
           d="m 102.2689,282.3768 h 14.4 v -14 h -14.4 z" /><g
           transform="translate(102.2689,271.1968)"
           id="g310"><text
             id="text314"
             style="font-variant:normal;font-weight:normal;font-size:12px;font-family:'PT Mono';-inkscape-font-specification:PTMono-Regular;writing-mode:lr-tb;fill:#000000;fill-opacity:1;fill-rule:nonzero;stroke:none"
             transform="scale(1,-1)"><tspan
               id="tspan312"
               y="0"
               x="0 7.1999998">=&gt;</tspan></text></g></g></g><g
       id="g316"><g
         clip-path="url(#clipPath322)"
         id="g318"><g
           transform="matrix(1,0,0,-1,98.42212,262.9547)"
           id="g324"><path
             id="path326"
             style="fill:none;stroke:#000000;stroke-width:1;stroke-linecap:butt;stroke-linejoin:miter;stroke-miterlimit:4;stroke-dasharray:none;stroke-opacity:1"
             d="M 0,5.818859 3.539259,0" /></g></g></g><g
       id="g328"><g
         clip-path="url(#clipPath334)"
         id="g330"><g
           transform="matrix(1,0,0,-1,116.9966,262.9522)"
           id="g336"><path
             id="path338"
             style="fill:none;stroke:#000000;stroke-width:1;stroke-linecap:butt;stroke-linejoin:miter;stroke-miterlimit:4;stroke-dasharray:none;stroke-opacity:1"
             d="M 3.538502,5.817607 0,0" /></g></g></g><g
       id="g340"><g
         clip-path="url(#clipPath346)"
         id="g342"><g
           transform="matrix(1,0,0,-1,73.90991,286.3307)"
           id="g348"><path
             id="path350"
             style="fill:none;stroke:#af00db;stroke-width:1;stroke-linecap:butt;stroke-linejoin:miter;stroke-miterlimit:4;stroke-dasharray:none;stroke-opacity:1"
             d="m 13.77323,0 c -3.24859,4.176517 -6.039755,8.689493 -8.32557,13.46146 -3.844074,8.02507 -6.2312662,16.8028 -5.211895,25.64705 0.7561641,6.56062 3.477413,12.90234 8.823265,16.74775 4.34791,3.12757 9.84931,4.11045 14.97017,2.73689 l 0.47712,-0.15057" /></g><g
           transform="matrix(-0.3009475,0.9536407,0.9536407,0.3009475,99.60517,225.1174)"
           id="g352"><path
             id="path354"
             style="fill:none;stroke:#af00db;stroke-width:1;stroke-linecap:butt;stroke-linejoin:miter;stroke-miterlimit:10;stroke-dasharray:none;stroke-opacity:1"
             d="M 0,0 H 6" /></g></g></g><g
       id="g356"><g
         clip-path="url(#clipPath362)"
         id="g358"><g
           transform="matrix(1,0,0,-1,296.278,258.2251)"
           id="g364"><path
             id="path366"
             style="fill:none;stroke:#000000;stroke-width:1;stroke-linecap:butt;stroke-linejoin:miter;stroke-miterlimit:4;stroke-dasharray:none;stroke-opacity:1"
             d="m 18.91501,3.165267 c 4.32707,4.220355 4.32707,11.062903 0,15.283263 -4.32707,4.22035 -11.342636,4.22035 -15.669707,0 -4.327071,-4.22036 -4.327071,-11.062908 0,-15.283263 4.327071,-4.220356 11.342637,-4.220356 15.669707,0 z" /></g></g></g><g
       id="g368"><g
         clip-path="url(#clipPath374)"
         id="g370"><path
           id="path376"
           style="fill:#ffffff;fill-opacity:1;fill-rule:nonzero;stroke:none"
           d="m 303.7561,254.1424 h 7.2 v -14 h -7.2 z" /><g
           transform="translate(303.7561,242.9624)"
           id="g378"><text
             id="text382"
             style="font-variant:normal;font-weight:normal;font-size:12px;font-family:'PT Mono';-inkscape-font-specification:PTMono-Regular;writing-mode:lr-tb;fill:#008000;fill-opacity:1;fill-rule:nonzero;stroke:none"
             transform="scale(1,-1)"><tspan
               id="tspan380"
               y="0"
               x="0">x</tspan></text></g></g></g><g
       id="g384"><g
         clip-path="url(#clipPath390)"
         id="g386"><g
           transform="matrix(1,0,0,-1,330.2115,258.2251)"
           id="g392"><path
             id="path394"
             style="fill:none;stroke:#000000;stroke-width:1;stroke-linecap:butt;stroke-linejoin:miter;stroke-miterlimit:4;stroke-dasharray:none;stroke-opacity:1"
             d="m 18.91501,3.165267 c 4.32707,4.220355 4.32707,11.062903 0,15.283263 -4.32707,4.22035 -11.342636,4.22035 -15.669707,0 -4.327071,-4.22036 -4.327071,-11.062908 0,-15.283263 4.327071,-4.220356 11.342637,-4.220356 15.669707,0 z" /></g></g></g><g
       id="g396"><g
         clip-path="url(#clipPath402)"
         id="g398"><path
           id="path404"
           style="fill:#ffffff;fill-opacity:1;fill-rule:nonzero;stroke:none"
           d="m 337.6896,254.1424 h 7.2 v -14 h -7.2 z" /><g
           transform="translate(337.6896,242.9624)"
           id="g406"><text
             id="text410"
             style="font-variant:normal;font-weight:normal;font-size:12px;font-family:'PT Mono';-inkscape-font-specification:PTMono-Regular;writing-mode:lr-tb;fill:#795e26;fill-opacity:1;fill-rule:nonzero;stroke:none"
             transform="scale(1,-1)"><tspan
               id="tspan408"
               y="0"
               x="0">x</tspan></text></g></g></g><g
       id="g412"><g
         clip-path="url(#clipPath418)"
         id="g414"><g
           transform="matrix(1,0,0,-1,310.1091,289.1783)"
           id="g420"><path
             id="path422"
             style="fill:none;stroke:#000000;stroke-width:1;stroke-linecap:butt;stroke-linejoin:miter;stroke-miterlimit:4;stroke-dasharray:none;stroke-opacity:1"
             d="m 24.26786,4.061019 c 5.5516,5.414693 5.5516,14.193641 0,19.608341 -5.55161,5.41469 -14.552547,5.41469 -20.104154,0 -5.551608,-5.4147 -5.551608,-14.193648 0,-19.608341 5.551607,-5.414692 14.552544,-5.414692 20.104154,0 z" /></g></g></g><g
       id="g424"><g
         clip-path="url(#clipPath430)"
         id="g426"><path
           id="path432"
           style="fill:#ffffff;fill-opacity:1;fill-rule:nonzero;stroke:none"
           d="m 317.1155,282.3768 h 14.4 v -14 h -14.4 z" /><g
           transform="translate(317.1155,271.1968)"
           id="g434"><text
             id="text438"
             style="font-variant:normal;font-weight:normal;font-size:12px;font-family:'PT Mono';-inkscape-font-specification:PTMono-Regular;writing-mode:lr-tb;fill:#000000;fill-opacity:1;fill-rule:nonzero;stroke:none"
             transform="scale(1,-1)"><tspan
               id="tspan436"
               y="0"
               x="0 7.1999998">=&gt;</tspan></text></g></g></g><g
       id="g440"><g
         clip-path="url(#clipPath446)"
         id="g442"><g
           transform="matrix(1,0,0,-1,313.2688,262.9547)"
           id="g448"><path
             id="path450"
             style="fill:none;stroke:#000000;stroke-width:1;stroke-linecap:butt;stroke-linejoin:miter;stroke-miterlimit:4;stroke-dasharray:none;stroke-opacity:1"
             d="M 0,5.818859 3.539259,0" /></g></g></g><g
       id="g452"><g
         clip-path="url(#clipPath458)"
         id="g454"><g
           transform="matrix(1,0,0,-1,331.8433,262.9522)"
           id="g460"><path
             id="path462"
             style="fill:none;stroke:#000000;stroke-width:1;stroke-linecap:butt;stroke-linejoin:miter;stroke-miterlimit:4;stroke-dasharray:none;stroke-opacity:1"
             d="M 3.538502,5.817607 0,0" /></g></g></g></g></svg>
