<?xml version="1.0" encoding="UTF-8" standalone="no"?><!-- Generator: Gravit.io --><svg xmlns="http://www.w3.org/2000/svg" xmlns:xlink="http://www.w3.org/1999/xlink" style="isolation:isolate" viewBox="471.406 250.993 423.449 236.28" width="423.449pt" height="236.28pt"><circle vector-effect="non-scaling-stroke" cx="569.5359263425819" cy="272.5046400905546" r="5" id="Ellipse" fill="rgb(255,0,0)"/><text transform="matrix(1,0,0,1,536.136,261.613)" id="highlight=ts" style="font-family:'PT Mono';font-weight:400;font-size:12px;font-style:normal;fill:#000000;stroke:none;">parameter</text><text transform="matrix(1,0,0,1,539.736,305.196)" id="highlight=ts" style="font-family:'PT Mono';font-weight:400;font-size:12px;font-style:normal;fill:#000000;stroke:none;">argument</text><text transform="matrix(1,0,0,1,554.136,371.453)" id="highlight=ts" style="font-family:'PT Mono';font-weight:400;font-size:12px;font-style:normal;fill:#000000;stroke:none;">body</text><text transform="matrix(1,0,0,1,633.836,371.453)" id="highlight=ts" style="font-family:'PT Mono';font-weight:400;font-size:12px;font-style:normal;fill:#000000;stroke:none;">substitute()</text><text transform="matrix(1,0,0,1,731.855,371.453)" id="highlight=ts" style="font-family:'PT Mono';font-weight:400;font-size:12px;font-style:normal;fill:#000000;stroke:none;">substitutedBody</text><path d=" M 693.133 392.724 L 682.973 385.475 C 682.314 385.004 681.386 385.475 681.386 386.286 L 681.386 391.35 C 681.386 391.902 680.961 392.35 680.409 392.35 L 656.409 392.35 C 655.857 392.35 655.386 392.798 655.386 393.35 L 655.386 395.35 C 655.386 395.902 655.857 396.35 656.409 396.35 L 680.409 396.35 C 680.961 396.35 681.386 396.798 681.386 397.35 L 681.386 402.414 C 681.386 403.224 682.313 403.696 682.973 403.225 L 693.127 395.976 C 693.653 395.602 693.966 394.997 693.967 394.351 C 693.968 393.706 693.657 393.1 693.133 392.724 Z " id="Path" fill="rgb(0,0,0)"/><g id="Group"><circle vector-effect="non-scaling-stroke" cx="569.5359263425834" cy="316.0878152961625" r="5" id="Ellipse" fill="rgb(0,128,0)"/><circle vector-effect="non-scaling-stroke" cx="549.5359263425815" cy="338.761355756136" r="5" id="Ellipse" fill="rgb(0,128,0)"/><circle vector-effect="non-scaling-stroke" cx="589.5359263425822" cy="338.761355756136" r="5" id="Ellipse" fill="rgb(0,128,0)"/><line x1="549.536" y1="338.761" x2="569.536" y2="316.088" id="Path" vector-effect="non-scaling-stroke" stroke-width="1" stroke="rgb(0,128,0)" stroke-linejoin="miter" stroke-linecap="square" stroke-miterlimit="3"/><line x1="589.536" y1="338.761" x2="569.536" y2="316.088" id="Path" vector-effect="non-scaling-stroke" stroke-width="1" stroke="rgb(0,128,0)" stroke-linejoin="miter" stroke-linecap="square" stroke-miterlimit="3"/></g><g id="Group"><circle vector-effect="non-scaling-stroke" cx="569.5359263425825" cy="382.34453096174394" r="5" id="Ellipse" fill="rgb(0,0,0)"/><circle vector-effect="non-scaling-stroke" cx="515.5359263425823" cy="405.0180714217176" r="5" id="Ellipse" fill="rgb(0,0,0)"/><circle vector-effect="non-scaling-stroke" cx="544.5359263425827" cy="427.9411209475032" r="5" id="Ellipse" fill="rgb(0,0,0)"/><circle vector-effect="non-scaling-stroke" cx="623.5359263425835" cy="405.0180714217176" r="5" id="Ellipse" fill="rgb(0,0,0)"/><circle vector-effect="non-scaling-stroke" cx="486.5359263425809" cy="427.69161188169124" r="5" id="Ellipse" fill="rgb(0,0,0)"/><circle vector-effect="non-scaling-stroke" cx="524.5359263425808" cy="450.6146614074767" r="5" id="Ellipse" fill="rgb(0,0,0)"/><circle vector-effect="non-scaling-stroke" cx="594.5359263425821" cy="427.69161188169124" r="5" id="Ellipse" fill="rgb(0,0,0)"/><line x1="515.536" y1="405.018" x2="569.536" y2="382.345" id="Path" vector-effect="non-scaling-stroke" stroke-width="1" stroke="rgb(0,0,0)" stroke-linejoin="miter" stroke-linecap="square" stroke-miterlimit="3"/><line x1="623.536" y1="405.018" x2="569.536" y2="382.345" id="Path" vector-effect="non-scaling-stroke" stroke-width="1" stroke="rgb(0,0,0)" stroke-linejoin="miter" stroke-linecap="square" stroke-miterlimit="3"/><line x1="486.536" y1="427.692" x2="515.536" y2="405.018" id="Path" vector-effect="non-scaling-stroke" stroke-width="1" stroke="rgb(0,0,0)" stroke-linejoin="miter" stroke-linecap="square" stroke-miterlimit="3"/><line x1="594.536" y1="427.692" x2="623.536" y2="405.018" id="Path" vector-effect="non-scaling-stroke" stroke-width="1" stroke="rgb(0,0,0)" stroke-linejoin="miter" stroke-linecap="square" stroke-miterlimit="3"/><line x1="544.536" y1="427.692" x2="515.536" y2="405.018" id="Path" vector-effect="non-scaling-stroke" stroke-width="1" stroke="rgb(0,0,0)" stroke-linejoin="miter" stroke-linecap="square" stroke-miterlimit="3"/><line x1="652.536" y1="427.692" x2="623.536" y2="405.018" id="Path" vector-effect="non-scaling-stroke" stroke-width="1" stroke="rgb(0,0,0)" stroke-linejoin="miter" stroke-linecap="square" stroke-miterlimit="3"/><line x1="524.536" y1="450.615" x2="544.536" y2="427.941" id="Path" vector-effect="non-scaling-stroke" stroke-width="1" stroke="rgb(0,0,0)" stroke-linejoin="miter" stroke-linecap="square" stroke-miterlimit="3"/><line x1="564.536" y1="450.615" x2="544.536" y2="427.941" id="Path" vector-effect="non-scaling-stroke" stroke-width="1" stroke="rgb(0,0,0)" stroke-linejoin="miter" stroke-linecap="square" stroke-miterlimit="3"/><circle vector-effect="non-scaling-stroke" cx="564.5359263425817" cy="450.6146614074767" r="5" id="Ellipse" fill="rgb(255,0,0)"/><circle vector-effect="non-scaling-stroke" cx="652.5359263425828" cy="427.69161188169124" r="5" id="Ellipse" fill="rgb(255,0,0)"/></g><g id="Group"><circle vector-effect="non-scaling-stroke" cx="786.8551968812988" cy="382.3445309617439" r="5" id="Ellipse" fill="rgb(0,0,0)"/><circle vector-effect="non-scaling-stroke" cx="732.8551968812989" cy="405.01807142171754" r="5" id="Ellipse" fill="rgb(0,0,0)"/><circle vector-effect="non-scaling-stroke" cx="761.8551968812992" cy="427.9411209475032" r="5" id="Ellipse" fill="rgb(0,0,0)"/><circle vector-effect="non-scaling-stroke" cx="840.8551968813" cy="405.01807142171754" r="5" id="Ellipse" fill="rgb(0,0,0)"/><circle vector-effect="non-scaling-stroke" cx="703.8551968812975" cy="427.6916118816912" r="5" id="Ellipse" fill="rgb(0,0,0)"/><circle vector-effect="non-scaling-stroke" cx="741.8551968812973" cy="450.61466140747666" r="5" id="Ellipse" fill="rgb(0,0,0)"/><circle vector-effect="non-scaling-stroke" cx="811.8551968812983" cy="427.6916118816912" r="5" id="Ellipse" fill="rgb(0,0,0)"/><line x1="732.855" y1="405.018" x2="786.855" y2="382.345" id="Path" vector-effect="non-scaling-stroke" stroke-width="1" stroke="rgb(0,0,0)" stroke-linejoin="miter" stroke-linecap="square" stroke-miterlimit="3"/><line x1="840.855" y1="405.018" x2="786.855" y2="382.345" id="Path" vector-effect="non-scaling-stroke" stroke-width="1" stroke="rgb(0,0,0)" stroke-linejoin="miter" stroke-linecap="square" stroke-miterlimit="3"/><line x1="703.855" y1="427.692" x2="732.855" y2="405.018" id="Path" vector-effect="non-scaling-stroke" stroke-width="1" stroke="rgb(0,0,0)" stroke-linejoin="miter" stroke-linecap="square" stroke-miterlimit="3"/><line x1="811.855" y1="427.692" x2="840.855" y2="405.018" id="Path" vector-effect="non-scaling-stroke" stroke-width="1" stroke="rgb(0,0,0)" stroke-linejoin="miter" stroke-linecap="square" stroke-miterlimit="3"/><line x1="761.855" y1="427.692" x2="732.855" y2="405.018" id="Path" vector-effect="non-scaling-stroke" stroke-width="1" stroke="rgb(0,0,0)" stroke-linejoin="miter" stroke-linecap="square" stroke-miterlimit="3"/><line x1="869.855" y1="427.692" x2="840.855" y2="405.018" id="Path" vector-effect="non-scaling-stroke" stroke-width="1" stroke="rgb(0,0,0)" stroke-linejoin="miter" stroke-linecap="square" stroke-miterlimit="3"/><line x1="741.855" y1="450.615" x2="761.855" y2="427.941" id="Path" vector-effect="non-scaling-stroke" stroke-width="1" stroke="rgb(0,0,0)" stroke-linejoin="miter" stroke-linecap="square" stroke-miterlimit="3"/><line x1="781.855" y1="450.615" x2="761.855" y2="427.941" id="Path" vector-effect="non-scaling-stroke" stroke-width="1" stroke="rgb(0,0,0)" stroke-linejoin="miter" stroke-linecap="square" stroke-miterlimit="3"/><g id="Group"><circle vector-effect="non-scaling-stroke" cx="781.8551889595013" cy="450.61466140747666" r="5" id="Ellipse" fill="rgb(0,128,0)"/><circle vector-effect="non-scaling-stroke" cx="761.8551889594995" cy="473.2882018674502" r="5" id="Ellipse" fill="rgb(0,128,0)"/><circle vector-effect="non-scaling-stroke" cx="801.8551889595002" cy="473.2882018674502" r="5" id="Ellipse" fill="rgb(0,128,0)"/><line x1="761.855" y1="473.288" x2="781.855" y2="450.615" id="Path" vector-effect="non-scaling-stroke" stroke-width="1" stroke="rgb(0,128,0)" stroke-linejoin="miter" stroke-linecap="square" stroke-miterlimit="3"/><line x1="801.855" y1="473.288" x2="781.855" y2="450.615" id="Path" vector-effect="non-scaling-stroke" stroke-width="1" stroke="rgb(0,128,0)" stroke-linejoin="miter" stroke-linecap="square" stroke-miterlimit="3"/></g><g id="Group"><circle vector-effect="non-scaling-stroke" cx="869.8551889595022" cy="427.94112261189196" r="5" id="Ellipse" fill="rgb(0,128,0)"/><circle vector-effect="non-scaling-stroke" cx="849.8551889595005" cy="450.61466307186555" r="5" id="Ellipse" fill="rgb(0,128,0)"/><circle vector-effect="non-scaling-stroke" cx="889.8551889595011" cy="450.61466307186555" r="5" id="Ellipse" fill="rgb(0,128,0)"/><line x1="849.855" y1="450.615" x2="869.855" y2="427.941" id="Path" vector-effect="non-scaling-stroke" stroke-width="1" stroke="rgb(0,128,0)" stroke-linejoin="miter" stroke-linecap="square" stroke-miterlimit="3"/><line x1="889.855" y1="450.615" x2="869.855" y2="427.941" id="Path" vector-effect="non-scaling-stroke" stroke-width="1" stroke="rgb(0,128,0)" stroke-linejoin="miter" stroke-linecap="square" stroke-miterlimit="3"/></g></g><path d=" M 524.981 375.378 C 529.103 377.851 527.701 381.262 524.353 383.763 C 508.769 395.405 487.103 401.293 475.215 418.009 C 473.11 420.969 472.788 424.53 472.938 428.04 C 473.383 438.507 481.11 443.365 491.436 439.135 C 497.784 436.534 508.722 420.195 517.039 427.189 C 519.793 429.505 520.005 433.609 518.213 436.57 C 511.901 447.001 501.356 462.669 520.95 467.617 C 528.118 469.427 536.283 470.138 538.879 461.977 C 540.126 458.054 540.286 450.182 545.864 449.785 C 553.292 449.257 554.694 461.978 559.102 465.565 C 565.394 470.684 574.809 465.043 576.287 458.214 C 581.263 435.226 554.586 429.032 547.774 411.565 C 545.721 406.304 544.796 398.871 551.446 396.773 C 562.664 393.235 573.865 398.934 584.413 401.583 C 586.603 402.133 592.4 403.736 593.02 406.33 C 593.537 408.493 586.06 417.959 585.569 418.747 C 579.606 428.329 578.344 434.429 590.183 439.058 C 609.361 446.555 606.631 429.495 617.705 420.111 C 618.95 419.056 620.524 418.944 622.028 419.414 C 631.459 422.355 634.82 434.537 643.808 438.939 C 649.145 441.552 663.014 445.546 668.069 440.376 C 673.137 435.192 664.697 422.832 661.314 418.605 C 655.942 411.893 647.42 405.514 640.334 400.495 C 629.501 392.82 614.964 391.245 605.379 381.533 C 596.923 372.964 618.269 371.122 622.525 375.378 L 622.525 375.378" id="Path" fill="none" vector-effect="non-scaling-stroke" stroke-width="1" stroke="rgb(175,0,219)" stroke-linejoin="miter" stroke-linecap="square" stroke-miterlimit="3"/><path d=" M 627.525 378.973 L 622.525 368.973 L 617.525 378.973 Z " fill="rgb(175,0,219)" stroke="none"/><text transform="matrix(1,0,0,1,538.978,483.841)" id="Text" style="font-family:'PT Serif';font-weight:400;font-size:12px;font-style:normal;fill:#af00db;stroke:none;">Traversal</text></svg>