<?xml version="1.0" encoding="UTF-8" standalone="no"?><!-- Generator: Gravit.io --><svg xmlns="http://www.w3.org/2000/svg" xmlns:xlink="http://www.w3.org/1999/xlink" style="isolation:isolate" viewBox="535.155 316.86 276.319 171.144" width="276.319pt" height="171.144pt"><text transform="matrix(1,0,0,1,535.255,327.48)" id="highlight=ts" style="font-family:'PT Mono';font-weight:400;font-size:12px;font-style:normal;fill:#000000;stroke:none;">parameter</text><text transform="matrix(1,0,0,1,538.855,371.063)" id="highlight=ts" style="font-family:'PT Mono';font-weight:400;font-size:12px;font-style:normal;fill:#000000;stroke:none;">argument</text><text transform="matrix(1,0,0,1,553.255,437.32)" id="highlight=ts" style="font-family:'PT Mono';font-weight:400;font-size:12px;font-style:normal;fill:#000000;stroke:none;">body</text><text transform="matrix(1,0,0,1,602.955,437.32)" id="highlight=ts" style="font-family:'PT Mono';font-weight:400;font-size:12px;font-style:normal;fill:#000000;stroke:none;">substitute()</text><text transform="matrix(1,0,0,1,700.975,437.32)" id="highlight=ts" style="font-family:'PT Mono';font-weight:400;font-size:12px;font-style:normal;fill:#000000;stroke:none;">substitutedBody</text><path d=" M 662.252 458.591 L 652.092 451.342 C 651.433 450.871 650.505 451.342 650.505 452.153 L 650.505 457.217 C 650.505 457.769 650.08 458.217 649.528 458.217 L 625.528 458.217 C 624.976 458.217 624.505 458.665 624.505 459.217 L 624.505 461.217 C 624.505 461.769 624.976 462.217 625.528 462.217 L 649.528 462.217 C 650.08 462.217 650.505 462.665 650.505 463.217 L 650.505 468.281 C 650.505 469.091 651.432 469.563 652.092 469.092 L 662.246 461.843 C 662.772 461.469 663.085 460.864 663.086 460.218 C 663.087 459.573 662.777 458.967 662.252 458.591 Z " id="Path" fill="rgb(0,0,0)"/><path d=" M 551.974 447.522 C 553.446 464.125 561.346 468.588 572.994 469.092 C 584.642 469.596 580.425 452.528 595.831 449.079" id="Path" fill="none" vector-effect="non-scaling-stroke" stroke-width="1" stroke="rgb(175,0,219)" stroke-linejoin="miter" stroke-linecap="square" stroke-miterlimit="3"/><path d=" M 594.008 453.618 L 600.877 447.89 L 592.173 445.831 Z " fill="rgb(175,0,219)" stroke="none"/><text transform="matrix(1,0,0,1,543.097,484.572)" id="Text" style="font-family:'PT Serif';font-weight:400;font-size:12px;font-style:normal;fill:#af00db;stroke:none;">Traversal</text><g id="Group"><text transform="matrix(1,0,0,1,564.786,342.957)" id="Text" style="font-family:'PT Mono';font-weight:400;font-size:12px;font-style:normal;fill:#ff0000;stroke:none;">y</text><circle vector-effect="non-scaling-stroke" cx="568.6552296875855" cy="340" r="6.989833255903818" id="Ellipse" fill="none" stroke-width="1" stroke="rgb(255,0,0)" stroke-linejoin="miter" stroke-linecap="square" stroke-miterlimit="3"/></g><g id="Group"><text transform="matrix(1,0,0,1,564.786,454.448)" id="Text" style="font-family:'PT Mono';font-weight:400;font-size:12px;font-style:normal;fill:#ff0000;stroke:none;">y</text><circle vector-effect="non-scaling-stroke" cx="568.6552296875855" cy="451.4909348689529" r="6.989833255903818" id="Ellipse" fill="none" stroke-width="1" stroke="rgb(255,0,0)" stroke-linejoin="miter" stroke-linecap="square" stroke-miterlimit="3"/></g><g id="Group"><g id="Group"><text transform="matrix(1,0,0,1,549.396,411.797)" id="Text" style="font-family:'PT Mono';font-weight:400;font-size:12px;font-style:normal;fill:#008000;stroke:none;">x</text><circle vector-effect="non-scaling-stroke" cx="553.1882003541851" cy="408.16666666666663" r="6.989833255903818" id="Ellipse" fill="none" stroke-width="1" stroke="rgb(0,128,0)" stroke-linejoin="miter" stroke-linecap="square" stroke-miterlimit="3"/></g><g id="Group"><text transform="matrix(1,0,0,1,580.33,411.797)" id="Text" style="font-family:'PT Mono';font-weight:400;font-size:12px;font-style:normal;fill:#008000;stroke:none;">x</text><circle vector-effect="non-scaling-stroke" cx="584.1222590209858" cy="408.16666666666663" r="6.989833255903818" id="Ellipse" fill="none" stroke-width="1" stroke="rgb(0,128,0)" stroke-linejoin="miter" stroke-linecap="square" stroke-miterlimit="3"/></g><g id="Group"><text transform="matrix(1,0,0,1,561.854,391.353)" id="Text" style="font-family:'PT Mono';font-weight:400;font-size:12px;font-style:normal;fill:#008000;stroke:none;">=&#x3E;</text><circle vector-effect="non-scaling-stroke" cx="568.6552296875853" cy="387.7229586818709" r="9.898768432435645" id="Ellipse" fill="none" stroke-width="1" stroke="rgb(0,128,0)" stroke-linejoin="miter" stroke-linecap="square" stroke-miterlimit="3"/></g><line x1="575.991" y1="395.231" x2="581.627" y2="401.177" id="Path" vector-effect="non-scaling-stroke" stroke-width="1" stroke="rgb(0,128,0)" stroke-linejoin="miter" stroke-linecap="square" stroke-miterlimit="3"/><line x1="561.178" y1="394.852" x2="556.112" y2="401.177" id="Path" vector-effect="non-scaling-stroke" stroke-width="1" stroke="rgb(0,128,0)" stroke-linejoin="miter" stroke-linecap="square" stroke-miterlimit="3"/></g><g id="Group"><g id="Group"><text transform="matrix(1,0,0,1,736.715,477.801)" id="Text" style="font-family:'PT Mono';font-weight:400;font-size:12px;font-style:normal;fill:#008000;stroke:none;">x</text><circle vector-effect="non-scaling-stroke" cx="740.5074708929019" cy="474.17049168947415" r="6.989833255903818" id="Ellipse" fill="none" stroke-width="1" stroke="rgb(0,128,0)" stroke-linejoin="miter" stroke-linecap="square" stroke-miterlimit="3"/></g><g id="Group"><text transform="matrix(1,0,0,1,767.649,477.801)" id="Text" style="font-family:'PT Mono';font-weight:400;font-size:12px;font-style:normal;fill:#008000;stroke:none;">x</text><circle vector-effect="non-scaling-stroke" cx="771.4415295597025" cy="474.17049168947415" r="6.989833255903818" id="Ellipse" fill="none" stroke-width="1" stroke="rgb(0,128,0)" stroke-linejoin="miter" stroke-linecap="square" stroke-miterlimit="3"/></g><g id="Group"><text transform="matrix(1,0,0,1,749.173,457.357)" id="Text" style="font-family:'PT Mono';font-weight:400;font-size:12px;font-style:normal;fill:#008000;stroke:none;">=&#x3E;</text><circle vector-effect="non-scaling-stroke" cx="755.9745002263021" cy="453.7267837046784" r="9.898768432435645" id="Ellipse" fill="none" stroke-width="1" stroke="rgb(0,128,0)" stroke-linejoin="miter" stroke-linecap="square" stroke-miterlimit="3"/></g><line x1="763.31" y1="461.234" x2="768.946" y2="467.181" id="Path" vector-effect="non-scaling-stroke" stroke-width="1" stroke="rgb(0,128,0)" stroke-linejoin="miter" stroke-linecap="square" stroke-miterlimit="3"/><line x1="748.497" y1="460.856" x2="743.431" y2="467.181" id="Path" vector-effect="non-scaling-stroke" stroke-width="1" stroke="rgb(0,128,0)" stroke-linejoin="miter" stroke-linecap="square" stroke-miterlimit="3"/></g></svg>