<?xml version="1.0" encoding="UTF-8" standalone="no"?><!-- Generator: Gravit.io --><svg xmlns="http://www.w3.org/2000/svg" xmlns:xlink="http://www.w3.org/1999/xlink" style="isolation:isolate" viewBox="565.255 317.421 237.243 301.28" width="237.243pt" height="301.28pt"><g id="Group"><text transform="matrix(1,0,0,1,626.758,553.513)" id="highlight=ts" style="font-family:'PT Mono';font-weight:400;font-size:12px;font-style:normal;fill:#000000;stroke:none;">generate()</text><path d="M 624.238 535.856 L 703.278 535.856 C 704.933 535.856 706.278 537.201 706.278 538.856 L 706.278 560.369 C 706.278 562.025 704.933 563.369 703.278 563.369 L 624.238 563.369 C 622.583 563.369 621.238 562.025 621.238 560.369 L 621.238 538.856 C 621.238 537.201 622.583 535.856 624.238 535.856 Z" style="fill:none;stroke:#000000;stroke-width:1;stroke-linecap:square;stroke-miterlimit:2;"/></g><g id="Group"><text transform="matrix(1,0,0,1,644.758,485.548)" id="highlight=ts" style="font-family:'PT Mono';font-weight:400;font-size:12px;font-style:normal;fill:#000000;stroke:none;">run()</text><path d="M 624.238 467.891 L 703.278 467.891 C 704.933 467.891 706.278 469.236 706.278 470.891 L 706.278 492.404 C 706.278 494.06 704.933 495.404 703.278 495.404 L 624.238 495.404 C 622.583 495.404 621.238 494.06 621.238 492.404 L 621.238 470.891 C 621.238 469.236 622.583 467.891 624.238 467.891 Z" style="fill:none;stroke:#000000;stroke-width:1;stroke-linecap:square;stroke-miterlimit:2;"/></g><g id="Group"><text transform="matrix(1,0,0,1,637.558,390.091)" id="highlight=ts" style="font-family:'PT Mono';font-weight:400;font-size:12px;font-style:normal;fill:#000000;stroke:none;">parse()</text><path d="M 624.238 372.434 L 703.278 372.434 C 704.933 372.434 706.278 373.779 706.278 375.434 L 706.278 396.947 C 706.278 398.603 704.933 399.947 703.278 399.947 L 624.238 399.947 C 622.583 399.947 621.238 398.603 621.238 396.947 L 621.238 375.434 C 621.238 373.779 622.583 372.434 624.238 372.434 Z" style="fill:none;stroke:#000000;stroke-width:1;stroke-linecap:square;stroke-miterlimit:2;"/></g><line x1="663.758" y1="317.921" x2="663.758" y2="362.706" id="Path" vector-effect="non-scaling-stroke" stroke-width="1" stroke="rgb(0,0,0)" stroke-linejoin="miter" stroke-linecap="square" stroke-miterlimit="3"/><path d=" M 659.258 363.206 L 663.758 372.206 L 668.258 363.206 Z " fill="rgb(0,0,0)" stroke="none"/><line x1="663.758" y1="400.568" x2="663.758" y2="457.694" id="Path" vector-effect="non-scaling-stroke" stroke-width="1" stroke="rgb(0,0,0)" stroke-linejoin="miter" stroke-linecap="square" stroke-miterlimit="3"/><path d=" M 659.258 458.194 L 663.758 467.194 L 668.258 458.194 Z " fill="rgb(0,0,0)" stroke="none"/><line x1="663.758" y1="495.404" x2="663.758" y2="525.589" id="Path" vector-effect="non-scaling-stroke" stroke-width="1" stroke="rgb(0,0,0)" stroke-linejoin="miter" stroke-linecap="square" stroke-miterlimit="3"/><path d=" M 659.258 526.089 L 663.758 535.089 L 668.258 526.089 Z " fill="rgb(0,0,0)" stroke="none"/><line x1="663.758" y1="563.84" x2="663.758" y2="608.202" id="Path" vector-effect="non-scaling-stroke" stroke-width="1" stroke="rgb(0,0,0)" stroke-linejoin="miter" stroke-linecap="square" stroke-miterlimit="3"/><path d=" M 659.258 608.702 L 663.758 617.702 L 668.258 608.702 Z " fill="rgb(0,0,0)" stroke="none"/><g id="Group"><text transform="matrix(1,0,0,1,571.662,355.287)" id="highlight=ts" style="font-family:'PT Mono';font-weight:400;font-size:12px;font-style:normal;fill:#000000;stroke:none;">evaluate()</text><path d="M 568.755 335.964 L 798.997 335.964 C 800.653 335.964 801.997 337.308 801.997 338.964 L 801.997 594.668 C 801.997 596.324 800.653 597.668 798.997 597.668 L 568.755 597.668 C 567.099 597.668 565.755 596.324 565.755 594.668 L 565.755 338.964 C 565.755 337.308 567.099 335.964 568.755 335.964 Z" style="fill:none;stroke:#000000;stroke-width:1;stroke-linecap:square;stroke-miterlimit:2;"/></g><text transform="matrix(1,0,0,1,679.164,355.287)" id="highlight=js" style="font-family:'PT Mono';font-weight:400;font-size:12px;font-style:normal;fill:#000000;stroke:none;">(y =&#x3E; y)(x =&#x3E; x)</text><text transform="matrix(1,0,0,1,693.846,585.832)" id="highlight=js" style="font-family:'PT Mono';font-weight:400;font-size:12px;font-style:normal;fill:#000000;stroke:none;">(x =&#x3E; x)</text><g id="Group"><g id="Group"><text transform="matrix(1,0,0,1,703.294,526.827)" id="highlight=js" style="font-family:'PT Mono';font-weight:400;font-size:12px;font-style:normal;fill:#000000;stroke:none;">x</text><circle vector-effect="non-scaling-stroke" cx="706.8944788974279" cy="523.1970359560062" r="6.989833255903818" id="Ellipse" fill="none" stroke-width="1" stroke="rgb(0,0,0)" stroke-linejoin="miter" stroke-linecap="square" stroke-miterlimit="3"/></g><g id="Group"><text transform="matrix(1,0,0,1,712.039,505.895)" id="highlight=js" style="font-family:'PT Mono';font-weight:400;font-size:12px;font-style:normal;fill:#000000;stroke:none;">=&#x3E;</text><circle vector-effect="non-scaling-stroke" cx="718.7439656709356" cy="502.26528123921895" r="9.994916627951966" id="Ellipse" fill="none" stroke-width="1" stroke="rgb(0,0,0)" stroke-linejoin="miter" stroke-linecap="square" stroke-miterlimit="3"/></g><g id="Group"><text transform="matrix(1,0,0,1,727.174,526.827)" id="highlight=js" style="font-family:'PT Mono';font-weight:400;font-size:12px;font-style:normal;fill:#000000;stroke:none;">x</text><circle vector-effect="non-scaling-stroke" cx="730.7743680813685" cy="523.1970359560062" r="6.989833255903818" id="Ellipse" fill="none" stroke-width="1" stroke="rgb(0,0,0)" stroke-linejoin="miter" stroke-linecap="square" stroke-miterlimit="3"/></g><line x1="710.571" y1="517.055" x2="714.404" y2="511.564" id="Path" vector-effect="non-scaling-stroke" stroke-width="1" stroke="rgb(0,0,0)" stroke-linejoin="miter" stroke-linecap="square" stroke-miterlimit="3"/><line x1="724.557" y1="510.735" x2="728.183" y2="516.207" id="Path" vector-effect="non-scaling-stroke" stroke-width="1" stroke="rgb(0,0,0)" stroke-linejoin="miter" stroke-linecap="square" stroke-miterlimit="3"/></g><g id="Group"><g id="Group"><g id="Group"><text transform="matrix(1,0,0,1,739.084,453.928)" id="highlight=js" style="font-family:'PT Mono';font-weight:400;font-size:12px;font-style:normal;fill:#000000;stroke:none;">x</text><circle vector-effect="non-scaling-stroke" cx="742.6837540252285" cy="450.2973708702103" r="6.989833255903818" id="Ellipse" fill="none" stroke-width="1" stroke="rgb(0,0,0)" stroke-linejoin="miter" stroke-linecap="square" stroke-miterlimit="3"/></g><g id="Group"><text transform="matrix(1,0,0,1,747.828,432.996)" id="highlight=js" style="font-family:'PT Mono';font-weight:400;font-size:12px;font-style:normal;fill:#000000;stroke:none;">=&#x3E;</text><circle vector-effect="non-scaling-stroke" cx="754.5332407987363" cy="429.36561615342316" r="9.994916627951966" id="Ellipse" fill="none" stroke-width="1" stroke="rgb(0,0,0)" stroke-linejoin="miter" stroke-linecap="square" stroke-miterlimit="3"/></g><g id="Group"><text transform="matrix(1,0,0,1,762.964,453.928)" id="highlight=js" style="font-family:'PT Mono';font-weight:400;font-size:12px;font-style:normal;fill:#000000;stroke:none;">x</text><circle vector-effect="non-scaling-stroke" cx="766.5636432091691" cy="450.2973708702103" r="6.989833255903818" id="Ellipse" fill="none" stroke-width="1" stroke="rgb(0,0,0)" stroke-linejoin="miter" stroke-linecap="square" stroke-miterlimit="3"/></g><line x1="746.36" y1="444.155" x2="750.193" y2="438.664" id="Path" vector-effect="non-scaling-stroke" stroke-width="1" stroke="rgb(0,0,0)" stroke-linejoin="miter" stroke-linecap="square" stroke-miterlimit="3"/><line x1="760.346" y1="437.835" x2="763.973" y2="443.308" id="Path" vector-effect="non-scaling-stroke" stroke-width="1" stroke="rgb(0,0,0)" stroke-linejoin="miter" stroke-linecap="square" stroke-miterlimit="3"/></g><g id="Group"><g id="Group"><text transform="matrix(1,0,0,1,692.374,453.928)" id="highlight=js" style="font-family:'PT Mono';font-weight:400;font-size:12px;font-style:normal;fill:#000000;stroke:none;">y</text><circle vector-effect="non-scaling-stroke" cx="695.9740877231" cy="450.2973708702103" r="6.989833255903818" id="Ellipse" fill="none" stroke-width="1" stroke="rgb(0,0,0)" stroke-linejoin="miter" stroke-linecap="square" stroke-miterlimit="3"/></g><g id="Group"><text transform="matrix(1,0,0,1,701.118,432.996)" id="highlight=js" style="font-family:'PT Mono';font-weight:400;font-size:12px;font-style:normal;fill:#000000;stroke:none;">=&#x3E;</text><circle vector-effect="non-scaling-stroke" cx="707.8235744966075" cy="429.36561615342316" r="9.994916627951966" id="Ellipse" fill="none" stroke-width="1" stroke="rgb(0,0,0)" stroke-linejoin="miter" stroke-linecap="square" stroke-miterlimit="3"/></g><g id="Group"><text transform="matrix(1,0,0,1,716.254,453.928)" id="highlight=js" style="font-family:'PT Mono';font-weight:400;font-size:12px;font-style:normal;fill:#000000;stroke:none;">y</text><circle vector-effect="non-scaling-stroke" cx="719.8539769070405" cy="450.2973708702103" r="6.989833255903818" id="Ellipse" fill="none" stroke-width="1" stroke="rgb(0,0,0)" stroke-linejoin="miter" stroke-linecap="square" stroke-miterlimit="3"/></g><line x1="699.65" y1="444.155" x2="703.484" y2="438.664" id="Path" vector-effect="non-scaling-stroke" stroke-width="1" stroke="rgb(0,0,0)" stroke-linejoin="miter" stroke-linecap="square" stroke-miterlimit="3"/><line x1="713.637" y1="437.835" x2="717.263" y2="443.308" id="Path" vector-effect="non-scaling-stroke" stroke-width="1" stroke="rgb(0,0,0)" stroke-linejoin="miter" stroke-linecap="square" stroke-miterlimit="3"/></g><g id="Group"><g id="Group"><text transform="matrix(1,0,0,1,717.195,403.796)" id="Text" style="font-family:'PT Mono';font-weight:400;font-size:12px;font-style:normal;fill:#000000;stroke:none;">call</text><circle vector-effect="non-scaling-stroke" cx="731.0997268903157" cy="400.16537703881687" r="16.994916627951852" id="Ellipse" fill="none" stroke-width="1" stroke="rgb(0,0,0)" stroke-linejoin="miter" stroke-linecap="square" stroke-miterlimit="3"/></g></g><line x1="712.919" y1="420.197" x2="720.03" y2="413.865" id="Path" vector-effect="non-scaling-stroke" stroke-width="1" stroke="rgb(0,0,0)" stroke-linejoin="miter" stroke-linecap="square" stroke-miterlimit="3"/><line x1="743.313" y1="412.307" x2="751.593" y2="419.371" id="Path" vector-effect="non-scaling-stroke" stroke-width="1" stroke="rgb(0,0,0)" stroke-linejoin="miter" stroke-linecap="square" stroke-miterlimit="3"/></g></svg>