<?xml version="1.0" encoding="UTF-8" standalone="no"?><!-- Generator: Gravit.io --><svg xmlns="http://www.w3.org/2000/svg" xmlns:xlink="http://www.w3.org/1999/xlink" style="isolation:isolate" viewBox="544.84 341.729 276.319 186.543" width="276.319pt" height="186.543pt"><text transform="matrix(1,0,0,1,544.94,352.349)" id="highlight=ts" style="font-family:'PT Mono';font-weight:400;font-size:12px;font-style:normal;fill:#000000;stroke:none;">parameter</text><text transform="matrix(1,0,0,1,548.54,395.932)" id="highlight=ts" style="font-family:'PT Mono';font-weight:400;font-size:12px;font-style:normal;fill:#000000;stroke:none;">argument</text><text transform="matrix(1,0,0,1,562.94,462.189)" id="highlight=ts" style="font-family:'PT Mono';font-weight:400;font-size:12px;font-style:normal;fill:#000000;stroke:none;">body</text><text transform="matrix(1,0,0,1,612.64,462.189)" id="highlight=ts" style="font-family:'PT Mono';font-weight:400;font-size:12px;font-style:normal;fill:#000000;stroke:none;">substitute()</text><text transform="matrix(1,0,0,1,710.66,462.189)" id="highlight=ts" style="font-family:'PT Mono';font-weight:400;font-size:12px;font-style:normal;fill:#000000;stroke:none;">substitutedBody</text><path d=" M 671.937 483.46 L 661.777 476.211 C 661.118 475.74 660.19 476.211 660.19 477.022 L 660.19 482.086 C 660.19 482.638 659.765 483.086 659.213 483.086 L 635.213 483.086 C 634.661 483.086 634.19 483.534 634.19 484.086 L 634.19 486.086 C 634.19 486.638 634.661 487.086 635.213 487.086 L 659.213 487.086 C 659.765 487.086 660.19 487.534 660.19 488.086 L 660.19 493.15 C 660.19 493.96 661.117 494.432 661.777 493.961 L 671.931 486.712 C 672.457 486.337 672.77 485.732 672.771 485.087 C 672.772 484.442 672.462 483.836 671.937 483.46 Z " id="Path" fill="rgb(0,0,0)"/><path d=" M 561.659 472.39 C 559.739 478.236 541.845 506.429 558.51 509.912 C 572.533 512.842 571.896 492.668 578.768 491.825 C 583.608 491.78 583.703 522.512 603.705 504.512 C 617.108 491.064 575.207 472.369 607.441 473.947 L 607.441 473.947" id="Path" fill="none" vector-effect="non-scaling-stroke" stroke-width="1" stroke="rgb(175,0,219)" stroke-linejoin="miter" stroke-linecap="square" stroke-miterlimit="3"/><path d=" M 611.441 476.762 L 607.441 468.762 L 603.441 476.762 Z " fill="rgb(175,0,219)" stroke="none"/><text transform="matrix(1,0,0,1,552.782,524.839)" id="Text" style="font-family:'PT Serif';font-weight:400;font-size:12px;font-style:normal;fill:#af00db;stroke:none;">Traversal</text><text transform="matrix(1,0,0,1,574.471,367.826)" id="Text" style="font-family:'PT Mono';font-weight:400;font-size:12px;font-style:normal;fill:#ff0000;stroke:none;">z</text><circle vector-effect="non-scaling-stroke" cx="578.3403647306416" cy="364.8687478325504" r="6.989833255903818" id="Ellipse" fill="none" stroke-width="1" stroke="rgb(255,0,0)" stroke-linejoin="miter" stroke-linecap="square" stroke-miterlimit="3"/><text transform="matrix(1,0,0,1,559.081,436.666)" id="Text" style="font-family:'PT Mono';font-weight:400;font-size:12px;font-style:normal;fill:#008000;stroke:none;">y</text><circle vector-effect="non-scaling-stroke" cx="562.8733353972414" cy="433.03541449921704" r="6.989833255903818" id="Ellipse" fill="none" stroke-width="1" stroke="rgb(0,128,0)" stroke-linejoin="miter" stroke-linecap="square" stroke-miterlimit="3"/><text transform="matrix(1,0,0,1,590.015,436.666)" id="Text" style="font-family:'PT Mono';font-weight:400;font-size:12px;font-style:normal;fill:#008000;stroke:none;">y</text><circle vector-effect="non-scaling-stroke" cx="593.807394064042" cy="433.03541449921704" r="6.989833255903818" id="Ellipse" fill="none" stroke-width="1" stroke="rgb(0,128,0)" stroke-linejoin="miter" stroke-linecap="square" stroke-miterlimit="3"/><text transform="matrix(1,0,0,1,571.539,416.222)" id="Text" style="font-family:'PT Mono';font-weight:400;font-size:12px;font-style:normal;fill:#008000;stroke:none;">=&#x3E;</text><circle vector-effect="non-scaling-stroke" cx="578.3403647306416" cy="412.5917065144213" r="9.898768432435645" id="Ellipse" fill="none" stroke-width="1" stroke="rgb(0,128,0)" stroke-linejoin="miter" stroke-linecap="square" stroke-miterlimit="3"/><line x1="585.676" y1="420.099" x2="591.312" y2="426.046" id="Path" vector-effect="non-scaling-stroke" stroke-width="1" stroke="rgb(0,128,0)" stroke-linejoin="miter" stroke-linecap="square" stroke-miterlimit="3"/><line x1="570.863" y1="419.721" x2="565.797" y2="426.046" id="Path" vector-effect="non-scaling-stroke" stroke-width="1" stroke="rgb(0,128,0)" stroke-linejoin="miter" stroke-linecap="square" stroke-miterlimit="3"/><g id="Group"><text transform="matrix(1,0,0,1,559.081,500.392)" id="Text" style="font-family:'PT Mono';font-weight:400;font-size:12px;font-style:normal;fill:#000000;stroke:none;">x</text><circle vector-effect="non-scaling-stroke" cx="562.8733353972414" cy="496.761760589789" r="6.989833255903818" id="Ellipse" fill="none" stroke-width="1" stroke="rgb(0,0,0)" stroke-linejoin="miter" stroke-linecap="square" stroke-miterlimit="3"/><text transform="matrix(1,0,0,1,571.539,479.948)" id="Text" style="font-family:'PT Mono';font-weight:400;font-size:12px;font-style:normal;fill:#000000;stroke:none;">=&#x3E;</text><circle vector-effect="non-scaling-stroke" cx="578.3403647306416" cy="476.3180526049932" r="9.898768432435645" id="Ellipse" fill="none" stroke-width="1" stroke="rgb(0,0,0)" stroke-linejoin="miter" stroke-linecap="square" stroke-miterlimit="3"/><line x1="585.676" y1="483.826" x2="591.312" y2="489.772" id="Path" vector-effect="non-scaling-stroke" stroke-width="1" stroke="rgb(0,0,0)" stroke-linejoin="miter" stroke-linecap="square" stroke-miterlimit="3"/><line x1="570.863" y1="483.447" x2="565.797" y2="489.772" id="Path" vector-effect="non-scaling-stroke" stroke-width="1" stroke="rgb(0,0,0)" stroke-linejoin="miter" stroke-linecap="square" stroke-miterlimit="3"/><text transform="matrix(1,0,0,1,589.938,499.719)" id="Text" style="font-family:'PT Mono';font-weight:400;font-size:12px;font-style:normal;fill:#000000;stroke:none;">x</text><circle vector-effect="non-scaling-stroke" cx="593.807394064042" cy="496.761760589789" r="6.989833255903818" id="Ellipse" fill="none" stroke-width="1" stroke="rgb(0,0,0)" stroke-linejoin="miter" stroke-linecap="square" stroke-miterlimit="3"/></g><g id="Group"><text transform="matrix(1,0,0,1,746.4,500.392)" id="Text" style="font-family:'PT Mono';font-weight:400;font-size:12px;font-style:normal;fill:#000000;stroke:none;">x</text><circle vector-effect="non-scaling-stroke" cx="750.1926059359581" cy="496.76176058978905" r="6.989833255903818" id="Ellipse" fill="none" stroke-width="1" stroke="rgb(0,0,0)" stroke-linejoin="miter" stroke-linecap="square" stroke-miterlimit="3"/><text transform="matrix(1,0,0,1,758.858,479.948)" id="Text" style="font-family:'PT Mono';font-weight:400;font-size:12px;font-style:normal;fill:#000000;stroke:none;">=&#x3E;</text><circle vector-effect="non-scaling-stroke" cx="765.6596352693583" cy="476.3180526049932" r="9.898768432435645" id="Ellipse" fill="none" stroke-width="1" stroke="rgb(0,0,0)" stroke-linejoin="miter" stroke-linecap="square" stroke-miterlimit="3"/><line x1="772.995" y1="483.826" x2="778.631" y2="489.772" id="Path" vector-effect="non-scaling-stroke" stroke-width="1" stroke="rgb(0,0,0)" stroke-linejoin="miter" stroke-linecap="square" stroke-miterlimit="3"/><line x1="758.182" y1="483.447" x2="753.116" y2="489.772" id="Path" vector-effect="non-scaling-stroke" stroke-width="1" stroke="rgb(0,0,0)" stroke-linejoin="miter" stroke-linecap="square" stroke-miterlimit="3"/><text transform="matrix(1,0,0,1,777.257,499.719)" id="Text" style="font-family:'PT Mono';font-weight:400;font-size:12px;font-style:normal;fill:#000000;stroke:none;">x</text><circle vector-effect="non-scaling-stroke" cx="781.1266646027588" cy="496.76176058978905" r="6.989833255903818" id="Ellipse" fill="none" stroke-width="1" stroke="rgb(0,0,0)" stroke-linejoin="miter" stroke-linecap="square" stroke-miterlimit="3"/></g></svg>