<?xml version="1.0" encoding="UTF-8" standalone="no"?><!-- Generator: Gravit.io --><svg xmlns="http://www.w3.org/2000/svg" xmlns:xlink="http://www.w3.org/1999/xlink" style="isolation:isolate" viewBox="532.657 321.287 276.319 186.543" width="276.319pt" height="186.543pt"><text transform="matrix(1,0,0,1,532.757,331.907)" id="highlight=ts" style="font-family:'PT Mono';font-weight:400;font-size:12px;font-style:normal;fill:#000000;stroke:none;">parameter</text><text transform="matrix(1,0,0,1,536.357,375.49)" id="highlight=ts" style="font-family:'PT Mono';font-weight:400;font-size:12px;font-style:normal;fill:#000000;stroke:none;">argument</text><text transform="matrix(1,0,0,1,550.757,441.747)" id="highlight=ts" style="font-family:'PT Mono';font-weight:400;font-size:12px;font-style:normal;fill:#000000;stroke:none;">body</text><text transform="matrix(1,0,0,1,600.457,441.747)" id="highlight=ts" style="font-family:'PT Mono';font-weight:400;font-size:12px;font-style:normal;fill:#000000;stroke:none;">substitute()</text><text transform="matrix(1,0,0,1,698.476,441.747)" id="highlight=ts" style="font-family:'PT Mono';font-weight:400;font-size:12px;font-style:normal;fill:#000000;stroke:none;">substitutedBody</text><path d=" M 659.754 463.017 L 649.594 455.768 C 648.935 455.297 648.007 455.768 648.007 456.579 L 648.007 461.643 C 648.007 462.195 647.582 462.643 647.03 462.643 L 623.03 462.643 C 622.478 462.643 622.007 463.091 622.007 463.643 L 622.007 465.643 C 622.007 466.195 622.478 466.643 623.03 466.643 L 647.03 466.643 C 647.582 466.643 648.007 467.091 648.007 467.643 L 648.007 472.707 C 648.007 473.517 648.934 473.989 649.594 473.518 L 659.748 466.269 C 660.274 465.895 660.587 465.29 660.588 464.645 C 660.589 464 660.279 463.393 659.754 463.017 Z " id="Path" fill="rgb(0,0,0)"/><path d=" M 549.476 451.948 C 547.556 457.794 529.662 485.987 546.327 489.47" id="Path" fill="none" vector-effect="non-scaling-stroke" stroke-width="1" stroke="rgb(175,0,219)" stroke-linejoin="miter" stroke-linecap="square" stroke-miterlimit="3"/><path d=" M 545.841 493.462 L 547.622 485.663" fill="none" stroke="rgb(175,0,219)" stroke-width="1"/><text transform="matrix(1,0,0,1,540.599,504.397)" id="Text" style="font-family:'PT Serif';font-weight:400;font-size:12px;font-style:normal;fill:#af00db;stroke:none;">Traversal</text><text transform="matrix(1,0,0,1,562.288,347.384)" id="Text" style="font-family:'PT Mono';font-weight:400;font-size:12px;font-style:normal;fill:#ff0000;stroke:none;">x</text><circle vector-effect="non-scaling-stroke" cx="566.1571393265756" cy="344.4266744491929" r="6.989833255903818" id="Ellipse" fill="none" stroke-width="1" stroke="rgb(255,0,0)" stroke-linejoin="miter" stroke-linecap="square" stroke-miterlimit="3"/><text transform="matrix(1,0,0,1,546.898,416.224)" id="Text" style="font-family:'PT Mono';font-weight:400;font-size:12px;font-style:normal;fill:#000000;stroke:none;">y</text><circle vector-effect="non-scaling-stroke" cx="550.6901099931754" cy="412.5933411158595" r="6.989833255903818" id="Ellipse" fill="none" stroke-width="1" stroke="rgb(0,0,0)" stroke-linejoin="miter" stroke-linecap="square" stroke-miterlimit="3"/><text transform="matrix(1,0,0,1,577.832,416.224)" id="Text" style="font-family:'PT Mono';font-weight:400;font-size:12px;font-style:normal;fill:#000000;stroke:none;">y</text><circle vector-effect="non-scaling-stroke" cx="581.624168659976" cy="412.5933411158595" r="6.989833255903818" id="Ellipse" fill="none" stroke-width="1" stroke="rgb(0,0,0)" stroke-linejoin="miter" stroke-linecap="square" stroke-miterlimit="3"/><text transform="matrix(1,0,0,1,559.356,395.78)" id="Text" style="font-family:'PT Mono';font-weight:400;font-size:12px;font-style:normal;fill:#000000;stroke:none;">=&#x3E;</text><circle vector-effect="non-scaling-stroke" cx="566.1571393265756" cy="392.14963313106375" r="9.898768432435645" id="Ellipse" fill="none" stroke-width="1" stroke="rgb(0,0,0)" stroke-linejoin="miter" stroke-linecap="square" stroke-miterlimit="3"/><line x1="573.493" y1="399.657" x2="579.129" y2="405.603" id="Path" vector-effect="non-scaling-stroke" stroke-width="1" stroke="rgb(0,0,0)" stroke-linejoin="miter" stroke-linecap="square" stroke-miterlimit="3"/><line x1="558.68" y1="399.279" x2="553.614" y2="405.603" id="Path" vector-effect="non-scaling-stroke" stroke-width="1" stroke="rgb(0,0,0)" stroke-linejoin="miter" stroke-linecap="square" stroke-miterlimit="3"/><g id="Group"><text transform="matrix(1,0,0,1,546.898,479.95)" id="Text" style="font-family:'PT Mono';font-weight:400;font-size:12px;font-style:normal;fill:#008000;stroke:none;">x</text><circle vector-effect="non-scaling-stroke" cx="550.6901099931754" cy="476.31968720643147" r="6.989833255903818" id="Ellipse" fill="none" stroke-width="1" stroke="rgb(0,0,0)" stroke-linejoin="miter" stroke-linecap="square" stroke-miterlimit="3"/><text transform="matrix(1,0,0,1,559.356,459.506)" id="Text" style="font-family:'PT Mono';font-weight:400;font-size:12px;font-style:normal;fill:#000000;stroke:none;">=&#x3E;</text><circle vector-effect="non-scaling-stroke" cx="566.1571393265756" cy="455.8759792216357" r="9.898768432435645" id="Ellipse" fill="none" stroke-width="1" stroke="rgb(0,0,0)" stroke-linejoin="miter" stroke-linecap="square" stroke-miterlimit="3"/><line x1="573.493" y1="463.384" x2="579.129" y2="469.33" id="Path" vector-effect="non-scaling-stroke" stroke-width="1" stroke="rgb(0,0,0)" stroke-linejoin="miter" stroke-linecap="square" stroke-miterlimit="3"/><line x1="558.68" y1="463.005" x2="553.614" y2="469.33" id="Path" vector-effect="non-scaling-stroke" stroke-width="1" stroke="rgb(0,0,0)" stroke-linejoin="miter" stroke-linecap="square" stroke-miterlimit="3"/><text transform="matrix(1,0,0,1,577.755,479.277)" id="Text" style="font-family:'PT Mono';font-weight:400;font-size:12px;font-style:normal;fill:#795e26;stroke:none;">x</text><circle vector-effect="non-scaling-stroke" cx="581.624168659976" cy="476.31968720643147" r="6.989833255903818" id="Ellipse" fill="none" stroke-width="1" stroke="rgb(0,0,0)" stroke-linejoin="miter" stroke-linecap="square" stroke-miterlimit="3"/></g><g id="Group"><text transform="matrix(1,0,0,1,734.217,479.95)" id="Text" style="font-family:'PT Mono';font-weight:400;font-size:12px;font-style:normal;fill:#008000;stroke:none;">x</text><circle vector-effect="non-scaling-stroke" cx="738.0093805318921" cy="476.3196872064315" r="6.989833255903818" id="Ellipse" fill="none" stroke-width="1" stroke="rgb(0,0,0)" stroke-linejoin="miter" stroke-linecap="square" stroke-miterlimit="3"/><text transform="matrix(1,0,0,1,746.675,459.506)" id="Text" style="font-family:'PT Mono';font-weight:400;font-size:12px;font-style:normal;fill:#000000;stroke:none;">=&#x3E;</text><circle vector-effect="non-scaling-stroke" cx="753.4764098652923" cy="455.8759792216357" r="9.898768432435645" id="Ellipse" fill="none" stroke-width="1" stroke="rgb(0,0,0)" stroke-linejoin="miter" stroke-linecap="square" stroke-miterlimit="3"/><line x1="760.812" y1="463.384" x2="766.448" y2="469.33" id="Path" vector-effect="non-scaling-stroke" stroke-width="1" stroke="rgb(0,0,0)" stroke-linejoin="miter" stroke-linecap="square" stroke-miterlimit="3"/><line x1="745.999" y1="463.005" x2="740.933" y2="469.33" id="Path" vector-effect="non-scaling-stroke" stroke-width="1" stroke="rgb(0,0,0)" stroke-linejoin="miter" stroke-linecap="square" stroke-miterlimit="3"/><text transform="matrix(1,0,0,1,765.074,479.277)" id="Text" style="font-family:'PT Mono';font-weight:400;font-size:12px;font-style:normal;fill:#795e26;stroke:none;">x</text><circle vector-effect="non-scaling-stroke" cx="768.9434391986928" cy="476.3196872064315" r="6.989833255903818" id="Ellipse" fill="none" stroke-width="1" stroke="rgb(0,0,0)" stroke-linejoin="miter" stroke-linecap="square" stroke-miterlimit="3"/></g></svg>