<?xml version="1.0" encoding="UTF-8" standalone="no"?><!-- Generator: Gravit.io --><svg xmlns="http://www.w3.org/2000/svg" xmlns:xlink="http://www.w3.org/1999/xlink" style="isolation:isolate" viewBox="544.84 349.428 276.319 187.043" width="276.319pt" height="187.043pt"><text transform="matrix(1,0,0,1,544.94,360.048)" id="highlight=ts" style="font-family:'PT Mono';font-weight:400;font-size:12px;font-style:normal;fill:#000000;stroke:none;">parameter</text><text transform="matrix(1,0,0,1,548.54,403.631)" id="highlight=ts" style="font-family:'PT Mono';font-weight:400;font-size:12px;font-style:normal;fill:#000000;stroke:none;">argument</text><text transform="matrix(1,0,0,1,562.94,469.888)" id="highlight=ts" style="font-family:'PT Mono';font-weight:400;font-size:12px;font-style:normal;fill:#000000;stroke:none;">body</text><text transform="matrix(1,0,0,1,612.64,469.888)" id="highlight=ts" style="font-family:'PT Mono';font-weight:400;font-size:12px;font-style:normal;fill:#000000;stroke:none;">substitute()</text><text transform="matrix(1,0,0,1,710.66,469.888)" id="highlight=ts" style="font-family:'PT Mono';font-weight:400;font-size:12px;font-style:normal;fill:#000000;stroke:none;">substitutedBody</text><path d=" M 671.937 491.159 L 661.777 483.91 C 661.118 483.439 660.19 483.91 660.19 484.721 L 660.19 489.785 C 660.19 490.337 659.765 490.785 659.213 490.785 L 635.213 490.785 C 634.661 490.785 634.19 491.233 634.19 491.785 L 634.19 493.785 C 634.19 494.337 634.661 494.785 635.213 494.785 L 659.213 494.785 C 659.765 494.785 660.19 495.233 660.19 495.785 L 660.19 500.849 C 660.19 501.659 661.117 502.131 661.777 501.66 L 671.931 494.411 C 672.457 494.037 672.77 493.432 672.771 492.787 C 672.772 492.141 672.462 491.535 671.937 491.159 Z " id="Path" fill="rgb(0,0,0)"/><path d=" M 561.659 480.09 C 559.739 485.935 541.845 514.128 558.51 517.611 C 572.533 520.542 571.896 500.367 578.768 499.525 C 583.608 499.48 583.703 530.211 603.705 512.212 C 617.108 498.763 575.207 480.068 607.441 481.647 L 607.441 481.647" id="Path" fill="none" vector-effect="non-scaling-stroke" stroke-width="1" stroke="rgb(175,0,219)" stroke-linejoin="miter" stroke-linecap="square" stroke-miterlimit="3"/><path d=" M 611.441 484.462 L 607.441 476.462 L 603.441 484.462 Z " fill="rgb(175,0,219)" stroke="none"/><text transform="matrix(1,0,0,1,552.782,532.539)" id="Text" style="font-family:'PT Serif';font-weight:400;font-size:12px;font-style:normal;fill:#af00db;stroke:none;">Traversal</text><g id="Group"><text transform="matrix(1,0,0,1,574.471,375.525)" id="Text" style="font-family:'PT Mono';font-weight:400;font-size:12px;font-style:normal;fill:#ff0000;stroke:none;">y</text><circle vector-effect="non-scaling-stroke" cx="578.3403647306416" cy="372.5682625253647" r="6.989833255903818" id="Ellipse" fill="none" stroke-width="1" stroke="rgb(255,0,0)" stroke-linejoin="miter" stroke-linecap="square" stroke-miterlimit="3"/></g><g id="Group"><g id="Group"><text transform="matrix(1,0,0,1,559.081,444.365)" id="Text" style="font-family:'PT Mono';font-weight:400;font-size:12px;font-style:normal;fill:#008000;stroke:none;">x</text><circle vector-effect="non-scaling-stroke" cx="562.8733353972414" cy="440.7349291920313" r="6.989833255903818" id="Ellipse" fill="none" stroke-width="1" stroke="rgb(0,128,0)" stroke-linejoin="miter" stroke-linecap="square" stroke-miterlimit="3"/></g><g id="Group"><text transform="matrix(1,0,0,1,590.015,444.365)" id="Text" style="font-family:'PT Mono';font-weight:400;font-size:12px;font-style:normal;fill:#008000;stroke:none;">x</text><circle vector-effect="non-scaling-stroke" cx="593.807394064042" cy="440.7349291920313" r="6.989833255903818" id="Ellipse" fill="none" stroke-width="1" stroke="rgb(0,128,0)" stroke-linejoin="miter" stroke-linecap="square" stroke-miterlimit="3"/></g><g id="Group"><text transform="matrix(1,0,0,1,571.539,423.921)" id="Text" style="font-family:'PT Mono';font-weight:400;font-size:12px;font-style:normal;fill:#008000;stroke:none;">=&#x3E;</text><circle vector-effect="non-scaling-stroke" cx="578.3403647306416" cy="420.2912212072356" r="9.898768432435645" id="Ellipse" fill="none" stroke-width="1" stroke="rgb(0,128,0)" stroke-linejoin="miter" stroke-linecap="square" stroke-miterlimit="3"/></g><line x1="585.676" y1="427.799" x2="591.312" y2="433.745" id="Path" vector-effect="non-scaling-stroke" stroke-width="1" stroke="rgb(0,128,0)" stroke-linejoin="miter" stroke-linecap="square" stroke-miterlimit="3"/><line x1="570.863" y1="427.421" x2="565.797" y2="433.745" id="Path" vector-effect="non-scaling-stroke" stroke-width="1" stroke="rgb(0,128,0)" stroke-linejoin="miter" stroke-linecap="square" stroke-miterlimit="3"/></g><g id="Group"><g id="Group"><text transform="matrix(1,0,0,1,559.081,508.091)" id="Text" style="font-family:'PT Mono';font-weight:400;font-size:12px;font-style:normal;fill:#000000;stroke:none;">z</text><circle vector-effect="non-scaling-stroke" cx="562.8733353972414" cy="504.46127528260325" r="6.989833255903818" id="Ellipse" fill="none" stroke-width="1" stroke="rgb(0,0,0)" stroke-linejoin="miter" stroke-linecap="square" stroke-miterlimit="3"/></g><g id="Group"><text transform="matrix(1,0,0,1,571.539,487.648)" id="Text" style="font-family:'PT Mono';font-weight:400;font-size:12px;font-style:normal;fill:#000000;stroke:none;">=&#x3E;</text><circle vector-effect="non-scaling-stroke" cx="578.3403647306416" cy="484.01756729780755" r="9.898768432435645" id="Ellipse" fill="none" stroke-width="1" stroke="rgb(0,0,0)" stroke-linejoin="miter" stroke-linecap="square" stroke-miterlimit="3"/></g><line x1="585.676" y1="491.525" x2="591.312" y2="497.471" id="Path" vector-effect="non-scaling-stroke" stroke-width="1" stroke="rgb(0,0,0)" stroke-linejoin="miter" stroke-linecap="square" stroke-miterlimit="3"/><line x1="570.863" y1="491.147" x2="565.797" y2="497.471" id="Path" vector-effect="non-scaling-stroke" stroke-width="1" stroke="rgb(0,0,0)" stroke-linejoin="miter" stroke-linecap="square" stroke-miterlimit="3"/><g id="Group"><text transform="matrix(1,0,0,1,589.938,507.418)" id="Text" style="font-family:'PT Mono';font-weight:400;font-size:12px;font-style:normal;fill:#ff0000;stroke:none;">y</text><circle vector-effect="non-scaling-stroke" cx="593.807394064042" cy="504.46127528260325" r="6.989833255903818" id="Ellipse" fill="none" stroke-width="1" stroke="rgb(255,0,0)" stroke-linejoin="miter" stroke-linecap="square" stroke-miterlimit="3"/></g></g><g id="Group"><g id="Group"><text transform="matrix(1,0,0,1,746.4,510.369)" id="Text" style="font-family:'PT Mono';font-weight:400;font-size:12px;font-style:normal;fill:#000000;stroke:none;">z</text><circle vector-effect="non-scaling-stroke" cx="750.192605935958" cy="506.73875421483876" r="6.989833255903818" id="Ellipse" fill="none" stroke-width="1" stroke="rgb(0,0,0)" stroke-linejoin="miter" stroke-linecap="square" stroke-miterlimit="3"/></g><g id="Group"><text transform="matrix(1,0,0,1,758.858,489.925)" id="Text" style="font-family:'PT Mono';font-weight:400;font-size:12px;font-style:normal;fill:#000000;stroke:none;">=&#x3E;</text><circle vector-effect="non-scaling-stroke" cx="765.6596352693582" cy="486.29504623004306" r="9.898768432435645" id="Ellipse" fill="none" stroke-width="1" stroke="rgb(0,0,0)" stroke-linejoin="miter" stroke-linecap="square" stroke-miterlimit="3"/></g><line x1="772.995" y1="493.803" x2="778.631" y2="499.749" id="Path" vector-effect="non-scaling-stroke" stroke-width="1" stroke="rgb(0,0,0)" stroke-linejoin="miter" stroke-linecap="square" stroke-miterlimit="3"/><line x1="758.182" y1="493.424" x2="753.116" y2="499.749" id="Path" vector-effect="non-scaling-stroke" stroke-width="1" stroke="rgb(0,0,0)" stroke-linejoin="miter" stroke-linecap="square" stroke-miterlimit="3"/></g><g id="Group"><g id="Group"><text transform="matrix(1,0,0,1,764.043,532.611)" id="Text" style="font-family:'PT Mono';font-weight:400;font-size:12px;font-style:normal;fill:#008000;stroke:none;">x</text><circle vector-effect="non-scaling-stroke" cx="767.8349097946557" cy="528.9809739476509" r="6.989833255903818" id="Ellipse" fill="none" stroke-width="1" stroke="rgb(0,128,0)" stroke-linejoin="miter" stroke-linecap="square" stroke-miterlimit="3"/></g><g id="Group"><text transform="matrix(1,0,0,1,794.977,532.611)" id="Text" style="font-family:'PT Mono';font-weight:400;font-size:12px;font-style:normal;fill:#008000;stroke:none;">x</text><circle vector-effect="non-scaling-stroke" cx="798.7689684614563" cy="528.9809739476509" r="6.989833255903818" id="Ellipse" fill="none" stroke-width="1" stroke="rgb(0,128,0)" stroke-linejoin="miter" stroke-linecap="square" stroke-miterlimit="3"/></g><g id="Group"><text transform="matrix(1,0,0,1,776.501,512.167)" id="Text" style="font-family:'PT Mono';font-weight:400;font-size:12px;font-style:normal;fill:#008000;stroke:none;">=&#x3E;</text><circle vector-effect="non-scaling-stroke" cx="783.3019391280558" cy="508.53726596285514" r="9.898768432435645" id="Ellipse" fill="none" stroke-width="1" stroke="rgb(0,128,0)" stroke-linejoin="miter" stroke-linecap="square" stroke-miterlimit="3"/></g><line x1="790.637" y1="516.045" x2="796.273" y2="521.991" id="Path" vector-effect="non-scaling-stroke" stroke-width="1" stroke="rgb(0,128,0)" stroke-linejoin="miter" stroke-linecap="square" stroke-miterlimit="3"/><line x1="775.825" y1="515.667" x2="770.759" y2="521.991" id="Path" vector-effect="non-scaling-stroke" stroke-width="1" stroke="rgb(0,128,0)" stroke-linejoin="miter" stroke-linecap="square" stroke-miterlimit="3"/></g></svg>