<?xml version="1.0" encoding="UTF-8" standalone="no"?><!-- Generator: Gravit.io --><svg xmlns="http://www.w3.org/2000/svg" xmlns:xlink="http://www.w3.org/1999/xlink" style="isolation:isolate" viewBox="617.299 334.151 294.771 220.295" width="294.771pt" height="220.295pt"><line x1="853.279" y1="509.988" x2="842.326" y2="515.985" id="Path" vector-effect="non-scaling-stroke" stroke-width="1" stroke="rgb(0,0,0)" stroke-linejoin="miter" stroke-linecap="square" stroke-miterlimit="3"/><line x1="875.569" y1="509.988" x2="886.138" y2="515.985" id="Path" vector-effect="non-scaling-stroke" stroke-width="1" stroke="rgb(0,0,0)" stroke-linejoin="miter" stroke-linecap="square" stroke-miterlimit="3"/><text transform="matrix(1,0,0,1,617.399,344.771)" id="highlight=ts" style="font-family:'PT Mono';font-weight:400;font-size:12px;font-style:normal;fill:#000000;stroke:none;">parameter</text><text transform="matrix(1,0,0,1,620.999,388.354)" id="highlight=ts" style="font-family:'PT Mono';font-weight:400;font-size:12px;font-style:normal;fill:#000000;stroke:none;">argument</text><text transform="matrix(1,0,0,1,635.399,454.61)" id="highlight=ts" style="font-family:'PT Mono';font-weight:400;font-size:12px;font-style:normal;fill:#000000;stroke:none;">body</text><text transform="matrix(1,0,0,1,685.099,454.61)" id="highlight=ts" style="font-family:'PT Mono';font-weight:400;font-size:12px;font-style:normal;fill:#000000;stroke:none;">substitute()</text><text transform="matrix(1,0,0,1,783.118,454.61)" id="highlight=ts" style="font-family:'PT Mono';font-weight:400;font-size:12px;font-style:normal;fill:#000000;stroke:none;">substitutedBody</text><path d=" M 744.396 475.881 L 734.236 468.632 C 733.577 468.161 732.649 468.632 732.649 469.443 L 732.649 474.507 C 732.649 475.059 732.224 475.507 731.672 475.507 L 707.672 475.507 C 707.12 475.507 706.649 475.955 706.649 476.507 L 706.649 478.507 C 706.649 479.059 707.12 479.507 707.672 479.507 L 731.672 479.507 C 732.224 479.507 732.649 479.955 732.649 480.507 L 732.649 485.571 C 732.649 486.381 733.576 486.853 734.236 486.382 L 744.39 479.133 C 744.916 478.759 745.228 478.154 745.23 477.509 C 745.231 476.864 744.92 476.257 744.396 475.881 Z " id="Path" fill="rgb(0,0,0)"/><text transform="matrix(1,0,0,1,625.241,551.014)" id="Text" style="font-family:'PT Serif';font-weight:400;font-size:12px;font-style:normal;fill:#af00db;stroke:none;">Traversal</text><text transform="matrix(1,0,0,1,646.93,360.248)" id="Text" style="font-family:'PT Mono';font-weight:400;font-size:12px;font-style:normal;fill:#ff0000;stroke:none;">y</text><circle vector-effect="non-scaling-stroke" cx="650.798738443094" cy="357.2905964162079" r="6.989833255903818" id="Ellipse" fill="none" stroke-width="1" stroke="rgb(255,0,0)" stroke-linejoin="miter" stroke-linecap="square" stroke-miterlimit="3"/><g id="Group"><text transform="matrix(1,0,0,1,631.539,429.087)" id="Text" style="font-family:'PT Mono';font-weight:400;font-size:12px;font-style:normal;fill:#008000;stroke:none;">x</text><circle vector-effect="non-scaling-stroke" cx="635.3317091096937" cy="425.45726308287453" r="6.989833255903818" id="Ellipse" fill="none" stroke-width="1" stroke="rgb(0,128,0)" stroke-linejoin="miter" stroke-linecap="square" stroke-miterlimit="3"/><text transform="matrix(1,0,0,1,662.473,429.087)" id="Text" style="font-family:'PT Mono';font-weight:400;font-size:12px;font-style:normal;fill:#008000;stroke:none;">x</text><circle vector-effect="non-scaling-stroke" cx="666.2657677764944" cy="425.45726308287453" r="6.989833255903818" id="Ellipse" fill="none" stroke-width="1" stroke="rgb(0,128,0)" stroke-linejoin="miter" stroke-linecap="square" stroke-miterlimit="3"/><text transform="matrix(1,0,0,1,643.998,408.644)" id="Text" style="font-family:'PT Mono';font-weight:400;font-size:12px;font-style:normal;fill:#008000;stroke:none;">=&#x3E;</text><circle vector-effect="non-scaling-stroke" cx="650.798738443094" cy="405.01355509807877" r="9.898768432435645" id="Ellipse" fill="none" stroke-width="1" stroke="rgb(0,128,0)" stroke-linejoin="miter" stroke-linecap="square" stroke-miterlimit="3"/><line x1="658.134" y1="412.521" x2="663.77" y2="418.467" id="Path" vector-effect="non-scaling-stroke" stroke-width="1" stroke="rgb(0,128,0)" stroke-linejoin="miter" stroke-linecap="square" stroke-miterlimit="3"/><line x1="643.322" y1="412.143" x2="638.256" y2="418.467" id="Path" vector-effect="non-scaling-stroke" stroke-width="1" stroke="rgb(0,128,0)" stroke-linejoin="miter" stroke-linecap="square" stroke-miterlimit="3"/></g><g id="Group"><text transform="matrix(1,0,0,1,631.539,492.814)" id="Text" style="font-family:'PT Mono';font-weight:400;font-size:12px;font-style:normal;fill:#000000;stroke:none;">z</text><circle vector-effect="non-scaling-stroke" cx="635.3317091096937" cy="489.1836091734465" r="6.989833255903818" id="Ellipse" fill="none" stroke-width="1" stroke="rgb(0,0,0)" stroke-linejoin="miter" stroke-linecap="square" stroke-miterlimit="3"/><text transform="matrix(1,0,0,1,643.998,472.37)" id="Text" style="font-family:'PT Mono';font-weight:400;font-size:12px;font-style:normal;fill:#000000;stroke:none;">=&#x3E;</text><circle vector-effect="non-scaling-stroke" cx="650.798738443094" cy="468.7399011886507" r="9.898768432435645" id="Ellipse" fill="none" stroke-width="1" stroke="rgb(0,0,0)" stroke-linejoin="miter" stroke-linecap="square" stroke-miterlimit="3"/><line x1="658.134" y1="476.248" x2="663.77" y2="482.194" id="Path" vector-effect="non-scaling-stroke" stroke-width="1" stroke="rgb(0,0,0)" stroke-linejoin="miter" stroke-linecap="square" stroke-miterlimit="3"/><line x1="643.322" y1="475.869" x2="638.256" y2="482.194" id="Path" vector-effect="non-scaling-stroke" stroke-width="1" stroke="rgb(0,0,0)" stroke-linejoin="miter" stroke-linecap="square" stroke-miterlimit="3"/><g id="Group"><g id="Group"><text transform="matrix(1,0,0,1,662.894,498.132)" id="Text" style="font-family:'PT Mono';font-weight:400;font-size:12px;font-style:normal;fill:#000000;stroke:none;">call</text><circle vector-effect="non-scaling-stroke" cx="676.7987384430941" cy="494.50220422073437" r="16.994916627951852" id="Ellipse" fill="none" stroke-width="1" stroke="rgb(0,0,0)" stroke-linejoin="miter" stroke-linecap="square" stroke-miterlimit="3"/></g></g><g id="Group"><text transform="matrix(1,0,0,1,686.994,524.328)" id="Text" style="font-family:'PT Mono';font-weight:400;font-size:12px;font-style:normal;fill:#ff0000;stroke:none;">y</text><line x1="669.721" y1="509.956" x2="665.352" y2="514.381" id="Path" vector-effect="non-scaling-stroke" stroke-width="1" stroke="rgb(0,0,0)" stroke-linejoin="miter" stroke-linecap="square" stroke-miterlimit="3"/><line x1="685.14" y1="509.956" x2="689.766" y2="514.381" id="Path" vector-effect="non-scaling-stroke" stroke-width="1" stroke="rgb(0,0,0)" stroke-linejoin="miter" stroke-linecap="square" stroke-miterlimit="3"/><circle vector-effect="non-scaling-stroke" cx="690.8631785045952" cy="521.3704365572534" r="6.989833255903818" id="Ellipse" fill="none" stroke-width="1" stroke="rgb(255,0,0)" stroke-linejoin="miter" stroke-linecap="square" stroke-miterlimit="3"/></g><g id="Group"><text transform="matrix(1,0,0,1,658.865,524.328)" id="Text" style="font-family:'PT Mono';font-weight:400;font-size:12px;font-style:normal;fill:#ff0000;stroke:none;">y</text><circle vector-effect="non-scaling-stroke" cx="662.7342983815928" cy="521.3704365572534" r="6.989833255903818" id="Ellipse" fill="none" stroke-width="1" stroke="rgb(255,0,0)" stroke-linejoin="miter" stroke-linecap="square" stroke-miterlimit="3"/></g></g><text transform="matrix(1,0,0,1,818.859,495.091)" id="Text" style="font-family:'PT Mono';font-weight:400;font-size:12px;font-style:normal;fill:#000000;stroke:none;">z</text><circle vector-effect="non-scaling-stroke" cx="822.6509796484104" cy="491.46108810568205" r="6.989833255903818" id="Ellipse" fill="none" stroke-width="1" stroke="rgb(0,0,0)" stroke-linejoin="miter" stroke-linecap="square" stroke-miterlimit="3"/><text transform="matrix(1,0,0,1,831.317,474.648)" id="Text" style="font-family:'PT Mono';font-weight:400;font-size:12px;font-style:normal;fill:#000000;stroke:none;">=&#x3E;</text><circle vector-effect="non-scaling-stroke" cx="838.1180089818106" cy="471.0173801208863" r="9.898768432435645" id="Ellipse" fill="none" stroke-width="1" stroke="rgb(0,0,0)" stroke-linejoin="miter" stroke-linecap="square" stroke-miterlimit="3"/><line x1="845.453" y1="478.525" x2="851.089" y2="484.471" id="Path" vector-effect="non-scaling-stroke" stroke-width="1" stroke="rgb(0,0,0)" stroke-linejoin="miter" stroke-linecap="square" stroke-miterlimit="3"/><line x1="830.641" y1="478.147" x2="825.575" y2="484.471" id="Path" vector-effect="non-scaling-stroke" stroke-width="1" stroke="rgb(0,0,0)" stroke-linejoin="miter" stroke-linecap="square" stroke-miterlimit="3"/><g id="Group"><g id="Group"><text transform="matrix(1,0,0,1,850.213,500.41)" id="Text" style="font-family:'PT Mono';font-weight:400;font-size:12px;font-style:normal;fill:#000000;stroke:none;">call</text><circle vector-effect="non-scaling-stroke" cx="864.1180089818106" cy="496.77968315296994" r="16.994916627951852" id="Ellipse" fill="none" stroke-width="1" stroke="rgb(0,0,0)" stroke-linejoin="miter" stroke-linecap="square" stroke-miterlimit="3"/></g></g><g id="Group"><text transform="matrix(1,0,0,1,869.854,549.958)" id="Text" style="font-family:'PT Mono';font-weight:400;font-size:12px;font-style:normal;fill:#008000;stroke:none;">x</text><circle vector-effect="non-scaling-stroke" cx="873.6458962763624" cy="546.3274723100102" r="6.989833255903818" id="Ellipse" fill="none" stroke-width="1" stroke="rgb(0,128,0)" stroke-linejoin="miter" stroke-linecap="square" stroke-miterlimit="3"/><text transform="matrix(1,0,0,1,900.788,549.958)" id="Text" style="font-family:'PT Mono';font-weight:400;font-size:12px;font-style:normal;fill:#008000;stroke:none;">x</text><circle vector-effect="non-scaling-stroke" cx="904.5799549431626" cy="546.3274723100102" r="6.989833255903818" id="Ellipse" fill="none" stroke-width="1" stroke="rgb(0,128,0)" stroke-linejoin="miter" stroke-linecap="square" stroke-miterlimit="3"/><text transform="matrix(1,0,0,1,882.312,529.514)" id="Text" style="font-family:'PT Mono';font-weight:400;font-size:12px;font-style:normal;fill:#008000;stroke:none;">=&#x3E;</text><circle vector-effect="non-scaling-stroke" cx="889.1129256097619" cy="525.8837643252144" r="9.898768432435645" id="Ellipse" fill="none" stroke-width="1" stroke="rgb(0,128,0)" stroke-linejoin="miter" stroke-linecap="square" stroke-miterlimit="3"/><line x1="896.448" y1="533.391" x2="902.084" y2="539.338" id="Path" vector-effect="non-scaling-stroke" stroke-width="1" stroke="rgb(0,128,0)" stroke-linejoin="miter" stroke-linecap="square" stroke-miterlimit="3"/><line x1="881.636" y1="533.013" x2="876.57" y2="539.338" id="Path" vector-effect="non-scaling-stroke" stroke-width="1" stroke="rgb(0,128,0)" stroke-linejoin="miter" stroke-linecap="square" stroke-miterlimit="3"/></g><g id="Group"><text transform="matrix(1,0,0,1,819.864,549.958)" id="Text" style="font-family:'PT Mono';font-weight:400;font-size:12px;font-style:normal;fill:#008000;stroke:none;">x</text><circle vector-effect="non-scaling-stroke" cx="823.6560630204585" cy="546.3274723100102" r="6.989833255903818" id="Ellipse" fill="none" stroke-width="1" stroke="rgb(0,128,0)" stroke-linejoin="miter" stroke-linecap="square" stroke-miterlimit="3"/><text transform="matrix(1,0,0,1,850.798,549.958)" id="Text" style="font-family:'PT Mono';font-weight:400;font-size:12px;font-style:normal;fill:#008000;stroke:none;">x</text><circle vector-effect="non-scaling-stroke" cx="854.5901216872592" cy="546.3274723100102" r="6.989833255903818" id="Ellipse" fill="none" stroke-width="1" stroke="rgb(0,128,0)" stroke-linejoin="miter" stroke-linecap="square" stroke-miterlimit="3"/><text transform="matrix(1,0,0,1,832.322,529.514)" id="Text" style="font-family:'PT Mono';font-weight:400;font-size:12px;font-style:normal;fill:#008000;stroke:none;">=&#x3E;</text><circle vector-effect="non-scaling-stroke" cx="839.1230923538577" cy="525.8837643252144" r="9.898768432435645" id="Ellipse" fill="none" stroke-width="1" stroke="rgb(0,128,0)" stroke-linejoin="miter" stroke-linecap="square" stroke-miterlimit="3"/><line x1="846.458" y1="533.391" x2="852.094" y2="539.338" id="Path" vector-effect="non-scaling-stroke" stroke-width="1" stroke="rgb(0,128,0)" stroke-linejoin="miter" stroke-linecap="square" stroke-miterlimit="3"/><line x1="831.646" y1="533.013" x2="826.58" y2="539.338" id="Path" vector-effect="non-scaling-stroke" stroke-width="1" stroke="rgb(0,128,0)" stroke-linejoin="miter" stroke-linecap="square" stroke-miterlimit="3"/></g><path d=" M 632.017 461.227 C 640.303 474.702 612.368 483.2 625.585 499.269 C 637.309 513.523 644.881 484.031 652.559 489.626 C 662.678 497 648.531 520.562 652.559 528.736 C 661.435 546.75 673.236 519.1 677.065 520.354 C 680.63 521.522 685.798 545.896 698.282 533.277 C 707.455 524.006 702.851 519.143 699.196 509.299 C 696.502 502.041 703.963 494.52 700.073 487.414 C 694.886 478.461 653.282 460.53 679.612 462.278 L 679.612 462.278" id="Path" fill="none" vector-effect="non-scaling-stroke" stroke-width="1" stroke="rgb(175,0,219)" stroke-linejoin="miter" stroke-linecap="square" stroke-miterlimit="3"/><path d=" M 683.612 465.348 L 679.612 457.348 L 675.612 465.348 Z " fill="rgb(175,0,219)" stroke="none"/></svg>